<?xml version="1.0" encoding="UTF-8" standalone="no"?>
<!-- Created with Inkscape (http://www.inkscape.org/) -->
<svg
   xmlns:dc="http://purl.org/dc/elements/1.1/"
   xmlns:cc="http://web.resource.org/cc/"
   xmlns:rdf="http://www.w3.org/1999/02/22-rdf-syntax-ns#"
   xmlns:svg="http://www.w3.org/2000/svg"
   xmlns="http://www.w3.org/2000/svg"
   xmlns:sodipodi="http://sodipodi.sourceforge.net/DTD/sodipodi-0.dtd"
   xmlns:inkscape="http://www.inkscape.org/namespaces/inkscape"
   id="svg2"
   sodipodi:version="0.32"
   inkscape:version="0.44.1"
   width="752"
   height="337"
   version="1.0"
   sodipodi:docbase="C:\Wiki Uploads\To Upload"
   sodipodi:docname="Bowhead_whale_size.svg">
  <metadata
     id="metadata7">
    <rdf:RDF>
      <cc:Work
         rdf:about="">
        <dc:format>image/svg+xml</dc:format>
        <dc:type
           rdf:resource="http://purl.org/dc/dcmitype/StillImage" />
      </cc:Work>
    </rdf:RDF>
  </metadata>
  <defs
     id="defs5" />
  <sodipodi:namedview
     inkscape:window-height="573"
     inkscape:window-width="853"
     inkscape:pageshadow="2"
     inkscape:pageopacity="0.0"
     guidetolerance="10.0"
     gridtolerance="10.0"
     objecttolerance="10.0"
     borderopacity="1.0"
     bordercolor="#666666"
     pagecolor="#ffffff"
     id="base"
     inkscape:zoom="1.0212766"
     inkscape:cx="376"
     inkscape:cy="168.5"
     inkscape:window-x="88"
     inkscape:window-y="116"
     inkscape:current-layer="svg2" />
  <path
     style="fill:black"
     d="M 721.97431,283.68952 C 692.09182,270.64144 665.06405,247.75542 626.42714,202.78404 C 623.91832,199.86391 621.5843,198.64041 613.71167,196.11859 C 597.93407,191.06457 583.66913,189.68257 554,190.33367 C 523.81208,190.99616 515.17344,191.92721 497.07946,196.46846 C 479.47255,200.88747 443.29438,208.49012 425.5,211.51051 C 396.29258,216.46813 351.80098,221 332.33698,221 C 322.96452,221 322.87289,221.02359 323.59612,223.25 C 323.99811,224.4875 324.28275,229.23313 324.22865,233.79583 C 323.99459,253.53551 316.18413,261.03103 302.5,254.6483 C 292.92501,250.1822 273.58748,236.90318 263.118,227.6048 L 257.93324,223 L 230.21662,222.99849 C 197.14579,222.99669 167.89591,221.68705 140,218.95911 C 78.789044,212.97328 42.71896,202.72989 23.632974,185.91252 C 18.869519,181.71527 18.777618,181.52548 19.314295,176.99408 C 20.675887,165.49757 29.868453,149.35212 42.708845,135.90483 C 56.507793,121.45369 74.557475,109.15017 106.03911,92.735907 C 127.85505,81.36126 140.72637,77.447551 159.88097,76.36452 C 167.82683,75.915249 175.28294,74.546747 189.5,70.928217 C 224.37063,62.052932 258.81457,55.974552 295,52.310454 C 320.19447,49.759288 379.39393,49.77516 400.5,52.338739 C 445.51106,57.805859 480.59299,66.880911 518,82.733834 C 559.28564,100.2305 600.28344,127.28588 632.98265,158.61349 L 642.5,167.73162 L 662.5,168.26425 C 675.26767,168.60427 685.21212,169.38347 690,170.41901 C 704.51122,173.55755 719.72481,179.61332 720.72149,182.64769 C 720.92882,183.27892 718.45145,185.40335 715.21622,187.36866 C 710.37033,190.31237 709.12407,191.64253 708.14258,194.91845 C 706.8795,199.13424 701.80622,205 699.42308,205 C 697.26828,205 697.64662,205.68594 701.94157,209.56618 C 706.95399,214.0946 708.5142,218.66716 709.93745,233 C 711.79543,251.71087 717.91149,267.09186 728.74532,280.29906 C 731.08539,283.15178 733,285.82651 733,286.24291 C 733,287.75449 729.34568,286.9082 721.97431,283.68952 z M 722.58894,276.75 C 712.8796,262.78076 707,245.33608 707,230.49784 C 707,219.14071 702.69981,211.81932 693.25,207.08748 C 690.9125,205.91701 689,204.5185 689,203.97968 C 689,203.44085 691.21538,203 693.92308,203 C 698.04902,203 699.32716,202.519 701.81679,200.02936 C 703.45065,198.39551 705.18703,195.36908 705.67542,193.30396 C 706.40708,190.21016 707.47892,189.01676 711.76418,186.5246 C 714.62462,184.86107 716.97285,183.22395 716.98249,182.88656 C 717.00747,182.01147 706.49502,177.4664 700,175.54415 C 690.29506,172.6719 675.89354,171.01195 660.62682,171.0059 L 645.75364,171 L 653.62682,179.0499 C 660.86865,186.45428 663.37026,190 661.35244,190 C 660.91563,190 652.67013,182.15402 643.02912,172.56449 C 611.92233,141.62382 589.82528,124.3988 556.85949,105.39383 C 480.26367,61.235884 390.38854,45.153492 284,56.56794 C 254.2572,59.759051 217.92792,66.563645 185.32525,75.050047 C 174.35674,77.905124 168.12003,79.000886 162.82525,79.003195 C 148.31156,79.009525 128.23677,84.110667 115,91.155917 C 95.715721,101.41994 89.460754,104.87811 80.904679,110.00608 C 61.668917,121.5348 45.461258,135.23259 36.096043,147.87581 C 25.850134,161.70797 18.588239,181 23.627451,181 C 25.838876,181 46.854823,159.68952 61.927702,142.16297 C 75.021511,126.93767 79.264108,123.20634 87.897512,119.32273 C 97.746244,114.89243 106.41996,113.75004 126.90363,114.18535 C 148.8251,114.65122 151.8189,115.56427 160.46605,124.42122 C 165.91485,130.00222 174.41505,142.94778 179.32412,153.14151 C 183.5899,161.99945 192.62724,169.17814 204.25,172.94103 C 206.3125,173.60877 208,174.57021 208,175.07755 C 208,178.48219 192.30231,171.75562 184.89738,165.17793 C 182.12508,162.71534 178.78405,158.18858 176.49587,153.79474 C 167.49342,136.50794 157.59356,123.96013 149.75695,119.90386 C 141.84325,115.80769 113.96168,115.01453 99.365893,118.47035 C 91.428052,120.34978 83.362596,123.95628 79.164296,127.50357 C 77.329659,129.05371 70.359081,136.66206 63.674124,144.41101 C 48.781137,161.67438 36.053922,175.05611 29.765127,180.0638 L 25.030253,183.83412 L 29.955527,187.37258 C 37.098446,192.50426 45.229692,196.38218 58.288638,200.88509 C 92.772624,212.77568 142.65218,218.60598 226.88297,220.59167 L 255.26593,221.26079 L 245.65453,210.38039 C 236.95552,200.53286 234.60158,196.99624 236.75,197.00202 C 237.1625,197.00313 241.57872,201.61563 246.56383,207.25202 C 260.20055,222.67032 277.79103,236.91068 297.65088,248.6095 C 306.97371,254.10129 311.06336,255.10682 315.1598,252.91448 C 318.20635,251.28401 320.79378,244.4029 321.51995,236 C 322.32062,226.73511 320.0318,218.53583 314.56655,211.09065 C 310.92625,206.13158 301.96941,198.45112 294.75,194.09802 C 291.13528,191.91845 289.87038,190 292.04804,190 C 294.18589,190 304.6407,197.44901 310.78879,203.35271 C 314.28005,206.70518 318.34331,211.62386 319.81826,214.28311 L 322.5,219.11811 L 332,218.52416 C 384.34119,215.25175 408.00408,212.37232 447.71012,204.44393 C 468.39212,200.31421 499.07061,193.37714 506.901,191.05959 C 508.77156,190.50596 519.34656,189.31756 530.401,188.4187 C 564.83361,185.61891 596.68422,187.49218 614.12954,193.34314 C 617.87191,194.59829 620.58276,195.14705 620.15364,194.56261 C 619.72452,193.97818 617.0394,190.51119 614.18671,186.85821 C 609.19175,180.46196 607.99837,178 609.89287,178 C 610.38395,178 614.15215,182.3875 618.26665,187.75 C 645.0055,222.59926 675.20676,252.38973 700.49084,268.85577 C 706.19022,272.56744 725.46771,283 726.62684,283 C 726.79524,283 724.97818,280.1875 722.58894,276.75 z M 203,160.16735 C 203,158.9458 205.47218,158 208.66512,158 C 210.2187,158 211.01106,158.47369 210.75603,159.25 C 210.27521,160.71366 203,161.57414 203,160.16735 z M 702.0289,115.03903 C 700.76654,114.24068 700.74482,113.49793 701.87578,109.80434 C 704.59209,100.93323 704.24626,99.971949 697,96.251531 C 690.58139,92.956052 685.08064,88.060301 679.58285,80.75 C 677.81136,78.39448 675.93908,77 674.54798,77 C 673.32992,77 672.00347,76.670134 671.6003,76.266964 C 671.19713,75.863794 669.11917,75.017779 666.98262,74.386931 L 663.09799,73.239934 L 663.66185,76.059225 C 664.19906,78.745285 663.97227,78.949126 658.86285,80.372673 C 655.91328,81.194459 650.74982,82.158744 647.3885,82.515527 C 642.21868,83.064271 641.17811,82.906543 640.63525,81.49187 C 639.66784,78.970834 640.75476,78 644.54467,78 C 649.48171,78 657,75.796077 657,74.348826 C 657,73.459127 655.80834,73.623794 652.75,74.936099 C 650.23625,76.014729 644.69302,77.010617 639.18124,77.373845 C 629.94411,77.982573 629.86527,77.968295 630.18124,75.743976 C 630.47414,73.682063 631.15601,73.457224 638.58553,72.972772 C 647.2152,72.410064 650.71303,70.893803 653.62153,66.454864 C 655.55027,63.511236 655.64714,63.636007 650.5,62.434066 C 647.16651,61.65564 646.44751,61.044246 646.18501,58.764814 C 645.92342,56.493332 646.45651,55.749949 649.32949,54.379922 C 653.49042,52.39571 657.59634,53.152832 658.52392,56.075351 C 659.14413,58.02947 659.28612,58.051037 661.04595,56.458413 C 663.17566,54.531057 665.24755,54.73136 677.5,58.049134 C 686.70721,60.542304 689.37244,62.379929 688.54763,65.666242 C 688.15241,67.240932 688.54809,68.22296 689.86086,68.925534 C 690.89424,69.478585 692.76847,72.534088 694.02579,75.715541 C 695.28312,78.896993 696.57918,81.801443 696.90592,82.169872 C 697.23267,82.538302 702.61436,83.213302 708.86524,83.669872 L 720.23048,84.5 L 721.75037,88.5 C 722.5863,90.7 724.55944,94.161113 726.13513,96.191362 C 729.53011,100.56576 729.61173,101 727.03896,101 C 725.96038,101 724.18557,101.95781 723.09494,103.12847 C 720.22349,106.21061 718.53504,104.95624 716.65189,98.34184 C 715.73713,95.128828 714.61579,91.919075 714.16003,91.209054 C 713.6329,90.387879 710.54324,89.808354 705.66952,89.616498 L 698.00769,89.314886 L 704.25385,93.156882 C 707.68923,95.26998 711.0625,96.99913 711.75,96.999439 C 713.3644,97.000164 713.32526,97.97729 711.53965,102.25086 C 710.73646,104.17317 710.2288,105.91563 710.41152,106.12298 C 710.59424,106.33034 711.05397,108.6375 711.43314,111.25 L 712.12255,116 L 707.81127,115.98469 C 705.44007,115.97627 702.83801,115.55072 702.0289,115.03903 z "
     id="path1873" />
</svg>
