<?xml version="1.0" encoding="UTF-8" standalone="no"?>
<!-- Created with Inkscape (http://www.inkscape.org/) -->
<svg
   xmlns:dc="http://purl.org/dc/elements/1.1/"
   xmlns:cc="http://web.resource.org/cc/"
   xmlns:rdf="http://www.w3.org/1999/02/22-rdf-syntax-ns#"
   xmlns:svg="http://www.w3.org/2000/svg"
   xmlns="http://www.w3.org/2000/svg"
   xmlns:sodipodi="http://sodipodi.sourceforge.net/DTD/sodipodi-0.dtd"
   xmlns:inkscape="http://www.inkscape.org/namespaces/inkscape"
   id="svg2472"
   sodipodi:version="0.32"
   inkscape:version="0.45.1"
   width="900"
   height="400"
   version="1.0"
   sodipodi:docbase="C:\Documents and Settings\Christopher\Desktop\Old Desktop\Stuff\Cetacean Size\New"
   sodipodi:docname="Common dolphin size.svg"
   inkscape:output_extension="org.inkscape.output.svg.inkscape">
  <metadata
     id="metadata2477">
    <rdf:RDF>
      <cc:Work
         rdf:about="">
        <dc:format>image/svg+xml</dc:format>
        <dc:type
           rdf:resource="http://purl.org/dc/dcmitype/StillImage" />
      </cc:Work>
    </rdf:RDF>
  </metadata>
  <defs
     id="defs2475" />
  <sodipodi:namedview
     inkscape:window-height="573"
     inkscape:window-width="744"
     inkscape:pageshadow="2"
     inkscape:pageopacity="0.0"
     guidetolerance="10.0"
     gridtolerance="10.0"
     objecttolerance="10.0"
     borderopacity="1.0"
     bordercolor="#666666"
     pagecolor="#ffffff"
     id="base"
     inkscape:zoom="0.73222222"
     inkscape:cx="450"
     inkscape:cy="200"
     inkscape:window-x="22"
     inkscape:window-y="29"
     inkscape:current-layer="svg2472" />
  <path
     style="fill:#000000"
     d="M 787.5,320.33368 C 771.73862,318.40737 762.97411,315.43336 761.12986,311.38567 C 758.37618,305.34199 760.27453,295.26991 767.51963,277.48355 C 773.92372,261.76181 774.70607,258.25363 772.67382,254.37148 C 769.81256,248.9057 760.46117,241.71165 745.5,233.46658 C 741.65,231.34486 735.8,227.99023 732.5,226.01185 C 729.2,224.03347 724.50235,221.77133 722.06077,220.98488 C 716.36252,219.14944 707.25457,213.25333 700.81457,207.23097 C 695.8654,202.60276 681,183.73273 681,182.0785 C 681,181.61878 679.66131,180.68814 678.02512,180.01041 C 674.10263,178.38566 668.84605,172.55834 661.13334,161.28458 C 657.66584,156.2161 652.01816,149.43994 648.58293,146.22646 L 642.33706,140.38375 L 635.64773,140.8097 C 629.10601,141.22624 628.88713,141.16031 625.7292,137.82215 C 623.03128,134.97026 620.7765,133.94638 612.02424,131.59883 C 606.26257,130.05343 597.81236,127.57128 593.24599,126.08295 L 584.94351,123.3769 L 584.32978,125.82217 C 583.94744,127.34555 584.56193,130.19634 585.95969,133.38373 C 590.04886,142.70846 590.31034,143.62737 589.63744,146.30841 C 589.17828,148.13786 588.11485,149.15676 586.23477,149.56859 C 584.73065,149.89806 577.65,152.10029 570.5,154.46242 C 552.66251,160.35535 544.96787,161.78017 527.32488,162.45717 C 517.39672,162.83814 510.92482,163.55129 508.607,164.51974 C 502.30197,167.15415 493.93981,165.93049 489.25,161.68716 C 487.33764,159.95687 487,158.63288 487,152.86423 L 487,146.07709 L 491.2465,144.93362 C 496.3651,143.55533 508.10667,144.50026 512.67672,146.65827 C 515.70246,148.08704 516.51048,147.94522 529.67672,143.67457 C 542.5718,139.49188 551.01439,137.35264 557,136.7512 C 558.375,136.61304 559.455,135.9375 559.4,135.25 C 559.345,134.5625 559.2325,130.11769 559.15,125.37264 L 559,116.74528 L 554.57931,120.82013 C 549.23276,125.74841 539.00364,131.03181 527.06399,135.03196 L 518.20499,138 L 492.01022,138 C 467.32965,138 465.66848,138.11561 463.27287,140 C 461.38312,141.48647 459.21609,142 454.83302,142 C 444.71754,142 439.60686,138.51449 438.34801,130.75713 C 437.8551,127.71963 438.25178,126.85175 441.63475,123.56625 C 445.39674,119.91266 445.60425,119.84516 450.99103,120.52315 C 455.65485,121.11014 483.63885,122.13214 499.01498,122.27702 C 503.48623,122.31915 506.66673,121.29929 522.83887,114.63765 C 529.58412,111.85914 531.67533,110.46667 533.78142,107.35135 C 535.21343,105.23311 539.90422,99.377405 544.20538,94.338678 L 552.02568,85.177357 L 549.76284,81.631004 C 547.78641,78.533512 546.9822,78.079295 543.40893,78.042326 C 537.84036,77.984714 530.57524,75.674682 526.70491,72.731086 C 524.61291,71.140003 521.68846,70.121059 518.28318,69.796769 C 510.48627,69.054255 509.74051,68.050914 510.15767,58.864823 C 510.56715,49.847786 512.81564,45.711076 517.5989,45.174652 C 519.1945,44.995711 521.85,43.560812 523.5,41.985986 C 527.75605,37.923848 531.3625,36.840426 540.57085,36.857695 C 553.85076,36.882598 561.23346,41.354113 562.65315,50.232394 C 563.01417,52.490088 564.4805,55.625419 565.93853,57.257235 L 568.57187,60.204457 L 575.25069,52.742059 C 580.64254,46.717609 582.79933,45.036123 586.4436,44.015791 C 592.29327,42.377985 594.39752,42.921915 623.07337,53.484265 C 635.55944,58.083332 652.37005,63.460029 660.43029,65.432481 C 677.22042,69.541255 685.9648,73.166524 691.79907,78.437441 C 698.52521,84.514099 699.81625,93.2362 694.99235,100.01075 C 693.77656,101.71817 692.94341,103.24458 693.14091,103.40276 C 693.33841,103.56095 696.2006,105.50082 699.50133,107.71358 C 711.09537,115.48606 715.14848,121.31897 724.02077,143 C 726.60908,149.325 730.6529,159.039 733.00703,164.58666 L 737.28728,174.67332 L 756.60418,175.90533 C 767.22848,176.58294 780.32634,177.81931 785.71054,178.65284 C 791.09474,179.48636 803.6,180.53067 813.5,180.97352 C 823.4,181.41637 833.075,182.34222 835,183.03096 C 841.48709,185.35194 841.80418,185.8464 850.69185,207.5 C 855.84289,220.04981 862.73016,230.97626 872.92922,242.77892 C 876.81815,247.2793 880,251.40277 880,251.94217 C 880,252.48158 878.0875,253.41557 875.75,254.01771 C 863.05532,257.28784 860.01145,258.82827 853.95223,265.04904 C 850.72263,268.36476 848.13661,270.07135 845.62903,270.54177 C 838.10864,271.95261 834.40394,266.42744 828.50291,245 C 824.27453,229.64617 818.85368,213.95183 816.58054,210.48257 C 815.73387,209.1904 813.51047,206.96566 811.63964,205.53871 C 808.30142,202.99253 807.887,202.93773 789.36906,202.59408 C 765.46062,202.15039 744.41049,199.25106 730.5,194.48575 C 729.4,194.10893 730.525,195.03083 733,196.53443 C 735.475,198.03803 741.775,202.06992 747,205.4942 C 782.20154,228.56401 800.28447,239.1837 802.80786,238.2689 C 803.52719,238.00812 805.03019,238.62233 806.14786,239.63382 C 808.99749,242.21269 807.97166,247.54751 802.81995,256.94058 C 797.04639,267.46748 796.88486,271.78106 801.4113,294.55933 C 805.28413,314.0485 805.65307,317.94693 803.8,319.8 C 802.66665,320.93335 794.57439,321.1983 787.5,320.33368 z M 517.00966,285.73626 C 510.62681,280.56204 501.17955,269.00536 496.77036,260.97784 L 493.5,255.02373 L 486.9613,255.01187 C 476.29307,254.99251 419.85171,249.98606 389.5,246.36688 C 381.06148,245.36066 363.34189,244.63056 339,244.28612 C 297.33772,243.69661 273.71167,244.90879 230.28941,249.86373 L 206.5,252.57835 L 216,257.89986 C 226.49563,263.77907 231,267.45826 231,270.15191 C 231,273.45785 227.33003,274.29892 215.56996,273.68812 C 205.98303,273.19018 200.11672,272.06603 188.27123,268.45691 C 186.08585,267.79106 186.07262,267.8383 187.59155,270.88306 C 189.40967,274.52757 189.13987,277.8949 186.91823,279.28664 C 184.25188,280.95697 176.67237,279.12831 170.03592,275.21357 C 162.99665,271.0612 147.81423,256.76217 143.53013,250.25 C 141.17275,246.66659 140.21415,246 137.41833,246 C 127.50704,246 95.149996,240.44852 78.5,235.89142 C 68.87947,233.25828 50.845257,231.00419 39.198784,230.97916 C 27.803961,230.95468 17.881125,229.10738 14.964069,226.46748 C 12.655433,224.3782 12.96181,220.825 15.713933,217.77096 C 17.517325,215.76972 25.697746,212.57049 31.5,211.59728 C 46.234997,209.12578 45.527682,209.48263 56.852218,198.80672 C 83.519877,173.66649 119.67817,156.48903 165.83233,147.03435 C 174.20023,145.32018 186.09869,143.48107 192.27335,142.94743 C 222.71322,140.31669 247.3548,133.4607 267.21858,122.09551 C 271.23673,119.7965 280.14383,113.37177 287.01215,107.81833 C 309.74207,89.439834 320.60315,82.63728 326.33001,83.192609 C 331.08348,83.653549 331.09259,87.84592 326.3627,98.236108 C 323.11293,105.37489 322.59389,107.52111 322.55037,114 C 322.50722,120.42541 322.89212,122.16703 325.23677,126.15549 C 330.34482,134.84474 339.03754,139.96261 362.38884,148.02887 C 402.08699,161.74185 445.62916,182.80899 473.5,201.78812 C 487.29692,211.18337 497.16334,219.39762 507.88333,230.41384 C 512.49416,235.15208 517.21916,239.24577 518.38333,239.51094 C 519.5475,239.7761 527.475,240.41214 536,240.92437 C 552.55333,241.91898 561.95085,243.58396 574.07122,247.66955 C 586.89185,251.99118 589.69624,256 579.89882,256 C 572.3283,256 560.39927,258.77097 551.57392,262.57952 C 545.37077,265.25648 542.29676,266 537.43233,266 C 531.48551,266 531.18702,266.11888 530.52763,268.75 C 530.14858,270.2625 528.24941,274.11681 526.30725,277.31514 C 523.61862,281.74274 522.91426,283.8213 523.35527,286.02636 C 523.67384,287.61921 523.55221,289.15872 523.08497,289.44748 C 522.61774,289.73625 519.88385,288.0662 517.00966,285.73626 z M 524.18913,275.5 C 528.15033,269.60784 528.69026,266.43978 525.98043,264.98952 C 522.34611,263.0445 525.11796,262.12063 531.5,263.14982 C 538.63719,264.3008 541.98832,263.78989 548.77429,260.51623 C 554.68972,257.66254 566.14577,254.51226 574.58482,253.41864 L 580.5,252.65209 L 572,249.91975 C 561.59322,246.57447 548.11266,244.4906 524.5,242.57703 C 508.17393,241.25397 497.03068,239.36401 495.28942,237.62275 C 494.92857,237.26191 495.08455,236.51545 495.63604,235.96396 C 496.30631,235.29369 497.94188,235.41661 500.56937,236.33472 C 502.73122,237.09013 506.3,238.01578 508.5,238.39172 L 512.5,239.07526 L 501,227.74829 C 487.49344,214.44494 476.4757,206.00285 459.05481,195.60873 C 430.21375,178.40081 399.48853,164.35789 359.25596,149.99578 C 341.51696,143.66336 335.89994,140.7925 329.24245,134.65583 C 317.82731,124.13372 316.37347,113.37635 324.01391,95.968309 C 327.62425,87.742468 327.75302,85.99914 324.75,86.002571 C 320.62294,86.007286 309.87798,93.249232 288.64786,110.33488 C 283.22918,114.69575 275.09887,120.58467 270.58051,123.42139 C 253.99866,133.83179 228.93877,141.61013 202.60176,144.5213 C 147.00847,150.66633 105.48072,164.74906 73.793671,188.2022 C 65.193652,194.5675 53,205.68595 53,207.16235 C 53,207.62728 55.025,208.54928 57.5,209.21124 C 59.975,209.8732 62,210.77148 62,211.2074 C 62,212.47377 55.737138,212.09459 53,210.6625 C 50.873404,209.54986 49.902554,209.6133 46.5,211.0873 C 44.3,212.04034 38.225,213.56938 33,214.48515 C 27.775,215.40093 21.925,217.01016 20,218.06122 L 16.5,219.97224 L 20.5,219.51371 C 28.493368,218.5974 71.090556,216.75722 71.63791,217.30458 C 73.473756,219.14042 68.276195,219.8236 43.536531,220.99827 C 28.391439,221.71737 16,222.7099 16,223.20389 C 16,225.63432 24.130533,227.2933 40,228.10094 C 60.072944,229.12251 68.063569,230.24383 83,234.13515 C 101.1977,238.87611 122.00116,242.12536 137.5,242.64738 L 151.5,243.11893 L 149,240.91402 C 147.625,239.70132 143.6875,237.38215 140.25,235.7603 C 134.1804,232.8966 132.32925,231 135.60377,231 C 139.89418,231 151.97501,238.95835 161.69491,248.18777 C 175.7198,261.50495 187.48072,267.03673 209.29197,270.57517 C 219.55637,272.24036 228.76859,271.7038 228.29473,269.46837 C 228.18182,268.93577 221.65682,264.62264 213.79473,259.88364 C 203.75575,253.83249 197.03274,248.9202 191.21269,243.38364 C 182.08371,234.69933 177.52676,232.07131 171.5,232.01522 C 165.53118,231.95966 160,230.86864 160,229.74684 C 160,229.13331 163.33547,228.92431 168.75,229.19856 C 179.40275,229.73814 183.29202,231.54833 191,239.55444 C 194.025,242.69645 197.9523,246.37769 199.72732,247.73498 L 202.95465,250.20278 L 221.72732,248.03032 C 287.41574,240.42852 345.78485,239.03173 392.08695,243.95356 C 411.88794,246.05837 444.20931,249.20681 466,251.15348 C 473.425,251.81678 488.16515,252.38314 498.7559,252.41205 C 511.34794,252.44642 517.89513,252.8168 517.67468,253.4823 C 517.48404,254.05783 512.91836,254.62383 507.16632,254.78501 L 496.99507,255.07002 L 499.13438,259.28501 C 502.56568,266.04555 506.95637,272.05063 513.41518,278.81665 L 519.44502,285.13331 L 520.47251,282.31665 C 521.03763,280.76749 522.71011,277.7 524.18913,275.5 z M 93.6875,206.35417 C 92.147016,204.81368 93.040104,202 95.069551,202 C 96.625065,202 97.059732,202.5394 96.819551,204.17167 C 96.487695,206.42697 94.880347,207.54701 93.6875,206.35417 z M 186.39754,276.16578 C 186.68111,275.70696 186.00884,273.50385 184.90361,271.26998 C 183.32004,268.0693 181.25704,266.25721 175.1707,262.7208 C 170.9062,260.24296 164.79762,255.4939 161.53082,252.1166 C 155.61519,246.00089 155.61348,246 149.77198,246 C 144.16647,246 143.97471,246.08424 145.04171,248.07793 C 146.80208,251.36722 159.5592,264.41671 165.47977,268.98439 C 173.34282,275.05069 184.68097,278.94325 186.39754,276.16578 z "
     id="path2481" />
</svg>
