<?xml version="1.0" encoding="UTF-8" standalone="no"?>
<!-- Created with Inkscape (http://www.inkscape.org/) -->
<svg
   xmlns:dc="http://purl.org/dc/elements/1.1/"
   xmlns:cc="http://web.resource.org/cc/"
   xmlns:rdf="http://www.w3.org/1999/02/22-rdf-syntax-ns#"
   xmlns:svg="http://www.w3.org/2000/svg"
   xmlns="http://www.w3.org/2000/svg"
   xmlns:sodipodi="http://sodipodi.sourceforge.net/DTD/sodipodi-0.dtd"
   xmlns:inkscape="http://www.inkscape.org/namespaces/inkscape"
   id="svg2"
   sodipodi:version="0.32"
   inkscape:version="0.44.1"
   width="695"
   height="262"
   version="1.0"
   sodipodi:docbase="C:\Wiki Uploads\To Upload"
   sodipodi:docname="Gray_whale_size.svg">
  <metadata
     id="metadata7">
    <rdf:RDF>
      <cc:Work
         rdf:about="">
        <dc:format>image/svg+xml</dc:format>
        <dc:type
           rdf:resource="http://purl.org/dc/dcmitype/StillImage" />
      </cc:Work>
    </rdf:RDF>
  </metadata>
  <defs
     id="defs5" />
  <sodipodi:namedview
     inkscape:window-height="573"
     inkscape:window-width="853"
     inkscape:pageshadow="2"
     inkscape:pageopacity="0.0"
     guidetolerance="10.0"
     gridtolerance="10.0"
     objecttolerance="10.0"
     borderopacity="1.0"
     bordercolor="#666666"
     pagecolor="#ffffff"
     id="base"
     inkscape:zoom="1.105036"
     inkscape:cx="347.5"
     inkscape:cy="131"
     inkscape:window-x="22"
     inkscape:window-y="29"
     inkscape:current-layer="svg2" />
  <path
     style="fill:black"
     d="M 276.60806,197.47798 C 269.95368,195.65089 260.82951,191.04807 251.38143,184.75204 C 247.04665,181.86342 242.90374,179.12125 242.17498,178.65833 C 241.10979,177.9817 240.98933,178.74605 241.56069,182.55613 L 242.27142,187.29561 L 235.74937,186.77208 C 224.23969,185.84819 213.4037,177.91017 206.92146,165.65389 C 205.13135,162.26925 203.25231,159.22409 202.7458,158.88687 C 201.75585,158.22778 199.36545,158.02903 156,155.00024 C 120.31118,152.5076 75.797155,152.24788 68.408931,154.48918 C 62.074767,156.41071 51.560673,156.41085 45.928139,154.48946 C 43.492662,153.65867 39.25,151.28114 36.5,149.20607 C 32.653861,146.30388 31.429488,144.71507 31.194452,142.32132 C 31.0264,140.60978 30.0139,138.41757 28.944452,137.44973 C 27.601618,136.23448 27,134.37971 27,131.45502 C 27,128.01682 27.821263,126.11748 31.365035,121.36001 C 37.537825,113.07311 40.024451,111.04709 53,103.73255 C 77.236718,90.069908 100.08767,79.491133 126.79707,69.568433 C 137.85716,65.459543 139.95377,65 147.63998,65 C 156.34052,65 172.09022,62.306564 180.07941,59.45237 C 191.3091,55.440482 275.56443,41.283292 331.5,34.009587 C 359.79966,30.329578 394.04238,26.911656 411.5,26.024421 C 424.76229,25.350403 429.81919,24.687961 434.5,23.011481 C 444.71586,19.352564 450.42427,21.213831 462,31.978045 C 468.06535,37.618179 492.13115,51.224617 529.20163,69.972814 C 554.01015,82.519593 564.75827,88.653273 585.19672,101.92777 L 610.49019,118.35554 L 625.9951,116.65109 C 647.98718,114.23349 658.38066,114.39712 664.03811,117.25 C 666.49215,118.4875 668.5,120.10903 668.5,120.85341 C 668.5,121.68407 664.58882,123.48647 658.37396,125.51985 C 646.97647,129.24886 642.1497,131.52594 633.53117,137.23967 C 630.24831,139.41607 626.14922,141.42608 624.42208,141.70636 L 621.28182,142.21595 L 620.68063,150.73492 C 620.34998,155.42036 619.85031,159.48302 619.57027,159.76306 C 618.51216,160.82117 606.35637,157.70389 601.00329,155.00166 C 594.53701,151.73749 587.63514,144.69007 584.9419,138.60156 L 583.06202,134.35178 L 570.78101,135.73241 C 555.00536,137.50591 525.84195,136.90413 518.02096,134.64372 C 506.18746,131.22364 486.8959,129.76359 460.00457,130.25285 C 431.56189,130.77034 422.46236,131.97562 394.31972,138.95316 C 359.78527,147.51545 311.39289,156.018 282.82709,158.54245 L 275.15418,159.22053 L 277.97466,163.86026 C 279.52592,166.41212 281.76668,172.1 282.95411,176.5 C 284.14154,180.9 286.66065,187.32439 288.55214,190.77642 L 291.99121,197.05285 L 289.4305,198.02642 C 286.11542,199.28682 282.65722,199.1389 276.60806,197.47798 z M 287.8276,195.25 C 287.64112,194.8375 286.26625,192.17739 284.77234,189.33864 C 283.27843,186.49989 281.16809,180.97262 280.08269,177.05582 C 274.29229,156.16048 258.08019,141.65277 237.69462,139.12406 C 231.97602,138.4147 229.91049,136 235.02232,136 C 245.11356,136 259.5555,142.58827 268.0572,151.07019 C 274.4041,157.40233 271.76888,157.07097 294.5,154.39511 C 324.22582,150.89583 367.12005,143.04997 392.5,136.46975 C 422.16807,128.77775 442.24167,126.50177 473.43684,127.293 C 495.45113,127.85137 510.91684,129.57863 522.5,132.77255 C 530.18187,134.89074 556.37898,134.89247 573.5,132.77593 C 587.44758,131.0517 596.53621,131.69263 602.68215,134.83388 C 610.58784,138.87455 609.77852,141.48932 601.81253,137.6435 C 598.89064,136.23287 594.12894,134.7769 591.23098,134.40801 C 586.35638,133.7875 586.01406,133.87812 586.65792,135.61865 C 590.38646,145.69777 601.96431,154.62088 613.75,156.49866 L 618,157.1758 L 618,149.5879 C 618,143.04011 617.76012,141.99564 616.25,141.9682 C 614.13784,141.92981 610.39973,139.26693 611.256,138.41067 C 611.5915,138.07517 613.47271,138.33093 615.43646,138.97903 C 620.42008,140.62377 624.22576,139.56634 633.82085,133.87081 C 642.54016,128.69513 656.08719,122.72939 661.94177,121.48714 L 665.38354,120.75685 L 662.78207,119.3938 C 656.57671,116.14248 634.80353,117.40868 602,122.92851 C 592.90858,124.45832 585,124.25897 585,122.5 C 585,121.3373 586.31783,121 590.86043,121 C 597.80886,121 606.00158,119.97918 605.99614,119.11408 C 605.99402,118.77633 595.50661,111.68181 582.69079,103.34847 C 567.14629,93.240836 554.24783,85.730202 543.94465,80.787018 C 510.82441,64.896825 467.1486,40.432442 459.5,33.486546 C 448.57246,23.562957 445.3223,22.698543 433,26.438581 C 429.45796,27.513654 421.09215,28.422036 409.5,28.990274 C 399.6,29.475564 389.7,30.1207 387.5,30.423911 C 385.3,30.727121 376.75,31.678602 368.5,32.538313 C 308.0557,38.837055 196.68117,56.500248 180.22334,62.397627 C 172.76919,65.068693 160.88747,67.130158 148.5,67.901589 L 136.5,68.648891 L 115.5,76.998919 C 94.178552,85.476761 57.22277,103.4177 46.748544,110.37572 C 36.996239,116.85417 28.462194,128.22742 29.726254,133.0612 C 30.797512,137.15769 32.36341,137.08515 42.892753,132.45119 C 72.450382,119.44291 113.02764,109.04877 129.04191,110.3835 C 142.28162,111.48698 164,118.9886 164,122.45818 C 164,124.45872 163.79069,124.42907 158.21676,121.63897 C 146.45627,115.75213 131.00185,112.51768 119.58986,113.55476 C 105.67372,114.81941 78.748338,121.72317 59.5,128.96201 C 45.173541,134.34985 33,140.08752 33,141.45207 C 33,143.21467 37.926026,147.48211 43,150.11513 C 46.831674,152.10349 48.91091,152.43979 57,152.37951 C 62.225,152.34057 68.975,151.82211 72,151.22736 C 80.093979,149.636 115.16029,149.78195 144.14005,151.52761 C 170.31525,153.10433 202.729,155.57359 211.5,156.65905 L 216.5,157.27783 L 207.75,149.04872 C 202.9375,144.52271 199,140.4102 199,139.90981 C 199,137.62048 201.99321,139.78124 213.32383,150.25 C 240.9874,175.80936 257.46638,187.7029 273.45201,193.64693 C 279.2247,195.79342 288.54305,196.83254 287.8276,195.25 z M 164.33187,114.42246 C 163.54821,112.38027 166.38027,109.54821 168.42246,110.33187 C 170.42385,111.09988 170.42584,112.43131 168.42857,114.42857 C 166.43131,116.42584 165.09988,116.42385 164.33187,114.42246 z M 238.4753,180.75 C 237.53911,175.07006 237.68268,175.25852 228.20549,167.26852 C 220.39785,160.68608 219.55172,160.23806 213.79071,159.63591 C 210.42457,159.28408 207.48642,159.18025 207.26149,159.40518 C 206.61427,160.0524 209.93199,166.08345 213.64522,171.0097 C 217.86443,176.60724 225.48422,181.90154 231.74552,183.58596 C 239.21156,185.59448 239.26974,185.56996 238.4753,180.75 z M 643.30633,79.35589 C 642.95933,78.45163 643.38796,75.789255 644.25884,73.439501 C 646.11005,68.44469 645.92475,68.175076 637.34549,63.380583 C 634.40267,61.735997 629.93708,57.818258 626.9381,54.25 C 624.04902,50.8125 620.94605,48 620.04261,48 C 619.13918,48 617.9725,47.597409 617.45,47.105353 C 616.9275,46.613297 614.99787,45.893839 613.16194,45.506557 C 610.03171,44.846248 609.89179,44.929298 610.91465,46.840516 C 612.17293,49.191638 612.18073,49.18525 605.31002,51.427282 C 598.85404,53.533981 591.65362,53.219308 591.19696,50.810511 C 590.95222,49.51958 591.77585,49.017837 594.68833,48.683619 C 596.78475,48.443047 595.02954,48.400418 590.78787,48.588886 C 582.87563,48.940448 580.8306,48.11397 583.03635,45.456195 C 583.862,44.461349 586.25439,44 590.58765,44 C 596.255,44 597.30647,43.669816 600.46196,40.899257 C 602.40431,39.193849 603.77494,37.444862 603.5078,37.01262 C 603.24066,36.580378 601.44212,35.930322 599.51105,35.56805 C 596.82355,35.063873 596,34.418101 596,32.81493 C 596,28.153834 605.28234,25.885757 606.86366,30.160469 C 607.54767,32.009531 607.75471,32.0816 608.30005,30.660469 C 609.14237,28.465412 612.42208,28.564838 619.5,31 C 622.69721,32.1 626.14265,33 627.15655,33 C 629.66564,33 633.09062,36.600269 632.36943,38.479663 C 632.0381,39.343103 632.65232,40.762857 633.78527,41.752345 C 634.88585,42.713555 636.55808,45.604886 637.50134,48.177525 L 639.21636,52.855051 L 649.1187,53.557092 L 659.02104,54.259134 L 661.04871,58.843031 C 662.16394,61.364175 663.80644,64.233629 664.69873,65.219595 C 665.59102,66.205562 666.13633,67.1457 665.91054,67.308791 C 663.19537,69.269952 659.78533,71 658.63492,71 C 657.74091,71 656.75154,69.132768 656.01188,66.049528 C 655.3587,63.326769 654.30132,60.680053 653.66214,60.167938 C 653.02296,59.655822 649.6695,59.041018 646.21,58.801706 L 639.92,58.366594 L 645.21,61.660711 C 648.1195,63.472475 651.09282,64.964992 651.81739,64.977414 C 652.75748,64.993532 652.90068,65.644388 652.31739,67.25 C 651.86782,68.4875 651.56252,72.0875 651.63894,75.25 L 651.77788,81 L 647.85756,81 C 645.14259,81 643.74325,80.494495 643.30633,79.35589 z M 603.97104,47.03906 C 604.78011,46.527387 605.14671,45.813379 604.78571,45.452374 C 604.4247,45.091369 603.10011,45.516902 601.84216,46.398001 C 599.37685,48.124769 601.32614,48.711748 603.97104,47.03906 z "
     id="path1876" />
</svg>
