<?xml version="1.0" encoding="UTF-8" standalone="no"?>
<!-- Created with Inkscape (http://www.inkscape.org/) -->

<svg
   xmlns:dc="http://purl.org/dc/elements/1.1/"
   xmlns:cc="http://creativecommons.org/ns#"
   xmlns:rdf="http://www.w3.org/1999/02/22-rdf-syntax-ns#"
   xmlns:svg="http://www.w3.org/2000/svg"
   xmlns="http://www.w3.org/2000/svg"
   xmlns:sodipodi="http://sodipodi.sourceforge.net/DTD/sodipodi-0.dtd"
   xmlns:inkscape="http://www.inkscape.org/namespaces/inkscape"
   id="svg2"
   sodipodi:version="0.32"
   inkscape:version="0.91 r"
   width="1450.3407"
   height="525.7959"
   version="1.0"
   sodipodi:docname="Humpback_whale_size.svg">
  <metadata
     id="metadata7">
    <rdf:RDF>
      <cc:Work
         rdf:about="">
        <dc:format>image/svg+xml</dc:format>
        <dc:type
           rdf:resource="http://purl.org/dc/dcmitype/StillImage" />
        <dc:title></dc:title>
      </cc:Work>
    </rdf:RDF>
  </metadata>
  <defs
     id="defs5">
    <inkscape:perspective
       sodipodi:type="inkscape:persp3d"
       inkscape:vp_x="0 : 144 : 1"
       inkscape:vp_y="0 : 1000 : 0"
       inkscape:vp_z="775 : 144 : 1"
       inkscape:persp3d-origin="387.5 : 96 : 1"
       id="perspective3509" />
  </defs>
  <sodipodi:namedview
     inkscape:window-height="1028"
     inkscape:window-width="1920"
     inkscape:pageshadow="2"
     inkscape:pageopacity="0.0"
     guidetolerance="10.0"
     gridtolerance="10.0"
     objecttolerance="10.0"
     borderopacity="1.0"
     bordercolor="#666666"
     pagecolor="#ffffff"
     id="base"
     inkscape:zoom="0.35036"
     inkscape:cx="1129.637"
     inkscape:cy="1335.4577"
     inkscape:window-x="0"
     inkscape:window-y="0"
     inkscape:current-layer="svg2"
     showgrid="false"
     showguides="true"
     inkscape:guide-bbox="true"
     fit-margin-top="0"
     fit-margin-left="0"
     fit-margin-right="0"
     fit-margin-bottom="0"
     inkscape:window-maximized="1">
    <sodipodi:guide
       position="0.04975075,447.9687"
       orientation="1,0"
       id="guide3498" />
    <sodipodi:guide
       position="1449.987,1149.5392"
       orientation="1,0"
       id="guide3511" />
    <sodipodi:guide
       position="175.22671,851.98815"
       orientation="1,0"
       id="guide3513" />
  </sodipodi:namedview>
  <path
     style="fill:#000000"
     d="m 593.45718,519.57788 c -16.03377,-9.19523 -37.89088,-30.88606 -54.58824,-54.17299 -14.66512,-20.45264 -29.72824,-34.63271 -36.13445,-34.01616 -8.381,0.80659 -8.6454,0.27726 -8.03509,-16.08776 l 0.59424,-15.93459 -18.86799,-35.29925 c -16.42723,-30.73296 -38.28885,-67.7876 -46.86695,-79.43774 -2.09596,-2.8466 -7.43969,-4.18054 -22.98398,-5.73743 C 325.94577,270.81634 191.11823,240.00709 103.61123,209.66221 83.616945,202.72878 79.744563,202.08943 51.1813,201.006 17.866777,199.74232 11.509934,197.99678 4.1867682,188.10157 L 0,182.44431 4.6832076,167.90342 C 8.899487,154.8123 10.314667,152.76117 18.87725,147.33094 c 21.507398,-13.63958 67.556673,-27.56067 139.21998,-42.08739 24.87852,-5.04307 50.32246,-10.604468 56.54209,-12.358658 6.21963,-1.75419 21.48599,-3.703566 33.92523,-4.331948 20.35644,-1.028325 24.89072,-2.032021 45.36882,-10.042747 46.0794,-18.025595 101.27523,-32.012106 157.15464,-39.822684 63.55248,-8.883085 74.07484,-9.289641 227.13008,-8.775721 180.77299,0.606992 189.68063,-0.133342 240.62712,-19.9988809 26.29795,-10.25435001 38.75059,-12.30588 44.28641,-7.29603 4.77743,4.32353 5.17187,12.7499499 1.05771,22.5965409 -2.69098,6.440396 -2.64212,7.287644 0.51401,8.912046 6.43553,3.312257 23.88623,8.242401 44.60926,12.602911 11.3084,2.379511 27.6166,6.544669 36.2404,9.255904 8.6238,2.711236 23.8595,6.462285 33.857,8.335663 12.1914,2.284456 20.9083,5.246941 26.4699,8.995952 9.7122,6.546761 17.5498,9.738743 28.6791,11.679965 4.4276,0.772272 11.2646,3.585559 15.1935,6.251745 3.9288,2.666191 9.9616,4.847616 13.4061,4.847616 3.4446,0 8.173,1.792986 10.5075,3.984416 2.3346,2.19142 8.8709,5.19843 14.5251,6.68224 5.6542,1.48381 15.157,5.60988 21.1173,9.16904 5.9604,3.55916 17.5258,8.07199 25.701,10.0285 8.842,2.11609 16.9464,5.48891 20.0041,8.3251 2.8271,2.6223 9.7664,6.76842 15.4206,9.21359 6.9704,3.01436 14.5886,9.0964 23.6611,18.89014 l 13.3808,14.44437 15.4043,-5.70449 c 21.9399,-8.12479 55.6167,-9.52476 80.1124,-3.33033 19.4635,4.92191 32.3712,10.59699 30.9883,13.62456 -0.5165,1.13085 -4.2175,3.16298 -8.2243,4.51588 -9.8853,3.33776 -27.4067,22.25903 -25.6723,27.72349 0.7061,2.2248 0.2017,6.65758 -1.1209,9.85061 -1.9802,4.78063 -1.7764,7.0206 1.1546,12.68855 2.5796,4.98829 3.9444,14.52662 4.958,34.6504 1.2309,24.43727 2.0559,29.05284 6.8792,38.48587 6.811,13.32059 15.1942,22.98169 28.2717,32.58144 5.5625,4.08329 10.1137,8.27057 10.1137,9.30511 0,3.26921 -14.0409,2.04166 -27.3079,-2.3874 -14.1679,-4.72984 -32.7982,-14.56032 -52.4571,-27.6794 -13.9137,-9.28516 -53.4774,-53.34037 -68.2482,-75.99621 -14.8275,-22.74265 -11.2546,-21.00577 -48.342,-23.50065 -48.2447,-3.24546 -142.3449,-2.77546 -181.1185,0.90458 -86.08444,8.1704 -160.80651,23.47647 -231.3212,47.38381 -49.93912,16.93138 -129.45747,26.28459 -262.38927,30.86312 l -39.50151,1.36052 3.78346,7.47565 c 2.08092,4.11159 5.71403,15.15541 8.07358,24.54182 8.87269,35.29594 25.95519,66.62735 61.69406,113.15459 25.49841,33.19554 34.71892,54.61754 29.22135,67.88983 -3.23807,7.81745 -9.89651,10.58523 -25.4082,10.56177 -10.40215,-0.0172 -14.74664,-1.16222 -23.56219,-6.21786 z m 37.60349,-0.8542 c 6.68834,-2.79457 7.13022,-3.57231 7.13022,-12.54981 0,-11.91906 -10.08583,-31.94749 -27.75702,-55.11982 -38.35409,-50.294 -53.49256,-77.71619 -64.85626,-117.48208 -7.51895,-26.31172 -15.98381,-40.58494 -30.2249,-50.96439 -10.98351,-8.00519 -26.5338,-16.12083 -38.00281,-19.8335 -7.64815,-2.47582 -7.65653,-2.49116 -4.21505,-7.74349 3.34069,-5.09856 3.27582,-5.41111 -2.07915,-10.01725 -3.04008,-2.615 -11.13432,-6.79889 -17.9872,-9.29759 -7.92702,-2.89033 -11.74448,-5.25835 -10.49355,-6.5093 1.25094,-1.25092 4.84005,-1.03628 9.86583,0.59001 20.83233,6.74117 31.86163,16.34029 27.70301,24.11073 -1.78889,3.34258 -1.0235,4.25197 5.50807,6.54419 12.85109,4.51004 28.63933,14.33621 40.60234,25.26971 l 11.43102,10.4473 46.6547,-1.41941 c 125.89825,-3.83033 202.11689,-12.78525 255.34639,-30.0006 87.83417,-28.40712 161.61259,-42.53142 259.06559,-49.5962 32.1599,-2.33141 128.6634,-1.54995 168.5982,1.36527 l 15.4205,1.12569 -6.1682,-5.39879 c -3.3925,-2.96934 -11.0257,-8.20035 -16.9626,-11.62443 -10.7217,-6.18365 -13.1754,-11.53043 -3.6253,-7.89946 15.4537,5.87548 36.4938,25.75501 46.2889,43.73549 2.8271,5.18965 17.3364,23.71852 32.2429,41.17523 21.0732,24.6784 30.3993,33.91128 41.9208,41.50165 17.3267,11.41491 45.2244,25.12303 55.0435,27.04688 l 6.8708,1.34618 -11.6946,-11.06029 c -20.6859,-19.56388 -27.6733,-36.86872 -27.735,-68.68805 -0.049,-25.48831 -2.523,-33.46573 -11.5462,-37.23586 -7.4188,-3.09975 -7.7433,-8.14445 -0.3734,-5.80537 5.1308,1.62845 7.7201,-1.92097 7.7631,-10.64129 0.035,-7.12809 12.7531,-23.27035 23.4678,-29.78632 l 6.1211,-3.72248 -6.0404,-2.38814 c -20.4365,-8.07978 -50.2448,-11.68515 -69.7787,-8.43986 -15.2635,2.53582 -36.4289,10.30459 -34.8841,12.80418 0.6303,1.01992 9.5039,8.09561 19.719,15.72377 19.3727,14.46673 21.7818,20.68262 3.2226,8.31473 -16.2869,-10.85355 -34.1389,-26.7954 -46.5979,-41.61207 -6.1879,-7.35877 -12.4639,-13.37957 -13.9469,-13.37957 -4.3748,0 -21.7663,-9.47523 -26.009,-14.1703 -2.1543,-2.38391 -5.5264,-4.33438 -7.4937,-4.33438 -7.4263,0 -30.3975,-8.41256 -39.1323,-14.33114 -4.9959,-3.38514 -11.3965,-6.18277 -14.2236,-6.21697 -2.8271,-0.0342 -9.1669,-2.36412 -14.0884,-5.17761 -4.9215,-2.81348 -10.741,-5.11542 -12.9324,-5.11542 -4.5555,0 -19.3474,-7.125951 -21.2788,-10.250996 -0.7089,-1.147002 -4.2413,-2.094495 -7.8498,-2.105542 -7.1221,-0.0218 -26.678,-8.333753 -33.2899,-14.149381 -2.3561,-2.072344 -10.9703,-4.714574 -20.1719,-6.187275 -8.8329,-1.413694 -23.6366,-4.855572 -32.8972,-7.648618 -9.2606,-2.793046 -25.6272,-6.931141 -36.3702,-9.195768 -24.7603,-5.219471 -45.48707,-11.795265 -51.51852,-16.344794 -4.62083,-3.485489 -4.63836,-3.656939 -1.13069,-11.04881 1.95962,-4.129607 3.27325,-10.021165 2.91915,-13.092355 C 959.50199,2.6251911 953.6327,3.3970811 909.59287,18.94933 867.66346,33.756312 879.56904,32.915825 689.59279,34.480484 531.931,35.778998 514.97203,36.254084 481.92913,40.297911 401.95735,50.084957 339.96161,64.894 288.32094,86.545473 c -15.48154,6.490967 -19.52633,7.28671 -41.81246,8.225873 -13.57009,0.571858 -28.99059,2.424041 -34.26775,4.115962 -5.27716,1.691912 -24.70707,5.984822 -43.17758,9.539772 -41.07495,7.90557 -85.273719,18.40206 -108.629509,25.79776 -18.017682,5.70536 -43.931619,17.72642 -46.230063,21.44539 -1.609389,2.60404 -0.197424,2.61715 12.967847,0.1204 28.418646,-5.38949 70.485265,-10.21917 100.084675,-11.49077 43.26785,-1.85879 103.41381,1.97087 115.69093,7.36637 11.35846,4.99177 26.06306,20.31834 36.63119,38.18061 8.0657,13.63271 8.75488,14.2329 17.47665,15.22038 10.38494,1.1758 12.16444,4.8385 2.79591,5.75477 -10.81459,1.05769 -16.14566,-2.5474 -24.24385,-16.39468 -10.76601,-18.409 -22.50019,-31.46501 -32.73045,-36.41739 -16.04549,-7.76749 -96.73245,-11.21929 -148.19045,-6.33961 -28.095935,2.6643 -81.776723,11.68756 -84.251016,14.16186 -1.0274462,1.02745 -2.3359287,6.0188 -2.9077418,11.09193 -1.6378513,14.53097 2.9474998,16.49305 42.5246828,18.19645 30.203634,1.29994 33.277212,1.82983 55.615345,9.58757 90.0775,31.28286 216.6571,60.07443 304.11282,69.17302 l 13.17815,1.37099 -3.68388,-5.79337 c -2.02611,-3.18636 -5.70874,-8.56908 -8.18361,-11.96161 -6.79221,-9.31069 -7.52396,-10.92269 -5.52033,-12.16099 2.14392,-1.32502 30.9066,39.65445 49.49483,70.5175 23.69839,39.3477 47.58141,85.36107 46.54846,89.68094 -0.54081,2.26168 -1.62125,8.12477 -2.40099,13.02906 -1.26478,7.95524 -0.99821,8.87213 2.47178,8.50156 2.13922,-0.22845 5.10142,-0.30882 6.58265,-0.17875 5.00421,0.43991 25.46518,21.73147 34.80528,36.21809 12.94128,20.07213 37.63384,43.92862 53.86124,52.03753 14.39998,7.19576 23.25302,8.12485 34.12697,3.58142 z M 401.7422,235.23872 c 0,-7.82182 21.69766,-16.93486 24.1065,-10.12476 0.60207,1.70218 -1.26341,2.5701 -5.52394,2.5701 -4.12047,0 -8.28084,1.84781 -11.57323,5.1402 -5.85651,5.85651 -7.00933,6.25362 -7.00933,2.41446 z M 292.64014,189.48996 c -2.22906,-2.68584 -2.18416,-3.56067 0.26224,-5.1087 5.84179,-3.69653 12.93917,-0.0701 10.79559,5.51597 -1.46586,3.8199 -7.74142,3.58877 -11.05783,-0.40727 z M 56.615995,178.56377 c -1.944648,-1.23219 -2.100343,-2.19358 -0.514018,-3.17398 2.607973,-1.61181 6.387739,0.20468 6.387739,3.06982 0,2.39069 -2.203432,2.42978 -5.873721,0.10424 z m 14.098024,-6.39375 c 0,-1.13084 2.313085,-2.05607 5.14019,-2.05607 2.827103,0 5.140188,0.92523 5.140188,2.05607 0,1.13085 -2.313085,2.05607 -5.140188,2.05607 -2.827105,0 -5.14019,-0.92522 -5.14019,-2.05607 z m -28.332937,-4.47947 c 0.49093,-1.49423 3.927462,-3.01411 7.636744,-3.37751 4.869825,-0.47709 6.496071,0.0943 5.85154,2.05607 -0.490928,1.49424 -3.927462,3.01413 -7.636742,3.37752 -4.869824,0.47709 -6.49607,-0.0944 -5.851542,-2.05608 z M 93.33085,164.1657 c 0,-2.31111 5.348099,-4.4669 6.99524,-2.81975 2.47504,2.47503 1.12459,4.65585 -2.883087,4.65585 -2.261685,0 -4.112153,-0.82625 -4.112153,-1.8361 z M 62.993445,144.92702 c 1.006095,-3.05499 9.776649,-4.76398 9.776649,-1.90504 0,1.99403 -4.747958,4.47513 -8.563803,4.47513 -1.132589,0 -1.678371,-1.15654 -1.212846,-2.57009 z m 29.168917,-3.82539 c -1.640227,-2.65394 -0.636664,-3.65176 4.379605,-4.35458 2.191838,-0.30709 4.161253,0.36688 4.376483,1.49772 0.5501,2.89025 -7.177268,5.41146 -8.756088,2.85686 z M 170.919,140.1008 c -2.43659,-2.43658 0.59172,-4.94014 5.97559,-4.94014 3.23285,0 4.87099,0.96924 4.34379,2.5701 -0.94795,2.87841 -8.15563,4.53379 -10.31938,2.37004 z m -52.46763,-7.31387 c 0.50665,-1.52155 2.57023,-3.08613 4.58572,-3.47684 2.34397,-0.45438 3.33259,0.28656 2.74336,2.05608 -0.50666,1.52155 -2.57024,3.08613 -4.58573,3.47683 -2.34396,0.45439 -3.33259,-0.28656 -2.74335,-2.05607 z m 27.25387,0.22779 c -1.31901,-2.13421 6.17413,-6.47068 8.00951,-4.6353 2.35196,2.35197 1.35972,4.22952 -2.81173,5.32038 -2.26057,0.59115 -4.59956,0.28286 -5.19778,-0.68508 z m 27.81256,-5.85838 c 0,-2.41458 6.01258,-4.67102 8.44338,-3.16869 1.04724,0.64722 1.37177,2.03808 0.72114,3.09078 -1.51185,2.44623 -9.16452,2.51128 -9.16452,0.0779 z"
     id="path1958"
     inkscape:connector-curvature="0"
     sodipodi:nodetypes="sssscsssssscsssssssssssssssssssssssssscsssssssssssssssssscsssssssssssssssssssscsssscssssssscsssssscssssssssssssssssssssssssssssssssssssssssssssscssssssscssssssssssssssssssssssssssssssssssssssssssssssssssssscs" />
  <g
     id="g3137"
     transform="matrix(-0.64657235,0.27091016,0.27091016,0.64657235,1438.6949,-29.891344)">
    <path
       sodipodi:nodetypes="csssssscsssssssccsssssssscc"
       inkscape:connector-curvature="0"
       id="path2997-0"
       d="m 244.43581,71.02153 c 0,0 -4.64211,-0.16992 -6.96429,-0.17857 -1.63716,-0.006 -3.27598,0.17875 -4.91071,0.0893 -1.16847,-0.0639 -2.43173,0.0694 -3.48214,-0.44643 -0.86896,-0.42669 -1.30119,-1.44442 -2.05358,-2.05357 -3.14381,-2.54528 -6.24422,-4.61024 -9.8629,-6.41775 -3.48719,-1.74183 -8.3959,-2.6753 -12.05542,-4.01785 -5.74593,-2.10798 -16.47453,-6.52869 -16.47453,-6.52869 0,0 1.31457,-2.23205 1.07143,-3.39286 -0.25944,-1.23861 -0.57478,-2.05345 -1.74239,-2.54147 -2.2833,-0.95434 -5.6946,0.061 -8.16833,0.13076 -7.88382,0.22236 -15.78904,0.40162 -23.66071,-0.0893 -5.17655,-0.32284 -9.51563,-0.924 -14.62568,-1.81187 -3.42532,-0.59514 -7.77665,-0.96612 -11.24803,-1.70125 -2.83659,-0.60071 -5.61267,-1.65454 -8.43367,-1.99009 -2.18717,-0.26016 -6.22834,-0.65751 -6.22834,-0.65751 -2.11313,1.03895 -2.748,2.61544 -1.16071,5 0,0 4.4445,1.6133 6.74839,1.86022 6.17638,0.66194 10.28783,1.51417 15.46797,2.2097 6.57198,0.88241 11.10959,1.68069 17.61453,2.96732 3.66527,0.72496 8.58055,1.31857 12.0587,2.68322 3.1208,1.22444 7.01671,3.16137 10.06996,4.54569 3.75983,1.70467 7.52052,2.7226 11.26951,4.45098 5.16791,2.38254 9.99031,5.45605 14.89975,8.33376 3.74906,2.19754 7.50228,4.39843 11.11168,6.81853 1.91351,1.28301 5.58094,4.07701 5.58094,4.07701 l 5.35714,5"
       style="fill:#000000;stroke:#ffffff;stroke-width:0.60000002;stroke-linecap:butt;stroke-linejoin:miter;stroke-miterlimit:4;stroke-dasharray:none;stroke-opacity:1" />
    <path
       sodipodi:nodetypes="cssssssssssssssssssscscssssccccsccsssssssssccccccccsssccccssssssssssscssssssssssscc"
       inkscape:connector-curvature="0"
       id="path3000-9"
       d="m 110.50724,160.57509 c 0,0 12.24832,0.11058 18.21428,-1.07142 5.18873,-1.02801 10.2888,-2.77352 15,-5.17858 4.98597,-2.54533 9.40617,-6.1116 13.75,-9.64285 5.13013,-4.17047 9.4895,-9.21683 14.46429,-13.57143 5.02953,-4.40251 10.06401,-8.83946 15.53571,-12.67857 6.64344,-4.66124 10.2835,-7.03039 17.32143,-11.07143 5.24443,-3.01125 13.85822,-7.60949 19.55358,-9.64286 3.70536,-1.3229 7.79343,-1.41033 11.51785,-2.67857 2.46963,-0.84096 4.59503,-2.47924 6.96429,-3.57143 5.26018,-2.42485 10.70224,-4.43427 16.07142,-6.60714 7.00831,-2.83622 14.00912,-5.69389 21.07143,-8.39286 4.2041,-1.60666 8.31809,-3.52841 12.67857,-4.64286 5.42375,-1.3862 11.09514,-1.52208 16.60715,-2.5 2.63217,-0.46699 5.29491,-0.84467 7.85714,-1.60714 5.58316,-1.66145 11.0895,-3.72648 16.25,-6.42857 5.51375,-2.88706 10.87453,-6.23283 15.53571,-10.35714 3.35082,-2.96487 6.49038,-6.31689 8.75,-10.17857 2.11117,-3.60798 2.08557,-8.23131 4.28572,-11.78572 0.86424,-1.3962 2.19886,-2.44419 3.39286,-3.57143 0.73707,-0.69586 2.32142,-1.96428 2.32142,-1.96428 0,0 2.73925,0.70349 4.46429,0.89286 1.49685,0.16431 4.28571,0.35714 4.28571,0.35714 0,0 1.79948,3.89388 3.57143,4.82143 1.68836,0.8838 3.93317,0.85626 5.71429,0.17857 1.45606,-0.554 2.80389,-1.77202 3.39286,-3.21429 0.60801,-1.48888 0.54481,-3.38506 -0.17858,-4.82143 -0.51431,-1.02122 -2.67857,-2.14285 -2.67857,-2.14285 l -3.03571,-0.89286 1.60715,-3.03572 1.38392,0 c 0,0 0.54174,0.16406 0.71428,0 0.35455,-0.33712 0.0739,-1.46586 0.0739,-1.46586 l -1.81498,-3.53414 c 0,0 -0.12704,-2.26151 -0.17857,-3.39285 -0.0705,-1.54716 0.37004,-3.19452 -0.17857,-4.64286 C 384.49327,1.74824 383.64566,1.28518 383.1858,0.57508997 382.10056,-1.10069 381.69426,-3.17677 380.50723,-4.78205 c -1.02632,-1.38795 -2.36551,-2.54045 -3.75,-3.57143 -1.5396,-1.14649 -3.22761,-2.11996 -5,-2.85714 -1.65336,-0.68767 -3.38814,-1.39964 -5.17857,-1.42857 -1.77554,-0.0287 -3.50576,0.65415 -5.17858,1.25 -1.55495,0.55387 -3.1621,1.12849 -4.46428,2.14286 -1.46701,1.14277 -3.57143,4.28571 -3.57143,4.28571 l -2.5,-3.57143 -4.64286,-1.78571 -3.03571,0.53571 -2.32143,-3.21428 -2.67857,0 -1.60714,1.25 -1.42858,2.14285 c 0,0 -2.25003,-1.71698 -3.57142,-2.14285 -2.04662,-0.65961 -4.29019,-0.76156 -6.42858,-0.53572 -2.65915,0.28084 -5.11909,1.54747 -7.67857,2.32143 -21.84562,6.60588 -65.53571,19.82143 -65.53571,19.82143 0.40069,8.09633 1.92063,16.31775 7.67857,24.82143 l 33.57143,-10.53572 0.17857,13.21429 c 0,0 -5.84656,0.20578 -8.75,0.53571 -2.15852,0.24528 -4.38208,0.34256 -6.42857,1.07143 -2.2604,0.80505 -4.40606,2.03605 -6.25,3.57143 -2.69416,2.24332 -5.28669,6.00529 -7.76786,8.48214 -4.5146,4.50674 -9.11861,7.74604 -14.19642,11.60714 -3.10161,2.35842 -6.58376,4.13298 -9.73215,6.42858 -2.43398,1.7747 -4.05234,4.25153 -6.51786,5.98214 -5.11904,3.59319 -10.78956,6.25177 -17.5,8.57143 -3.51011,1.21338 -6.27002,2.21243 -9.46428,4.10714 -4.32621,2.56614 -8.75117,6.21314 -12.58929,9.46429 -2.64057,2.23674 -5.43948,4.71784 -8.21429,6.78571 -2.03895,1.51948 -7.94643,6.07143 -7.94643,6.07143 0,0 -2.58378,-2.4941 -4.82142,-2.14286 -1.32145,0.20743 -2.72177,0.57301 -3.75,1.42857 -2.46403,2.05025 -2.92132,5.23624 -4.10714,8.21429 -0.63056,1.58358 -1.29404,3.43281 -1.96429,5 -1.41525,3.30917 -4.01039,5.97804 -6.07143,8.92857 -1.92973,2.76256 -3.77584,5.5925 -5.89286,8.21429 -1.61492,1.99997 -3.31378,3.94499 -5.17857,5.71428 -1.50391,1.42689 -2.97698,2.98212 -4.82143,3.92857 -2.63359,1.35138 -5.68064,1.68472 -8.57143,2.32143 -2.41783,0.53254 -4.88603,0.80457 -7.32142,1.25 -2.44593,0.44736 -4.94658,0.69185 -7.32143,1.42857 -1.85878,0.57663 -5.35715,2.32143 -5.35715,2.32143 z"
       style="display:inline;fill:#000000;stroke:#ffffff;stroke-width:0.60000002;stroke-linecap:butt;stroke-linejoin:miter;stroke-miterlimit:4;stroke-dasharray:none;stroke-opacity:1" />
    <path
       sodipodi:nodetypes="cc"
       inkscape:connector-curvature="0"
       id="path3776"
       d="m 251.93581,9.81616 c 5.23924,8.28869 7.72055,16.57739 7.72321,24.86608"
       style="fill:none;stroke:#ffffff;stroke-width:0.60000002;stroke-linecap:butt;stroke-linejoin:miter;stroke-miterlimit:4;stroke-dasharray:none;stroke-opacity:1" />
  </g>
</svg>
