<?xml version="1.0" encoding="UTF-8" standalone="no"?>
<!-- Created with Inkscape (http://www.inkscape.org/) -->
<svg
   xmlns:dc="http://purl.org/dc/elements/1.1/"
   xmlns:cc="http://creativecommons.org/ns#"
   xmlns:rdf="http://www.w3.org/1999/02/22-rdf-syntax-ns#"
   xmlns:svg="http://www.w3.org/2000/svg"
   xmlns="http://www.w3.org/2000/svg"
   xmlns:xlink="http://www.w3.org/1999/xlink"
   xmlns:sodipodi="http://sodipodi.sourceforge.net/DTD/sodipodi-0.dtd"
   xmlns:inkscape="http://www.inkscape.org/namespaces/inkscape"
   id="svg2395"
   sodipodi:version="0.32"
   inkscape:version="0.46"
   width="546"
   height="280"
   version="1.0"
   sodipodi:docbase="C:\Documents and Settings\Christopher\Desktop\Old Desktop\Stuff\Cetacean Size\SVG"
   sodipodi:docname="Orca_size.svg"
   inkscape:output_extension="org.inkscape.output.svg.inkscape">
  <metadata
     id="metadata2400">
    <rdf:RDF>
      <cc:Work
         rdf:about="">
        <dc:format>image/svg+xml</dc:format>
        <dc:type
           rdf:resource="http://purl.org/dc/dcmitype/StillImage" />
      </cc:Work>
    </rdf:RDF>
  </metadata>
  <defs
     id="defs2398">
    <linearGradient
       id="linearGradient3278">
      <stop
         id="stop3280"
         offset="0"
         style="stop-color:#ffffff;stop-opacity:1;" />
      <stop
         id="stop3282"
         offset="1"
         style="stop-color:#000000;stop-opacity:0;" />
    </linearGradient>
    <linearGradient
       id="linearGradient3252">
      <stop
         id="stop3254"
         offset="0"
         style="stop-color:#000000;stop-opacity:1;" />
      <stop
         style="stop-color:#000000;stop-opacity:1;"
         offset="0.09274673"
         id="stop3258" />
      <stop
         id="stop3260"
         offset="0.80186421"
         style="stop-color:#ffffff;stop-opacity:1;" />
      <stop
         id="stop3256"
         offset="1"
         style="stop-color:#ffffff;stop-opacity:1;" />
    </linearGradient>
    <linearGradient
       id="linearGradient3240">
      <stop
         style="stop-color:#707070;stop-opacity:1;"
         offset="0"
         id="stop3242" />
      <stop
         style="stop-color:#000000;stop-opacity:1;"
         offset="1"
         id="stop3244" />
    </linearGradient>
    <inkscape:perspective
       sodipodi:type="inkscape:persp3d"
       inkscape:vp_x="0 : 140 : 1"
       inkscape:vp_y="0 : 1000 : 0"
       inkscape:vp_z="546 : 140 : 1"
       inkscape:persp3d-origin="273 : 93.333333 : 1"
       id="perspective2455" />
    <radialGradient
       inkscape:collect="always"
       xlink:href="#linearGradient3240"
       id="radialGradient3246"
       cx="99.682281"
       cy="183.01044"
       fx="99.682281"
       fy="183.01044"
       r="2.7444992"
       gradientUnits="userSpaceOnUse" />
    <radialGradient
       inkscape:collect="always"
       xlink:href="#linearGradient3252"
       id="radialGradient3250"
       gradientUnits="userSpaceOnUse"
       cx="99.682281"
       cy="183.01044"
       fx="99.682281"
       fy="183.01044"
       r="2.7444992" />
    <linearGradient
       inkscape:collect="always"
       xlink:href="#linearGradient3278"
       id="linearGradient3276"
       x1="475.93625"
       y1="82.602531"
       x2="486.18875"
       y2="82.602531"
       gradientUnits="userSpaceOnUse" />
    <radialGradient
       inkscape:collect="always"
       xlink:href="#linearGradient3252"
       id="radialGradient3286"
       gradientUnits="userSpaceOnUse"
       cx="99.682281"
       cy="183.01044"
       fx="99.682281"
       fy="183.01044"
       r="2.7444992" />
    <radialGradient
       inkscape:collect="always"
       xlink:href="#linearGradient3252"
       id="radialGradient3290"
       gradientUnits="userSpaceOnUse"
       cx="99.682281"
       cy="183.01044"
       fx="99.682281"
       fy="183.01044"
       r="2.7444992" />
  </defs>
  <sodipodi:namedview
     inkscape:window-height="984"
     inkscape:window-width="1680"
     inkscape:pageshadow="2"
     inkscape:pageopacity="0.0"
     guidetolerance="10.0"
     gridtolerance="10.0"
     objecttolerance="10.0"
     borderopacity="1.0"
     bordercolor="#666666"
     pagecolor="#ffffff"
     id="base"
     inkscape:zoom="1.2069597"
     inkscape:cx="479.93452"
     inkscape:cy="23.177013"
     inkscape:window-x="-5"
     inkscape:window-y="-5"
     inkscape:current-layer="svg2395"
     showgrid="false" />
  <g
     id="g3320">
    <path
       sodipodi:nodetypes="cssssssssssssssssssssssssssscccsssssssscccsscccc"
       id="path2404"
       d="M 482.57143,133.42857 C 480.75982,131.61696 480.64283,129.26134 482.05931,123.11726 C 483.30229,117.72574 482.30429,116.38652 473.28459,111.34241 C 469.83765,109.41477 466.09008,106.63665 464.95665,105.16881 C 459.40803,97.983082 452.56348,88.949498 451.06893,88.949498 C 450.15102,88.949498 448.9725,88.546907 448.45,88.054851 C 447.9275,87.562795 445.96994,86.837202 444.09987,86.442421 C 441.43482,85.879819 440.81955,88.069689 441.25393,89.13757 C 441.55874,89.886907 442.09324,91.206186 442.44171,92.069302 C 443.38313,94.401069 433.73459,98.83241 426.90467,99.20509 C 421.6318,99.492808 421.49209,99.430913 421.17557,96.666969 C 420.87248,94.020353 421.06988,93.849809 424.17557,94.07512 C 428.75065,94.407034 435.00437,91.21898 434.98469,88.564788 C 434.97613,87.410527 434.64539,86.956181 434.23469,87.534474 C 431.75556,91.025201 427.48819,93 422.42416,93 C 419.50579,93 416.83992,93.45 416.5,94 C 415.48914,95.635604 412.14376,95.137129 411.10496,93.196118 C 409.58007,90.346833 411.04277,89.351871 417.76402,88.66649 C 425.1027,87.918149 427.7981,86.399515 430.41069,81.541156 C 432.58519,77.497456 432.26596,76.900078 427.16815,75.47349 C 424.20413,74.644026 423.43798,73.910887 423.17689,71.654193 C 422.95473,69.733981 423.54931,68.258179 425.0799,66.930703 C 428.20518,64.220164 431.47154,64.503538 433.79006,67.686354 C 435.73004,70.349521 435.75292,70.353837 436.44085,68.186354 C 437.26611,65.586187 440.23164,65.344684 445.72976,67.429895 C 447.80339,68.216337 452.07672,69.575773 455.22604,70.450864 C 461.05211,72.069735 463.46637,74.417936 462.78439,77.802407 C 462.59626,78.736083 463.43602,80.295163 464.65054,81.26703 C 465.86506,82.238896 468.30716,86.176396 470.07742,90.01703 L 473.29608,97 L 482.89804,97.015313 C 488.17912,97.023735 493.00348,97.361235 493.61885,97.765313 C 494.23422,98.169391 495.8968,100.79835 497.31346,103.60744 C 498.73013,106.41654 501.03914,110.0815 502.44461,111.7518 C 505.38639,115.24791 505.57732,116 503.52305,116 C 502.71073,116 501.30898,117.125 500.40804,118.5 C 499.50711,119.875 498.18608,121 497.47241,121 C 496.75875,121 494.94599,117.7375 493.44405,113.75 C 491.94212,109.7625 490.27268,105.9375 489.73419,105.25 C 489.11106,104.45444 486.16385,104.00778 481.62756,104.0214 L 474.5,104.0428 L 481.4137,108.5214 C 485.21624,110.98463 488.64553,113 489.03435,113 C 489.42316,113 489.70237,115.8125 489.65479,119.25 C 489.60722,122.6875 489.9516,127.6375 490.42007,130.25 L 491.27185,135 L 487.70735,135 C 485.74688,135 483.43571,134.29286 482.57143,133.42857 z"
       style="fill:#000000" />
    <path
       sodipodi:nodetypes="cccccccccccccccccccccccccccccccccccccccccccccccccc"
       id="path2457"
       d="M 495.53925,250.54885 C 478.53054,246.21624 466.76442,228.57851 449.29918,227.84063 C 410.17837,225.03935 374.14657,206.33206 334.75477,205.12058 C 291.6121,201.32945 248.87649,210.49069 205.79064,210.77418 C 194.82437,212.39563 184.08809,212.00396 173.36779,209.28165 C 148.48355,204.62958 123.20595,201.46602 99.478125,192.12171 C 80.632394,184.8782 58.040428,184.12415 42.446804,170.39529 C 29.284577,151.70085 57.079944,132.12909 72.573571,125.35813 C 107.53187,113.78329 144.71438,110.46935 181.22166,107.33412 C 201.17242,105.106 227.00818,110.12389 240.1661,91.204961 C 252.42421,66.762431 260.38945,38.45387 281.4115,19.688194 C 297.3888,17.014932 280.96889,45.0005 283.04167,54.786041 C 283.99596,73.512996 274.43348,99.309895 290.16389,113.18425 C 314.66819,124.34944 341.98893,128.49513 366.3277,140.4275 C 399.27764,155.87634 432.92806,174.709 454.80573,204.63579 C 465.03467,201.799 485.44916,199.19621 489.66904,207.8728 C 469.51218,218.47463 494.39589,239.3904 503.6473,249.27474 C 509.89806,253.87302 496.59269,251.27068 495.53925,250.54885 z M 494.60224,245.02456 C 491.33637,235.95852 457.72252,221.35334 457.77721,215.76845 C 461.28366,208.67674 486.86657,211.62052 471.54898,214.70894 C 461.63904,213.51796 467.29985,231.08422 484.78851,237.66513 C 486.28843,248.14131 438.98606,218.39311 433.93813,209.42115 C 414.39227,208.7544 413.29634,203.79415 396.05257,196.89656 C 363.5359,186.81286 311.85315,187.47092 283.97587,163.99195 C 263.95351,153.362 256.91082,155.47571 258.59865,136.53259 C 256.15605,126.58806 262.02171,130.1945 260.51471,134.91073 C 257.67879,140.90947 285.99619,158.23393 283.18313,157.84195 C 275.93127,159.77897 295.77307,157.62017 288.9972,161.19845 C 303.6655,148.91628 296.62955,204.43595 289.78079,186.5937 C 281.75478,182.06346 226.75961,165.77766 216.70379,157.31334 C 185.07366,147.37018 153.13836,162.25893 121.81581,166.21082 C 96.782268,166.75154 88.650874,165.76541 64.458732,163.60859 C 53.995475,167.39003 34.313631,169.73979 53.470952,163.05332 C 59.793135,160.86857 90.565954,164.54779 69.029386,165.19382 C 64.422054,166.16474 94.094424,159.84909 107.52599,164.798 C 126.67842,161.20153 109.33399,140.16014 123.09005,147.48766 C 130.58552,143.45123 130.48731,162.12387 128.81526,163.88649 C 155.47203,144.46792 192.04933,139.63022 223.62867,148.50198 C 244.56555,154.6282 304.08273,164.69247 320.88008,176.41025 C 334.10113,186.29341 319.05565,174.01173 336.59432,175.95936 C 360.64272,176.64522 379.74384,191.47525 403.17106,199.08789 C 421.14669,202.89401 442.2384,207.83346 451.54304,225.54651 C 450.64611,223.21261 430.74152,205.19665 443.4595,213.36449 C 489.83923,218.90188 491.10859,240.30472 498.24552,248.9904 L 497.30837,247.82544 L 494.60225,245.02455 L 494.60224,245.02456 z M 84.261952,158.35092 C 84.728505,149.92146 94.720569,162.03469 84.261952,158.35092 z"
       style="fill:#000000;fill-opacity:1" />
    <path
       sodipodi:nodetypes="csssssssssssssscccssssssssssc"
       id="path2461"
       d="M 44.380887,172.35994 C 43.135249,169.37423 46.774671,168.84969 55.170872,167.47713 C 58.638328,166.91029 82.274571,164.85872 83.023781,164.91724 C 85.86211,165.13896 89.685194,166.38105 93.951931,167.80757 C 101.8375,170.44399 105.92631,172.78747 112.64365,176.59563 C 119.36098,180.40379 121.69744,182.74727 125.4942,184.79782 C 127.94097,186.11928 137.78659,189.87387 145.88567,193.16079 C 150.35422,194.97429 154.29109,196.64542 156.16029,197.68699 C 161.41733,200.61634 171.93142,201.78808 176.60435,204.13156 C 181.27728,206.47504 188.87079,206.18211 191.79137,206.18211 C 194.71195,206.18211 236.18418,203.83862 245.8221,202.37395 C 255.46001,200.90927 274.15172,198.56579 289.33875,199.4446 C 304.52576,200.32341 336.65214,199.15166 349.21063,201.49514 C 361.76914,203.83862 386.59406,209.4044 391.55905,209.99027 C 396.52404,210.57615 441.96649,224.34409 444.88707,224.34409 C 447.80765,224.34409 450.1073,221.22228 450.1073,221.22228 L 451.64355,221.87929 L 460.40276,230.3597 C 460.40276,230.3597 420.55834,224.58679 414.63163,222.58649 C 408.71418,220.58932 388.93053,215.84898 379.00055,213.5055 C 369.07058,211.16202 350.08681,207.06092 342.20125,206.76798 C 334.31568,206.47504 298.97666,204.4245 287.87845,205.88918 C 276.78025,207.35385 256.62825,209.69734 251.3712,209.69734 C 246.11416,209.69734 189.74696,212.91963 187.70256,212.91963 C 185.65814,212.91963 139.51299,205.88918 135.71623,204.71743 C 131.91947,203.54569 127.24654,201.78808 119.9451,199.15166 C 112.64365,196.51524 78.704255,187.81441 73.799927,186.40896 C 68.688912,184.94429 53.355866,179.96439 48.390879,176.59563 C 45.819378,174.85085 45.25706,173.82463 44.380887,172.35994 z"
       style="fill:#ffffff;fill-opacity:1;fill-rule:evenodd;stroke:#000000;stroke-width:0.99852353000000005px;stroke-linecap:butt;stroke-linejoin:round;stroke-opacity:1" />
    <path
       id="path2459"
       d="M 124.18713,184.29804 C 127.40935,188.10612 129.75278,193.9647 131.51036,198.65156 C 133.26793,203.33842 134.73257,205.97478 138.24772,212.41922 C 141.76287,218.86366 147.62145,226.77274 154.65174,232.33839 C 161.68203,237.90404 171.05576,243.46969 175.74262,245.81312 C 180.42948,248.15655 186.87392,250.20705 189.21735,248.74241 C 191.56078,247.27776 195.36886,243.17676 195.36886,240.5404 C 195.36886,237.90404 192.7325,224.13638 190.97493,218.2778 C 189.21735,212.41922 179.5507,198.0657 177.20727,194.84349 C 174.86384,191.62127 160.51032,182.8334 158.45982,181.95461 C 156.40931,181.07583 152.30831,179.31825 152.30831,179.31825"
       style="fill:#000000;fill-opacity:1;fill-rule:evenodd;stroke:#000000;stroke-width:1px;stroke-linecap:butt;stroke-linejoin:round;stroke-opacity:1" />
    <path
       sodipodi:nodetypes="cssssscc"
       id="path3234"
       d="M 268.4431,204.18968 C 262.64341,198.80425 256.78482,196.31866 259.68467,184.305 C 262.58452,172.29135 291.22762,165.66312 304.48407,167.73444 C 317.74052,169.80576 355.85281,173.94841 359.99545,179.33384 C 364.13809,184.71928 356.26707,187.20486 350.46737,187.20486 C 344.66768,187.20486 330.99697,188.86191 327.68286,190.10471 C 324.36874,191.3475 330.16844,204.18968 330.16844,204.18968 L 268.4431,204.18968 z"
       style="fill:#ffffff;fill-rule:evenodd;stroke:none;stroke-width:1px;stroke-linecap:butt;stroke-linejoin:miter;stroke-opacity:1;fill-opacity:1" />
    <path
       transform="matrix(0.8821429,-0.1150684,0,0.7530698,-28.133827,61.467908)"
       d="M 170.48462,146.42442 A 20.505024,11.131299 0 1 1 129.47458,146.42442 A 20.505024,11.131299 0 1 1 170.48462,146.42442 z"
       sodipodi:ry="11.131299"
       sodipodi:rx="20.505024"
       sodipodi:cy="146.42442"
       sodipodi:cx="149.9796"
       id="path3236"
       style="opacity:1;fill:#ffffff;fill-opacity:1;stroke:none;stroke-width:1;stroke-miterlimit:4;stroke-dasharray:none;stroke-dashoffset:0;stroke-opacity:1"
       sodipodi:type="arc" />
    <path
       transform="matrix(0.706484,0,0,0.6197633,13.674266,49.757529)"
       d="M 102.42678,183.01044 A 2.7444992,2.7444992 0 1 1 96.937782,183.01044 A 2.7444992,2.7444992 0 1 1 102.42678,183.01044 z"
       sodipodi:ry="2.7444992"
       sodipodi:rx="2.7444992"
       sodipodi:cy="183.01044"
       sodipodi:cx="99.682281"
       id="path3238"
       style="opacity:1;fill:url(#radialGradient3246);fill-opacity:1;stroke:none;stroke-width:1;stroke-miterlimit:4;stroke-dasharray:none;stroke-dashoffset:0;stroke-opacity:1"
       sodipodi:type="arc" />
    <path
       transform="matrix(0.226185,0,0,0.2295204,61.688732,121.23574)"
       d="M 102.42678,183.01044 A 2.7444992,2.7444992 0 1 1 96.937782,183.01044 A 2.7444992,2.7444992 0 1 1 102.42678,183.01044 z"
       sodipodi:ry="2.7444992"
       sodipodi:rx="2.7444992"
       sodipodi:cy="183.01044"
       sodipodi:cx="99.682281"
       id="path3248"
       style="opacity:1;fill:url(#radialGradient3250);fill-opacity:1.0;stroke:none;stroke-width:1;stroke-miterlimit:4;stroke-dasharray:none;stroke-dashoffset:0;stroke-opacity:1"
       sodipodi:type="arc" />
    <path
       sodipodi:nodetypes="csscssssssssscc"
       id="path3262"
       d="M 490.11117,112.89777 C 490.43133,115.48692 490.36307,119.36912 490.31085,120.50835 C 490.25862,121.64757 489.78232,124.85812 490.10722,127.3437 C 490.43212,129.82929 491.90821,135.64675 491.90821,135.64675 C 491.90821,135.64675 486.98461,135.62898 485.76828,135.83612 C 484.55196,136.04325 481.88038,134.48976 481.36031,133.86836 C 480.84024,133.24697 480.3149,130.34712 480.46735,129.41502 C 480.61978,128.48293 481.6494,125.16882 481.67789,124.54742 C 481.70637,123.92603 482.35464,121.75114 482.39737,120.81904 C 482.4401,119.88695 482.17241,118.54059 481.97197,118.12633 C 481.77154,117.71206 483.11684,117.09067 484.13749,116.36571 C 485.15812,115.64074 485.97588,114.55482 486.12833,113.62273 C 486.28076,112.69063 486.27798,111.85502 486.01335,111.34428 C 485.37484,110.11189 484.95897,110.41218 484.95897,110.41218 L 490.11117,112.89777 z"
       style="fill:#eeef2b;fill-opacity:1;fill-rule:evenodd;stroke:none;stroke-width:1px;stroke-linecap:butt;stroke-linejoin:miter;stroke-opacity:1" />
    <path
       transform="matrix(0.3177852,-0.5526555,0.4634401,0.4363665,235.55425,302.37508)"
       d="M 486.18876,82.602531 A 5.126256,2.892673 0 1 1 475.93624,82.602531 A 5.126256,2.892673 0 1 1 486.18876,82.602531 z"
       sodipodi:ry="2.892673"
       sodipodi:rx="5.126256"
       sodipodi:cy="82.602531"
       sodipodi:cx="481.0625"
       id="path3266"
       style="opacity:1;fill:#000000;fill-opacity:1;stroke:#f1e933;stroke-width:1;stroke-miterlimit:4;stroke-dasharray:none;stroke-dashoffset:0;stroke-opacity:1"
       sodipodi:type="arc" />
    <path
       transform="matrix(0.1705157,-2.466405e-2,2.7458017e-2,0.1898319,404.09566,41.096003)"
       d="M 102.42678,183.01044 A 2.7444992,2.7444992 0 1 1 96.937782,183.01044 A 2.7444992,2.7444992 0 1 1 102.42678,183.01044 z"
       sodipodi:ry="2.7444992"
       sodipodi:rx="2.7444992"
       sodipodi:cy="183.01044"
       sodipodi:cx="99.682281"
       id="path3284"
       style="opacity:1;fill:url(#radialGradient3286);fill-opacity:1;stroke:none;stroke-width:1;stroke-miterlimit:4;stroke-dasharray:none;stroke-dashoffset:0;stroke-opacity:1"
       sodipodi:type="arc" />
    <path
       transform="matrix(0.1705157,-2.466405e-2,2.7458017e-2,0.1898319,405.11282,39.048881)"
       d="M 102.42678,183.01044 A 2.7444992,2.7444992 0 1 1 96.937782,183.01044 A 2.7444992,2.7444992 0 1 1 102.42678,183.01044 z"
       sodipodi:ry="2.7444992"
       sodipodi:rx="2.7444992"
       sodipodi:cy="183.01044"
       sodipodi:cx="99.682281"
       id="path3288"
       style="opacity:1;fill:url(#radialGradient3290);fill-opacity:1;stroke:none;stroke-width:1;stroke-miterlimit:4;stroke-dasharray:none;stroke-dashoffset:0;stroke-opacity:1"
       sodipodi:type="arc" />
    <path
       transform="matrix(0.2586318,-0.5302376,0.4706799,0.3362041,263.33529,299.83889)"
       d="M 486.18876,82.602531 A 5.126256,2.892673 0 1 1 475.93624,82.602531 A 5.126256,2.892673 0 1 1 486.18876,82.602531 z"
       sodipodi:ry="2.892673"
       sodipodi:rx="5.126256"
       sodipodi:cy="82.602531"
       sodipodi:cx="481.0625"
       id="path3268"
       style="opacity:1;fill:url(#linearGradient3276);fill-opacity:1;stroke:none;stroke-width:1;stroke-miterlimit:4;stroke-dasharray:none;stroke-dashoffset:0;stroke-opacity:1"
       sodipodi:type="arc" />
    <path
       sodipodi:open="true"
       sodipodi:end="5.6373"
       sodipodi:start="0"
       transform="matrix(-2.446094,-0.9732234,2.4445921,-0.9703687,1424.8066,619.25818)"
       d="M 486.63687,82.602531 A 5.5743709,2.9786384 0 1 1 485.51401,80.809672"
       sodipodi:ry="2.9786384"
       sodipodi:rx="5.5743709"
       sodipodi:cy="82.602531"
       sodipodi:cx="481.0625"
       id="path3292"
       style="opacity:1;fill:#e2df2c;fill-opacity:1;stroke:none;stroke-width:1;stroke-miterlimit:4;stroke-dasharray:none;stroke-dashoffset:0;stroke-opacity:1"
       sodipodi:type="arc" />
    <path
       transform="matrix(-0.8204411,-1.3993505,1.8244515,-0.8213614,651.99993,742.59376)"
       d="M 435.13259,73.230461 A 1.4240327,1.2427921 0 1 1 432.28452,73.230461 A 1.4240327,1.2427921 0 1 1 435.13259,73.230461 z"
       sodipodi:ry="1.2427921"
       sodipodi:rx="1.4240327"
       sodipodi:cy="73.230461"
       sodipodi:cx="433.70856"
       id="path3298"
       style="opacity:1;fill:#363636;fill-opacity:1;stroke:none;stroke-width:1;stroke-miterlimit:4;stroke-dasharray:none;stroke-dashoffset:0;stroke-opacity:1"
       sodipodi:type="arc" />
    <path
       transform="matrix(-0.6194651,-0.6857246,1.2375063,-0.4935715,609.2671,407.91876)"
       d="M 435.13259,73.230461 A 1.4240327,1.2427921 0 1 1 432.28452,73.230461 A 1.4240327,1.2427921 0 1 1 435.13259,73.230461 z"
       sodipodi:ry="1.2427921"
       sodipodi:rx="1.4240327"
       sodipodi:cy="73.230461"
       sodipodi:cx="433.70856"
       id="path3294"
       style="opacity:1;fill:#dbdbdb;fill-opacity:1;stroke:none;stroke-width:1;stroke-miterlimit:4;stroke-dasharray:none;stroke-dashoffset:0;stroke-opacity:1"
       sodipodi:type="arc" />
    <path
       transform="matrix(-0.4124106,-0.574146,0.9170959,-0.3370002,542.87787,348.03452)"
       d="M 435.13259,73.230461 A 1.4240327,1.2427921 0 1 1 432.28452,73.230461 A 1.4240327,1.2427921 0 1 1 435.13259,73.230461 z"
       sodipodi:ry="1.2427921"
       sodipodi:rx="1.4240327"
       sodipodi:cy="73.230461"
       sodipodi:cx="433.70856"
       id="path3296"
       style="opacity:1;fill:#777777;fill-opacity:1;stroke:none;stroke-width:1;stroke-miterlimit:4;stroke-dasharray:none;stroke-dashoffset:0;stroke-opacity:1"
       sodipodi:type="arc" />
    <path
       sodipodi:nodetypes="csssc"
       id="path3302"
       d="M 489.93509,99.909381 C 489.93509,99.909381 477.95768,100.36655 474.67479,100.14165 C 472.3644,99.983371 468.56366,97.091019 467.24548,94.894062 C 465.9273,92.697092 464.60109,90.775194 463.70646,88.278028 C 462.88925,85.996989 460.77718,83.884094 460.77718,83.884094"
       style="fill:none;fill-rule:evenodd;stroke:#fffb0e;stroke-width:1px;stroke-linecap:butt;stroke-linejoin:miter;stroke-opacity:1" />
    <path
       id="path3306"
       d="M 435.73176,69.969971 C 435.73176,69.969971 438.51458,68.65179 439.97922,68.65179 C 441.44387,68.65179 449.35295,71.288151 450.3782,71.58108 C 451.40345,71.874008 461.21657,77.732587 461.5095,78.318444 C 461.80243,78.904302 461.5095,80.515411 459.459,80.954805 C 457.4085,81.394198 442.46912,76.8538 440.71155,75.682084 C 438.95397,74.510369 435.1459,71.874008 435.1459,71.874008 L 435.73176,69.969971 z"
       style="fill:#000000;fill-rule:evenodd;stroke:#000000;stroke-width:1px;stroke-linecap:butt;stroke-linejoin:miter;stroke-opacity:1;fill-opacity:1" />
    <path
       sodipodi:nodetypes="csssc"
       id="path3308"
       d="M 460.72172,83.901866 C 461.04363,82.936137 448.86467,71.800986 441.22417,72.166949 C 438.91102,72.277744 436.65927,78.519347 437.41609,81.980068 C 438.61267,87.451656 441.22417,91.207318 436.09791,93.990143 C 433.56241,95.366559 426.87066,96.333576 426.87066,96.333576"
       style="fill:none;fill-rule:evenodd;stroke:#fffb0e;stroke-width:1px;stroke-linecap:butt;stroke-linejoin:miter;stroke-opacity:1" />
    <path
       sodipodi:nodetypes="cccsc"
       id="path3304"
       d="M 452.97319,90.208719 L 453.48719,90.804124 L 456.75309,87.777966 C 456.75309,87.777966 460.35403,84.427053 461.07011,83.298236 C 461.62489,82.4237 463.43131,79.413247 463.43131,79.413247"
       style="fill:none;fill-rule:evenodd;stroke:#979797;stroke-width:1px;stroke-linecap:butt;stroke-linejoin:miter;stroke-opacity:1" />
    <path
       id="path3310"
       d="M 431.92368,72.89926 C 433.24186,70.995222 434.56004,69.823506 435.73176,69.677042 C 436.90347,69.530577 440.71155,69.823506 441.44387,69.237648 C 442.17619,68.65179 444.22669,68.065933 442.76205,66.894217 C 441.29741,65.722501 441.00448,64.404321 438.80751,64.69725 C 436.61054,64.990179 434.99943,67.773004 434.99943,67.773004"
       style="fill:none;fill-rule:evenodd;stroke:#383838;stroke-width:1px;stroke-linecap:butt;stroke-linejoin:miter;stroke-opacity:1" />
    <path
       id="path3312"
       d="M 483.79346,123.48137 L 483.20977,128.50388 L 483.16488,128.35617"
       style="fill:none;fill-rule:evenodd;stroke:#000000;stroke-width:0.15727226;stroke-linecap:butt;stroke-linejoin:miter;stroke-miterlimit:4;stroke-dasharray:none;stroke-opacity:1" />
    <path
       id="path3314"
       d="M 485.91182,123.16173 L 485.98319,127.79525 L 485.93947,127.66316"
       style="fill:none;fill-rule:evenodd;stroke:#000000;stroke-width:0.12377772;stroke-linecap:butt;stroke-linejoin:miter;stroke-miterlimit:4;stroke-dasharray:none;stroke-opacity:1" />
    <path
       sodipodi:nodetypes="csscssssssssscc"
       id="path3264"
       d="M 493.30094,97.069036 C 494.97775,99.09007 497.01743,102.39511 497.58812,103.38108 C 498.15879,104.36707 499.4822,107.31062 501.10714,109.24201 C 502.73208,111.17343 506.74252,115.91228 506.74252,115.91228 C 506.74252,115.91228 502.88369,117.78676 501.94295,118.57058 C 501.00223,119.35439 497.99664,122.16665 497.21059,121.90364 C 496.42454,121.64062 494.25572,116.67777 493.88375,115.8161 C 493.51178,114.95444 492.61126,111.64645 492.29998,111.10864 C 491.9887,110.57084 491.374,108.41371 490.90708,107.60699 C 490.44016,106.80028 489.67077,105.68998 489.27334,105.44137 C 488.87591,105.19274 489.51417,104.10535 490.00561,102.98328 C 490.49702,101.8612 490.17833,100.90281 489.80637,100.04114 C 489.4344,99.179468 488.90701,98.110683 488.40187,97.812934 C 487.183,97.094475 487.93743,96.969939 487.93743,96.969939 L 493.30094,97.069036 z"
       style="fill:#eeef2b;fill-opacity:1;fill-rule:evenodd;stroke:none;stroke-width:1px;stroke-linecap:butt;stroke-linejoin:miter;stroke-opacity:1" />
    <path
       id="path3316"
       d="M 493.44999,107.34013 L 495.79288,111.82088 L 495.67267,111.72402"
       style="fill:none;fill-rule:evenodd;stroke:#000000;stroke-width:0.15727226;stroke-linecap:butt;stroke-linejoin:miter;stroke-miterlimit:4;stroke-dasharray:none;stroke-opacity:1" />
    <path
       id="path3318"
       d="M 495.02154,105.88416 L 497.68718,109.6748 L 497.57673,109.59019"
       style="fill:none;fill-rule:evenodd;stroke:#000000;stroke-width:0.12377772;stroke-linecap:butt;stroke-linejoin:miter;stroke-miterlimit:4;stroke-dasharray:none;stroke-opacity:1" />
  </g>
</svg>
