<?xml version="1.0" encoding="UTF-8" standalone="no"?>
<!-- Created with Inkscape (http://www.inkscape.org/) -->
<svg
   xmlns:dc="http://purl.org/dc/elements/1.1/"
   xmlns:cc="http://web.resource.org/cc/"
   xmlns:rdf="http://www.w3.org/1999/02/22-rdf-syntax-ns#"
   xmlns:svg="http://www.w3.org/2000/svg"
   xmlns="http://www.w3.org/2000/svg"
   xmlns:sodipodi="http://sodipodi.sourceforge.net/DTD/sodipodi-0.dtd"
   xmlns:inkscape="http://www.inkscape.org/namespaces/inkscape"
   id="svg2"
   sodipodi:version="0.32"
   inkscape:version="0.44.1"
   width="683"
   height="254"
   version="1.0"
   sodipodi:docbase="C:\Wiki Uploads\To Upload"
   sodipodi:docname="Pygmy_right_whale_size.svg">
  <metadata
     id="metadata7">
    <rdf:RDF>
      <cc:Work
         rdf:about="">
        <dc:format>image/svg+xml</dc:format>
        <dc:type
           rdf:resource="http://purl.org/dc/dcmitype/StillImage" />
      </cc:Work>
    </rdf:RDF>
  </metadata>
  <defs
     id="defs5" />
  <sodipodi:namedview
     inkscape:window-height="573"
     inkscape:window-width="853"
     inkscape:pageshadow="2"
     inkscape:pageopacity="0.0"
     guidetolerance="10.0"
     gridtolerance="10.0"
     objecttolerance="10.0"
     borderopacity="1.0"
     bordercolor="#666666"
     pagecolor="#ffffff"
     id="base"
     inkscape:zoom="1.124451"
     inkscape:cx="341.5"
     inkscape:cy="127"
     inkscape:window-x="110"
     inkscape:window-y="145"
     inkscape:current-layer="svg2" />
  <path
     style="fill:black"
     d="M 525.5,186.39982 C 515.83467,178.78424 512.86437,175.82394 504.78036,165.75 L 497.75878,157 L 492.62939,156.98019 C 480.14949,156.932 465.96192,153.7463 441.5,145.49952 C 405.66331,133.41799 370.68653,126.87535 326,123.89447 C 306.95693,122.62417 242.33304,123.26696 240.85866,124.74134 C 240.39327,125.20673 242.25969,127.80089 245.00625,130.50616 C 247.75281,133.21142 250,135.77923 250,136.21241 C 250,137.47497 239.07493,137.08823 232,135.57521 C 222.37421,133.51667 214.66787,130.3429 207.30224,125.4037 L 200.73517,121 L 182.11758,120.98168 C 147.01498,120.94714 118.5403,114.90843 77.738799,98.845751 C 55.039255,89.909429 50.5768,85.274922 56.087028,76.359186 C 58.79722,71.974002 63.46894,69.317476 80.508609,62.472099 C 112.33062,49.688183 149.06936,41.221566 195.5,35.971781 C 210.18821,34.311025 223.01011,33.702396 252,33.28984 C 292.35621,32.715529 320.94712,34.023652 358,38.139669 C 378.49979,40.416887 404.20207,40.34043 413.70352,37.973967 C 417.93972,36.918885 419.19453,36.916553 420.45352,37.961425 C 423.03304,40.102234 422.2083,42.596381 418,45.381302 C 413.66921,48.247281 413.23928,49.647251 415.41468,53.79966 C 417.42704,57.640848 422.16905,61.869078 432.5,69.03385 C 437.45,72.466798 446,78.978423 451.5,83.504127 C 463.01713,92.981063 489.15305,119.56515 496.5,129.27576 C 500.53079,134.60334 502.17845,136.00887 505,136.52667 C 518.5553,139.01427 540,147.51407 540,150.39923 C 540,151.05292 536.18063,152.83159 531.51252,154.35183 L 523.02504,157.11589 L 525.65662,162.30795 C 530.98654,172.82378 536.00823,192.08266 533.38768,191.95765 C 532.89946,191.93436 529.35,189.43334 525.5,186.39982 z M 531.56276,185.25 C 530.51854,179.31536 526.97942,169.01834 523.79465,162.64881 C 522.18557,159.43065 521.15501,156.50565 521.50452,156.14881 C 521.85403,155.79196 525.59599,154.3317 529.81999,152.90378 L 537.5,150.30756 L 531.5,147.27127 C 524.55937,143.75899 510.0773,139 506.32969,139 L 503.76262,139 L 506.20217,142.25 C 509.67473,146.87621 510.25024,148 509.14679,148 C 508.61261,148 506.03552,144.9625 503.41992,141.25 C 486.60981,117.39027 453.18039,84.338267 432.55166,71.181832 C 424.1881,65.847781 415.24709,58.040467 413.65162,54.678272 C 411.02552,49.144169 411.50835,47.305331 416.51404,43.776999 C 420.19147,41.184903 420.73587,40.431688 419.45143,39.712883 C 418.48452,39.17177 415.86872,39.34672 412.6874,40.165277 C 404.84035,42.18433 368.64906,41.946512 353.5,39.776348 C 327.18359,36.006416 299.01506,34.743591 254,35.315659 C 211.60002,35.854494 203.99881,36.373099 171,40.978476 C 148.62783,44.100778 114.60383,52.294108 95,59.280058 C 74.238074,66.678703 61.290101,72.781182 58.755354,76.362438 L 56.534645,79.5 L 60.670149,76.242934 C 66.334751,71.781571 76.370662,67.237284 83.536981,65.888773 C 91.445658,64.40057 106.59092,65.401408 116,68.034012 C 121.42512,69.551927 126.12819,71.894537 133,76.501751 C 143.26297,83.38257 151.66867,87.489666 162.87485,91.098857 C 166.79368,92.361002 170,93.755092 170,94.196833 C 170,95.467319 168.37055,95.173857 160.205,92.432775 C 150.55181,89.192305 136.59799,82.014402 128.81833,76.287347 C 121.64775,71.008664 111.97277,68.15132 98.5,67.333327 C 83.608998,66.429227 69.709774,70.887425 60.070675,79.659593 L 55.5,83.819186 L 58.323219,86.790736 C 61.371,89.998646 62.220585,90.41255 81,97.838482 C 101.51215,105.94959 115.04194,110.13966 134.5,114.40702 C 151.97685,118.23988 181.72608,120.88938 192.36311,119.56037 L 198.01449,118.85428 L 194.36597,114.40174 C 189.63096,108.62328 190.68713,107.54012 195.67226,113.06207 C 206.29827,124.83234 223.47853,133.12498 241.75,135.30306 C 244.0875,135.5817 246,135.55569 246,135.24526 C 246,134.93482 243.6375,132.05781 240.75,128.8519 C 237.8625,125.64599 233.55235,120.79813 231.17189,118.07887 C 226.84928,113.14106 220.6868,110 215.32186,110 C 214.04484,110 213,109.55 213,109 C 213,107.51866 218.018,107.7868 223.17411,109.54366 C 227.72739,111.09512 232.8786,115.19772 236.53311,120.18324 L 238.5,122.86649 L 255.5,121.9811 C 328.24488,118.1924 388.40129,125.43339 446.34925,144.95351 C 456.16634,148.26045 468.90168,151.87375 474.65002,152.98307 C 484.76071,154.93423 496,155.66332 496,154.36803 C 496,154.02045 495.04867,152.19678 493.88593,150.31543 C 492.7232,148.43409 492.00879,146.65788 492.29836,146.3683 C 492.58794,146.07873 495.45177,149.79065 498.66243,154.61702 C 505.15016,164.36957 517.58831,178.04179 526,184.6669 C 529.025,187.04941 531.66258,188.99903 531.86129,188.99937 C 532.06,188.99972 531.92566,187.3125 531.56276,185.25 z M 168.13112,86.657991 C 166.73088,84.970798 167.65695,84 170.66667,84 C 172.33333,84 173,84.571429 173,86 C 173,88.325048 169.86614,88.748565 168.13112,86.657991 z M 615,152.27111 C 611.30616,150.865 611.48228,146.54568 615.63582,136.67731 C 617.01028,133.41173 617.81943,130.00644 617.47716,128.92805 C 616.70409,126.49232 610.10527,121.93781 600.07732,116.91866 C 594.91424,114.33445 590.81866,111.3925 588.0137,108.25309 C 581.12609,100.5442 575.72529,94.349547 572.14142,90.047764 C 569.40336,86.761225 568.33356,86.129162 566.35112,86.626722 C 564.76789,87.024088 563.2654,86.645171 562.04503,85.540754 C 561.01413,84.607796 556.93611,83.012462 552.98277,81.995568 L 545.79488,80.14667 L 546.44523,82.823335 C 546.80292,84.295501 547.3447,86.476756 547.64918,87.670569 C 548.15275,89.644956 547.35758,90.110615 538.85139,92.822627 C 531.70637,95.100661 527.1406,95.886208 519.5,96.152057 L 509.5,96.5 L 509.17948,93.153927 L 508.85895,89.807854 L 514.67948,90.134445 C 518.76623,90.363754 522.95596,89.722158 528.745,87.980518 L 536.99,85.5 L 536.995,81.661106 L 537,77.822213 L 534.0156,80.333421 C 528.5987,84.891443 521.00966,87 510.0215,87 C 504.49788,87 499.84471,87.442254 499.5,88 C 498.64073,89.390334 493.6537,89.253703 492.2,87.8 C 490.48556,86.085563 490.71756,82.322361 492.58179,81.606989 C 493.45177,81.273145 499.03946,81 504.99888,81 C 516.49475,81 523.71169,79.058888 527,75.082449 C 534.95001,65.468778 535.48267,63.027287 529.64301,62.968197 C 527.91436,62.950705 525.62649,62.275705 524.55887,61.468197 C 523.49125,60.660688 521.57875,60 520.30887,60 C 518.69256,60 518,59.419614 518,58.0651 C 518,54.896458 519.8491,51 521.3528,51 C 522.12407,51 523.31531,50.325 524,49.5 C 525.92907,47.175617 534.50548,47.505479 537,50 C 538.1,51.1 539,52.648442 539,53.440983 C 539,56.255085 541.05589,56.087033 543.5987,53.065075 C 546.87818,49.167625 549.15427,49.162762 560.56241,53.028827 C 565.47809,54.694681 572.33031,56.717336 575.78958,57.523615 C 587.13508,60.168 591.64227,64.062867 589.0222,68.958519 C 587.96173,70.940019 588.2508,71.522821 591.8016,74.562173 C 593.98123,76.427855 596.51201,79.877099 597.42555,82.227161 C 598.33909,84.577222 600.23387,89.252038 601.63618,92.615641 L 604.18583,98.731281 L 622.34292,99.42022 C 632.32931,99.799137 641.23811,100.32425 642.14025,100.58713 C 643.05284,100.85307 644.79185,103.82333 646.06024,107.28255 C 648.47704,113.87382 650.54356,117.36726 655.32168,122.93904 L 658.27085,126.37807 L 654.56163,127.66224 C 652.52156,128.36853 649.50109,130.08346 647.84948,131.4732 C 646.19787,132.86294 644.44145,134 643.94633,134 C 642.24793,134 640.06333,129.44229 637.46651,120.4812 C 636.03671,115.54724 634.20468,110.77866 633.39533,109.88434 C 632.22809,108.59456 629.19175,108.15497 618.7119,107.75855 C 611.44535,107.48367 604.15,106.72224 602.5,106.06648 C 600.85,105.41071 599.95,105.30178 600.5,105.82441 C 602.57,107.79138 625.44541,121.07369 627.7662,121.65617 C 630.4691,122.33455 630.45609,124.11414 627.69422,131.5 C 626.3991,134.96345 626.37931,136.50603 627.54663,143 C 628.28812,147.125 628.91846,151.0625 628.94739,151.75 C 629.00184,153.04382 618.09993,153.45114 615,152.27111 z "
     id="path1895" />
</svg>
