<?xml version="1.0" encoding="UTF-8" standalone="no"?>
<!-- Created with Inkscape (http://www.inkscape.org/) -->
<svg
   xmlns:dc="http://purl.org/dc/elements/1.1/"
   xmlns:cc="http://web.resource.org/cc/"
   xmlns:rdf="http://www.w3.org/1999/02/22-rdf-syntax-ns#"
   xmlns:svg="http://www.w3.org/2000/svg"
   xmlns="http://www.w3.org/2000/svg"
   xmlns:sodipodi="http://sodipodi.sourceforge.net/DTD/sodipodi-0.dtd"
   xmlns:inkscape="http://www.inkscape.org/namespaces/inkscape"
   id="svg2"
   sodipodi:version="0.32"
   inkscape:version="0.44.1"
   width="686"
   height="296"
   version="1.0"
   sodipodi:docbase="C:\Wiki Uploads\To Upload"
   sodipodi:docname="Right_whale_size.svg">
  <metadata
     id="metadata7">
    <rdf:RDF>
      <cc:Work
         rdf:about="">
        <dc:format>image/svg+xml</dc:format>
        <dc:type
           rdf:resource="http://purl.org/dc/dcmitype/StillImage" />
      </cc:Work>
    </rdf:RDF>
  </metadata>
  <defs
     id="defs5" />
  <sodipodi:namedview
     inkscape:window-height="573"
     inkscape:window-width="853"
     inkscape:pageshadow="2"
     inkscape:pageopacity="0.0"
     guidetolerance="10.0"
     gridtolerance="10.0"
     objecttolerance="10.0"
     borderopacity="1.0"
     bordercolor="#666666"
     pagecolor="#ffffff"
     id="base"
     inkscape:zoom="1.1195335"
     inkscape:cx="343"
     inkscape:cy="148"
     inkscape:window-x="66"
     inkscape:window-y="87"
     inkscape:current-layer="svg2" />
  <path
     style="fill:black"
     d="M 249.5,244.83574 C 243.89058,241.74092 227.10491,222.53944 217.96919,208.76699 L 211.63756,199.22182 L 200.56878,197.55199 C 148.22728,189.65578 101.64719,171.10713 60.006052,141.57853 L 51.512103,135.5553 L 44.720291,135.86906 C 38.677164,136.14824 37.551205,135.89507 34.505983,133.57236 C 32.391131,131.95928 30.687595,129.5364 30.04732,127.23095 C 28.394627,121.28006 28.775314,112.12134 30.864716,107.56572 C 31.89031,105.32958 33.526267,101.25 34.500177,98.5 C 37.207181,90.856315 45.022503,83.691147 53.513244,81.068624 C 61.584212,78.575756 76,78.129288 76,80.372192 C 76,82.612289 83.546825,83.343038 86.525465,81.391358 C 88.12142,80.345648 90.070893,79.964179 91.924462,80.334892 C 93.887008,80.727402 95.240188,80.415517 96.107188,79.370846 C 96.973717,78.326742 98.540413,77.96517 100.94441,78.25448 C 103.04288,78.507022 105.41891,78.087686 106.74228,77.231239 C 107.97553,76.433111 109.63996,76.031597 110.441,76.338986 C 111.24204,76.646374 113.25395,76.221156 114.91191,75.394056 C 117.34088,74.18233 118.36477,74.124853 120.18337,75.098139 C 124.5907,77.456869 186.00001,74.527379 196.5,71.457505 C 199.25,70.65349 212.75,66.200193 226.5,61.56129 C 278.4396,44.038178 318.86362,34.358189 369.5,27.318322 C 379.83729,25.881151 388.95196,25.517195 414,25.541399 C 446.12778,25.572445 453.26611,26.184076 471.5,30.468151 C 474.8,31.24349 481.325,32.608408 486,33.501304 C 506.3467,37.387393 533.11749,49.022589 550.98588,61.745646 C 556.20312,65.460541 565.83172,73.758476 572.38279,80.185501 C 583.03894,90.639887 584.83144,91.996651 589.39691,93.063631 C 598.51476,95.194536 610.19218,99.124047 619.24361,103.1072 C 628.41082,107.14131 643.57328,115.50053 644.52936,117.0475 C 644.82893,117.53221 642.91987,119.02527 640.28701,120.36541 C 635.02421,123.04421 631.92787,125.96361 629.62085,130.42205 C 628.23186,133.10636 628.26511,133.56357 630.02951,136.04145 C 631.08588,137.52498 632.43645,140.01776 633.03078,141.58095 C 633.6251,143.14414 638.14132,151.68766 643.06682,160.56655 C 647.99232,169.44544 653.14226,179.4663 654.51114,182.83513 C 657.35787,189.84099 657.77557,195.76516 655.48477,196.64422 C 649.22297,199.0471 598.35474,153.52492 572.07446,122 C 566.34322,115.125 560.71937,109.11621 559.57701,108.64713 C 556.56357,107.40974 521.81185,108.70176 513,110.37879 C 503.71567,112.14574 488.4699,117.24156 480.5,121.24175 C 477.2,122.89806 467.45718,128.44771 458.84928,133.57432 C 414.79997,159.80877 373.67478,178.57115 335.5,189.84947 C 320.43175,194.30121 300.89303,198.54545 290.6237,199.59757 L 284.25052,200.25052 L 283.58154,206.87526 C 282.82968,214.32075 279.82461,221.48831 276.76933,223.12345 C 275.64962,223.7227 273.10595,223.95602 271.11674,223.64194 L 267.5,223.07088 L 265.16216,230.74092 C 263.40054,236.52052 261.88908,239.34621 259.02981,242.20548 C 255.10626,246.12903 252.93187,246.72917 249.5,244.83574 z M 258.91331,239.64027 C 261.92501,234.76723 263.81246,228.98239 266.62653,216 C 270.32517,198.93678 270.42197,197.70228 268.40235,193.35198 C 265.88792,187.93585 255.82154,178.47583 245.68175,172 C 237.70255,166.90404 235.59525,165 237.93447,165 C 240.00647,165 257.09487,177.31226 262.43623,182.65362 C 268.02621,188.2436 272,194.39579 272,197.46016 C 272,199.46035 275.67549,199.45374 290.21562,197.42736 C 341.03692,190.34468 393.69909,169.72391 458.27272,131.62173 C 480.17531,118.69794 484.84893,116.42361 498.4706,112.0602 C 511.71251,107.81844 518.9644,106.7822 540.17923,106.10035 L 558.85845,105.5 L 553.79912,98.71344 C 551.01649,94.980833 549.02333,91.643333 549.36989,91.296774 C 549.71645,90.950215 550.1493,90.854167 550.33178,91.083333 C 550.51427,91.3125 553.51763,95.325 557.00593,100 C 575.87564,125.28909 607.0894,158.24141 630.58926,177.68182 C 651.54687,195.01913 655.78571,197.23294 654.65385,190.25 C 653.93568,185.81925 646.07658,169.34416 638.58961,156.57439 C 635.66342,151.58348 631.98753,144.86527 630.42097,141.64504 C 628.85441,138.42481 625.87189,134.33426 623.79313,132.55492 C 619.69862,129.05017 619.75342,126.95319 623.86905,129.64986 C 625.88347,130.96975 626.48792,131.03623 626.84109,129.97674 C 627.67835,127.46494 635.052,120.2211 638.02512,118.98959 C 639.66131,118.31186 641,117.40528 641,116.97495 C 641,116.54463 634.5875,113.02837 626.75,109.16104 C 614.00403,102.87168 599.69186,97.534404 590.12489,95.502843 C 586.24324,94.678567 586.23216,94.641966 592.32692,102.77651 C 594.50129,105.67859 595.94306,108.37859 595.53085,108.77651 C 595.11864,109.17443 594.04307,108.39646 593.14069,107.04768 C 585.1986,95.176719 566.39294,75.68711 553.78885,66.264642 C 531.50071,49.602638 512.62982,41.449226 480.31098,34.517579 C 456.16833,29.339534 445.93029,28.020554 424.5,27.327374 C 366.99503,25.467332 300.98622,38.242605 212.5,68.357623 C 189.84014,76.069584 184.24818,76.872677 147.5,77.692642 C 127.3373,78.142534 122.16902,78.539557 120.78945,79.744523 C 119.76405,80.640141 117.87682,81.062152 116.07781,80.798113 C 114.06389,80.502532 112.89366,80.834736 112.52016,81.808051 C 112.11258,82.870184 110.90814,83.116889 108.02091,82.729631 C 105.22942,82.355213 103.71538,82.638019 102.83551,83.698204 C 101.96871,84.742628 100.53385,85.023761 98.09226,84.627546 C 95.614664,84.225487 94.056366,84.544002 92.759633,85.717529 C 91.239433,87.093291 90.380386,87.184256 87.71376,86.25184 C 85.946192,85.633789 82.451903,84.836598 79.948674,84.480305 C 75.7205,83.878494 75.312241,84.01929 74.198674,86.463302 C 73.539403,87.910244 73,89.297932 73,89.547053 C 73,89.796174 78.2875,90.00181 84.75,90.004021 C 105.56286,90.011144 124.36151,94.554254 135.0436,102.15858 C 146.3696,110.22129 155.50685,121.25681 161.00727,133.5162 C 164.42284,141.12887 170.80716,148.30707 177.89152,152.5 C 184.20188,156.23483 184.94631,159.03358 178.79459,155.89521 C 170.72537,151.7786 163.63835,143.77105 157.3572,131.67332 C 152.59483,122.50081 150.10837,119.04459 143.47183,112.3724 C 130.27299,99.102662 115.61872,93.359702 92.120478,92.247979 C 75.207816,91.447825 62.261597,93.321212 53.5,97.836569 C 46.829566,101.27423 36.591734,110.1573 34.243637,114.54476 C 33.190538,116.51249 33.371458,116.57154 39.325832,116.20332 C 45.064306,115.84845 45.693215,116.02485 48.23803,118.70298 C 50.135348,120.69969 51.375958,123.56731 52.278445,128.04223 L 53.580829,134.5 L 63.040415,141.29127 C 97.400833,165.95944 137.71502,183.14507 182,192.00283 C 195.7351,194.75009 210,196.98219 210,196.38413 C 210,196.23337 208.46137,193.04418 206.58082,189.29706 C 202.90499,181.97273 199,172.52857 199,170.96298 C 199,168.11004 201.0113,170.77084 202.99648,176.25 C 208.40327,191.17298 219.2502,209.09314 232.20182,224.5 C 247.87154,243.14024 254.44684,246.86717 258.91331,239.64027 z M 179.59487,149.38662 C 178.68241,147.0088 180.22098,145.78246 183.62818,146.17182 C 185.72394,146.41132 186.5,147.04046 186.5,148.5 C 186.5,151.20847 180.5854,151.9679 179.59487,149.38662 z M 178,141.11426 C 170.42009,138.66361 164,135.22532 164,133.61652 C 164,131.89997 172.7219,123.71229 176.79314,121.60697 C 181.83742,118.99847 187.37636,119.51354 191.29673,122.95567 C 194.99309,126.20112 201.52066,139.20079 200.62542,141.53376 C 199.79863,143.68832 185.11986,143.41616 178,141.11426 z M 198,139.47148 C 198,136.50945 192.02684,126.1553 189.12682,124.0903 C 187.51226,122.94064 184.88633,122 183.29141,122 C 180.00431,122 172.87315,126.26424 168.69375,130.72901 L 165.8875,133.72686 L 170.69375,136.00997 C 177.85341,139.41101 183.72544,140.8109 191.25,140.91058 C 196.6783,140.98249 198,140.70071 198,139.47148 z M 279.24845,217 C 280.35243,214.79007 280.99746,211.1963 280.99845,207.25 L 281,201 L 276.97525,201 C 273.52173,201 272.79216,201.3903 271.8349,203.75 C 270.28918,207.56028 268.04807,219.26876 268.67141,220.27735 C 268.95309,220.73312 271.05476,220.96967 273.34178,220.80301 C 276.96674,220.53886 277.72422,220.05115 279.24845,217 z M 48.891707,133.08809 C 50.704329,131.94027 49.890298,124.00771 47.60141,120.51443 C 46.253613,118.45743 45.151285,118 41.542047,118 C 34.373849,118 32,119.35041 32,123.4282 C 32,128.24892 33.81477,131.75562 36.894491,132.88588 C 40.236025,134.11223 47.091932,134.22778 48.891707,133.08809 z M 36.438874,108.66225 C 39.973226,104.20821 40.096188,103.8513 37.989177,104.16225 C 35.295996,104.55972 32.364993,108.27756 31.416019,112.5 C 30.660223,115.8629 30.824869,115.7371 36.438874,108.66225 z M 47,98.990033 C 51.844077,95.654864 56.567442,93.5871 63,91.985654 C 68.847052,90.529976 69.724368,89.972264 71.73355,86.433709 C 72.962002,84.270169 73.974502,82.1625 73.98355,81.75 C 74.012296,80.439406 62.647148,80.941937 56.460099,82.524831 C 48.888368,84.461982 43.372486,88.266297 39.25,94.39467 C 34.77451,101.04781 34.937973,102.1876 40.25,101.36746 C 42.5875,101.00657 45.625,99.936726 47,98.990033 z M 91.5,83 C 91.160081,82.45 90.260081,82 89.5,82 C 88.739919,82 87.839919,82.45 87.5,83 C 87.148091,83.569401 88.009288,84 89.5,84 C 90.990712,84 91.851909,83.569401 91.5,83 z M 100.54112,81.933469 C 101.46146,80.444319 100.39439,79.634679 98.479746,80.369399 C 97.596165,80.70846 97.153315,81.439053 97.495635,81.992937 C 98.30621,83.304475 99.71074,83.27705 100.54112,81.933469 z M 110.5,80 C 110.83992,79.45 110.21803,79 109.11803,79 C 108.01803,79 106.83992,79.45 106.5,80 C 106.16008,80.55 106.78197,81 107.88197,81 C 108.98197,81 110.16008,80.55 110.5,80 z M 119.5,78 C 119.85052,77.432842 119.01038,77 117.55902,77 C 116.15156,77 115,77.45 115,78 C 115,78.55 115.87344,79 116.94098,79 C 118.00852,79 119.16008,78.55 119.5,78 z M 636.56426,78.670643 C 634.68026,77.293029 634.67651,77.135559 636.41932,72.572091 C 638.0865,68.206632 638.09547,67.762973 636.55101,66.056362 C 635.63949,65.049144 632.67064,63.169617 629.95357,61.879637 C 626.61881,60.296398 623.24619,57.412655 619.5752,53.005645 C 615.08541,47.615665 613.29662,46.233773 609.31848,45.082016 C 606.66832,44.314735 603.95986,43.492831 603.2997,43.255562 C 602.5283,42.978315 602.17097,43.789928 602.2997,45.526902 C 602.47592,47.904676 601.98019,48.386102 598.17674,49.530951 C 595.79894,50.246672 591.75747,50.982503 589.19568,51.166131 C 585.39576,51.438508 584.47485,51.177684 584.19562,49.75 C 583.93516,48.41827 584.52816,47.996372 586.67668,47.984819 C 591.15427,47.960744 597.72445,45.651032 597.25846,44.264853 C 596.93422,43.300349 596.25783,43.324623 594.17162,44.375631 C 591.33912,45.802606 575.67921,47.34588 574.63435,46.301016 C 572.90224,44.568903 576.68227,43 582.58765,43 C 588.25625,43 589.30611,42.670125 592.4652,39.896408 C 594.40934,38.189432 596,36.461459 596,36.056467 C 596,35.651476 594.2,34.726065 592,34 C 585.40539,31.823583 587.44955,27 594.96648,27 C 597.25545,27 598.29102,27.587562 598.93206,29.25 C 599.70294,31.249121 599.87853,31.304872 600.50683,29.75 C 601.44438,27.429821 604.86345,27.523881 612.9295,30.091753 C 623.90689,33.586465 624.2717,33.798353 623.77597,36.391613 C 623.49378,37.867786 623.94857,39.1113 625.01399,39.776665 C 625.94023,40.355109 627.68994,43.272218 628.90224,46.259127 L 631.10641,51.689872 L 641.2223,52.594936 C 651.2902,53.495706 651.34332,53.514471 652.4191,56.550407 C 653.01359,58.228131 654.51179,60.9966 655.74842,62.702562 L 657.99684,65.80431 L 654.44126,67.902155 C 652.48569,69.05597 650.72257,70 650.52321,70 C 650.32385,70 649.39003,67.6375 648.44805,64.75 C 647.50607,61.8625 646.31963,58.973436 645.81151,58.329857 C 645.09034,57.41642 630.98839,55.865887 630.99775,56.701059 C 630.99899,56.811641 633.83877,58.489646 637.30837,60.429958 L 643.61674,63.957799 L 643.48317,71.7289 C 643.35537,79.164812 643.24498,79.512611 640.9239,79.792386 C 639.58976,79.953198 637.62792,79.448414 636.56426,78.670643 z "
     id="path1883" />
</svg>
