<?xml version="1.0" encoding="utf-8"?>
<!-- Generator: Adobe Illustrator 20.1.0, SVG Export Plug-In . SVG Version: 6.00 Build 0)  -->
<svg version="1.1"
	 id="svg3923" inkscape:version="0.48.4 r9939" sodipodi:docname="Blue_whale_size.svg" xmlns:cc="http://creativecommons.org/ns#" xmlns:dc="http://purl.org/dc/elements/1.1/" xmlns:inkscape="http://www.inkscape.org/namespaces/inkscape" xmlns:rdf="http://www.w3.org/1999/02/22-rdf-syntax-ns#" xmlns:sodipodi="http://sodipodi.sourceforge.net/DTD/sodipodi-0.dtd" xmlns:svg="http://www.w3.org/2000/svg"
	 xmlns="http://www.w3.org/2000/svg" xmlns:xlink="http://www.w3.org/1999/xlink" x="0px" y="0px" viewBox="0 0 2332.3 443.4"
	 style="enable-background:new 0 0 2332.3 443.4;" xml:space="preserve">
<style type="text/css">
	.st0{fill:none;stroke:#000000;stroke-width:4.1626;}
	.st1{fill:none;stroke:#000000;stroke-width:4;}
	.st2{fill:none;stroke:#000000;stroke-width:3;}
</style>
<sodipodi:namedview  bordercolor="#666666" borderopacity="1.0" fit-margin-bottom="0" fit-margin-left="0" fit-margin-right="0" fit-margin-top="0" id="base" inkscape:current-layer="g4037" inkscape:cx="1058.6549" inkscape:cy="172.3772" inkscape:document-units="px" inkscape:guide-bbox="true" inkscape:pageopacity="0.0" inkscape:pageshadow="2" inkscape:window-height="1017" inkscape:window-maximized="1" inkscape:window-width="1920" inkscape:window-x="-8" inkscape:window-y="-8" inkscape:zoom="0.5" pagecolor="#ffffff" showgrid="false" showguides="true">
	<sodipodi:guide  id="guide2999" orientation="1,0" position="-2.8701149e-006,489.85682"></sodipodi:guide>
	<sodipodi:guide  id="guide3001" orientation="1,0" position="2200,2416.8568"></sodipodi:guide>
	<sodipodi:guide  id="guide3003" orientation="1,0" position="175.00893,3964.2938"></sodipodi:guide>
</sodipodi:namedview>
<g id="layer7" transform="translate(798.77305,-104.38806)" inkscape:groupmode="layer" inkscape:label="back fin">
	<path id="path3991_3_" inkscape:connector-curvature="0" sodipodi:nodetypes="cccccc" class="st0" d="M52,524.3"/>
	<path id="path3991_1_" inkscape:connector-curvature="0" sodipodi:nodetypes="cccccc" class="st0" d="M-103.7,492.9
		c71.5,52.3,121.5,47.5,131.3,46.4"/>
</g>
<g id="layer5" transform="translate(798.77305,-104.38806)" inkscape:groupmode="layer" inkscape:label="eye">
	
		<path id="path3986" sodipodi:cx="-354.56354" sodipodi:cy="146.44475" sodipodi:rx="2.6516504" sodipodi:ry="1.3258252" sodipodi:type="arc" d="
		M-326.6,329.2c0,3,4.9,5.5,11,5.5c6.1,0,11-2.5,11-5.5c0-3-4.9-5.5-11-5.5C-321.7,323.7-326.6,326.2-326.6,329.2z"/>
</g>
<g id="layer6" transform="translate(798.77305,-104.38806)" inkscape:groupmode="layer" inkscape:label="fin">
	<path id="path3988" inkscape:connector-curvature="0" sodipodi:nodetypes="cscssssc" class="st0" d="M-156.2,416.3
		c19.9,34.2,53.3,64.2,90.2,84.9c88.5,49.7,181.8,55,216.1,29.5c0,0-32-9.2-46.1-17.8c-13-8-22.3-20.9-34.2-30.5
		c-15-12.1-30.7-23.6-46.8-34.2C7.4,438.1-8.3,427.6-25.3,420c-13.5-6-42.4-13.4-42.4-13.4"/>
</g>
<path class="st1" d="M2286.1,345c-29.4-26.5-51.6-59-75.2-92c-2.5-3.5-8.3-3.1-11-6.3c-3.7-4.4-2.8-11.4-5.8-16.3
	c-5-8.3-11.5-24.7-11-24.7l-59.2,5.5c0,0-40.4-41.7-64.8-58.6c-24.2-16.6-50-31.4-77.3-42c-49.3-19.3-102-29-154-38.9
	c-35.2-6.7-71.2-8.3-106.7-13.7c-8.1-1.2-18.3,1.5-24.2-4.2c-4.3-4.1-4.3-11.5-3.7-17.3c0.4-4,4.7-11,4.7-11s-37.9,11.8-57.3,15.8
	c-28.2,5.8-57,9-85.7,11.6c-70.6,6.4-141.6,6.5-212.3,10c-116.1,5.7-232.3,10.9-348.4,17.7c-100.8,5.8-201.5,12.7-302.2,19.7
	c-93.8,6.5-187.3,19.4-281.3,20.8c-8.7,0.1-17.5,0.4-26-1.1c-7-1.2-13.4-5.3-20.4-6.3c-13-1.8-26.3-0.1-39.4,0.7
	c-30.2,2-60.1,8.5-90.3,10.4c-26.8,1.7-53.8,0.8-80.7,1.1c-22.1,0.3-44.1,1.2-66.2,0.7c-13.3-0.3-26.5-2.2-39.8-2.2
	c-9.9,0-20.2-1.3-29.7,1.5c-5.6,1.7-12.7,3.6-15.2,8.9c-2.3,4.7,0.2,10.7,2.2,15.6c2.1,5,5.8,9.2,9.7,13
	c7.8,7.7,17.2,13.9,26.8,19.3c45.8,25.7,97.2,39.8,145.3,61c53.9,23.7,106.6,50.1,160.6,73.6c15.8,6.9,31.5,14.3,47.9,19.7
	c29.6,9.7,60.1,16.9,90.7,22.7c45.7,8.6,92.2,11.2,138.3,17.5c24.7,3.4,49.1,9.1,74,10.8c7,0.5,14.1,0.8,21.1,1.1
	c4.4,2.8,8.8,5.4,13.3,8c88.5,49.7,181.8,55,216.1,29.5c0,0-32-9.2-46.1-17.8c-9.5-5.8-17.1-14.3-25.1-22.2c3.2-0.2,6.3-0.3,9.5-0.5
	c44.3-2.1,88.5-7.4,132.7-11.5c31.7-3,63.5-6.1,95.1-9.7c46.4-5.2,92.7-11,139-17.1c63.3-8.4,126.3-18,189.5-26.8
	c62.2-8.6,124.6-15.5,186.6-25.3c37.3-5.9,74.1-14.8,111.5-20.1c26.8-3.8,53.6-7.8,80.7-8.2c29.3-0.4,58.5,3.4,87.7,6.3
	c17.5,1.7,34.9,5.1,52.4,6.7c22,2,44.1,4.2,66.2,3.7c13.7-0.3,27.4-1.5,40.9-4.1c12.5-2.4,36.8-10.8,36.8-10.8s15.9,8.8,23,14.5
	c13.1,10.5,22.8,24.9,35.7,35.7c13.1,11,27.2,20.9,42,29.4c12.2,7,25,13,38.3,17.5c14.9,5,30.4,9.2,46.1,10.4
	c13,1,38.9-2.7,38.9-2.7h0C2330.2,373.9,2299.1,356.7,2286.1,345z"/>
<g>
	<g>
		<path class="st2" d="M652.9,327.6c-56.6-19.9-118.8-25.5-172.4-52.6c-15-7.6-25.7-22.4-40.8-29.8c-7.1-3.5-16.1-2.4-22.8-6.6
			c-9.5-6-13.8-17.9-22.4-25c-13.6-11.3-28.8-21.1-45.3-27.6c-27.5-10.9-57.4-15-86.8-18.4C171.1,157,85.3,135.1,6.6,133l0,0
			c-0.6,0-1.3,0-1.8,0.3c-1.7,1.2-1.8,3.1-2.1,5.2c-0.8,5.6,2.1,11.1,5.2,15.8c6.4,9.9,15.4,16.1,25.2,22.6
			c18.7,12.4,40.1,20.2,60.7,29.1c27.2,11.7,53.7,19.8,80.9,31.3c32.8,13.8,38.1,16.3,70.5,31.1c6,2.7,40.7,19.5,46.7,22.3
			c22.1,10.4,43.8,20.5,66.4,29.7c21.8,8.9,44.1,17.7,66.8,24.1c25,7,49.6,12,75.2,16.2c16.9,2.8,33.6,5.2,50.9,7.4
			c10.1,1.3,20.8,2.8,30.8,3.3c34.5,1.7,68.7,9.4,103.4,14c8.6,1.1,20.2,1.8,31.8,2.1C692.2,371.1,669.6,350.6,652.9,327.6z"/>
	</g>
</g>
</svg>
