<?xml version="1.0" encoding="utf-8"?>
<!-- Generator: Adobe Illustrator 20.1.0, SVG Export Plug-In . SVG Version: 6.00 Build 0)  -->
<svg version="1.1"
	 id="svg4127" inkscape:version="0.48.3.1 r9886" sodipodi:docname="bottlenose dolphin size.svg" xmlns:cc="http://creativecommons.org/ns#" xmlns:dc="http://purl.org/dc/elements/1.1/" xmlns:inkscape="http://www.inkscape.org/namespaces/inkscape" xmlns:rdf="http://www.w3.org/1999/02/22-rdf-syntax-ns#" xmlns:sodipodi="http://sodipodi.sourceforge.net/DTD/sodipodi-0.dtd" xmlns:svg="http://www.w3.org/2000/svg"
	 xmlns="http://www.w3.org/2000/svg" xmlns:xlink="http://www.w3.org/1999/xlink" x="0px" y="0px" viewBox="0 0 1591.5 532.7"
	 style="enable-background:new 0 0 1591.5 532.7;" xml:space="preserve">
<style type="text/css">
	.st0{fill:none;stroke:#000000;stroke-width:4;}
	.st1{fill:none;}
	.st2{fill:none;stroke:#000000;stroke-width:4;stroke-miterlimit:10;}
</style>
<sodipodi:namedview  bordercolor="#666666" borderopacity="1.0" fit-margin-bottom="0" fit-margin-left="0" fit-margin-right="0" fit-margin-top="0" id="base" inkscape:current-layer="layer3" inkscape:cx="617.95771" inkscape:cy="558.7522" inkscape:document-units="px" inkscape:pageopacity="0.0" inkscape:pageshadow="2" inkscape:window-height="1017" inkscape:window-maximized="1" inkscape:window-width="1920" inkscape:window-x="-8" inkscape:window-y="-8" inkscape:zoom="0.6125731" pagecolor="#ffffff" showgrid="false">
	</sodipodi:namedview>
<g id="layer12" transform="translate(515.2499,79.248211)" inkscape:groupmode="layer" inkscape:label="left fin">
	<path id="path4152_1_" inkscape:connector-curvature="0" sodipodi:nodetypes="csssccssc" class="st0" d="M-44.8,343.4
		c0,0,11.2,10.9,16.9,16.2c5.6,5.2,11.4,10.2,17.2,15.2c4.9,4.3,10.4,7.9,14.9,12.6c2.4,2.5,6.3,8.1,6.3,8.1c1.5,2.4,3.2,5-4,3
		c0,0-16.4-5.4-24.2-9.1c-14.1-6.6-27.4-14.9-40.7-23.2c-12.7-8-33.9-23.2-33.9-23.2"/>
</g>
<g id="layer13" transform="translate(515.2499,79.248211)" inkscape:groupmode="layer" inkscape:label="trace">
	<path id="path4146_1_" inkscape:connector-curvature="0" class="st0" d="M-223.6,292.2c-9.8-3-19.7-5.8-29.5-8.6
		c-10.1-2.9-20.2-5.6-30.3-8.3c-11.3-3-22.5-6.1-33.8-8.8c-10.8-2.6-21.8-4.6-32.6-7.3c-7-1.8-14.1-3.5-21-6.1
		c-7.3-2.7-13.9-7-21.2-9.6c-9.3-3.3-18.9-5.6-28.5-7.3c-10.4-1.9-21.1-2-31.6-3.5c-6.7-1-13.3-2.2-20-3.5c-6.3-1.2-12.7-2.3-18.9-4
		c-4.3-1.2-8.8-2.1-12.6-4.3c-3.1-1.7-6.2-3.8-8.1-6.8c-1.2-1.9-1.5-6.6-1.5-6.6l1-3.8l1.8-1.8l0.2-0.3c-0.3-1-0.4-2.2-0.7-4
		c-0.3-2.1,0.4-4.3,1.5-6.1c1.7-2.8,4.5-5.3,7.6-6.6c5.8-2.4,12.4-1.5,18.6-2.4c7-1,13.9-2.1,20.8-3.7c8.1-1.8,24.2-5.6,24.2-5.6
		s-0.6-3.5,0-5.1c2.6-6.9,9.2-11.7,14.6-16.7c6-5.5,12.8-10.3,19.7-14.6c8.7-5.5,17.7-10.8,27.3-14.6c12-4.8,24.8-7,37.4-10.1
		c14.1-3.5,28.3-6.5,42.4-9.6c17.1-3.7,34.3-7.5,51.5-10.6c17.4-3.1,35-5.8,52.5-8.1c21.7-2.8,43.4-5.3,65.2-7.1
		c17.1-1.4,33.1-2.6,50.3-4c15.2-1.3,32.8-2.3,48-3.3c15.6-1,30.1-1.4,45.7-1.8c13.8-0.3,27.6-0.5,41.4-1c12-0.5,24-0.6,35.9-2
		c8.7-1,17.5-1.8,25.8-4.5c8.9-2.9,17.1-7.9,25.3-12.5c5.9-3.4,11.6-7.2,17.1-11.1c3.9-2.7,7.5-5.7,11.3-8.6
		c4.7-3.6,9.6-7.1,14.1-10.9s8.7-8,13-12c4.1-3.8,8.2-7.5,12.3-11.3c5.2-4.8,10.2-9.8,15.5-14.5c5.6-4.9,11.3-9.7,17.1-14.3
		c4.8-3.7,9.7-7.1,14.6-10.5c5.3-3.7,10.5-7.6,16.1-10.9c5.1-3,10.5-5.5,15.9-8c5-2.4,10.1-4.8,15.4-6.6c4.5-1.5,9.2-2.6,13.9-3.6
		c4.4-0.9,8.8-1.7,13.2-2.1c3.3-0.3,6.6-0.6,9.8-0.4c2.6,0.2,5.2,0.7,7.7,1.6c1.5,0.6,2.9,1.3,4.1,2.3c1.1,0.9,2.4,2,2.9,3.4
		c0.3,0.9,0,1.9,0,2.9s0.2,2-0.2,2.9c-0.4,1-1.3,1.7-2.1,2.3c-0.6,0.4-1.4,0.3-2,0.7c-0.9,0.6-1.6,1.5-2.3,2.3c-0.8,0.9-1.4,2-2.1,3
		c-1,1.4-2,2.8-3.2,4.1c-2,2.2-4.4,4-6.6,6.1c-1.2,1.2-2.4,2.4-3.6,3.6c-2,2-3.6,4.4-5.7,6.3c-1.7,1.5-4.2,2.2-5.5,4.1
		c-1.1,1.6-0.9,3.9-1.6,5.7c-1,2.6-1.7,5.6-3.8,7.5c-0.7,0.7-2.1,0.5-2.7,1.3c-1.4,1.9-0.3,4.8-0.9,7.1c-1.1,4.6-3.3,8.9-4.6,13.4
		c-0.9,3.1-2,6.1-2.5,9.3c-0.4,2.8-0.4,5.6-0.4,8.4c0,3-0.1,6,0.4,8.9c0.3,2.4,1.2,4.8,1.8,7.1c0.7,2.6,1.1,5.2,2.1,7.7
		c0.9,2.2,2,4.3,3.4,6.3c1.7,2.5,3.8,4.7,6.1,6.8c2.2,2,4.7,3.7,7.1,5.4c4.4,3,9,5.8,13.8,8.2c6.3,3.2,13,5.7,19.6,8.4
		c4.2,1.7,8.5,3.3,12.9,4.8c5.2,1.8,10.5,3.2,15.7,4.8c6.9,2.1,13.8,4.1,20.7,6.3c5.9,1.8,11.7,3.8,17.7,5.5
		c6.3,1.8,12.6,3.4,18.9,5c6.4,1.6,12.8,3.2,19.3,4.6c5.1,1.2,10.2,2.3,15.4,3.4c6.5,1.3,13.1,2.4,19.6,3.8
		c5.6,1.2,11.1,2.8,16.8,3.8c8.2,1.4,16.4,2.1,24.6,2.9c6.8,0.6,13.7,0.8,20.5,1.3c9.1,0.5,18.2,1.4,27.3,1.6
		c5.7,0.1,11.4-0.2,17.1-0.2c7.5,0,15,0.5,22.5,0.2c7.8-0.4,15.6-1.7,23.4-2.5c9.1-1,18.2-1.6,27.3-2.9c5.4-0.7,10.8-1.8,16.3-2.7
		c5.2-0.9,10.3-1.9,15.5-2.7c5.6-0.8,11.3-1.6,17-2.1c4.1-0.4,8.2-0.8,12.3-0.7c4.1,0.1,8.2,0.9,12.3,1.3c5.2,0.4,10.5,0.7,15.7,1.1
		c3.3,0.3,4.7,0.5,7.9,1.2c1.7,0.3,5.6,1.2,7.3,1.3c4.7,0.2,7.7,0.6,11.7,0.8c4.4,0.2,8.8,0.4,13.2,0.5c4,0.1,8.1-0.1,12.1,0.4
		c2.6,0.3,5.1,1,7.7,1.6c2.2,0.6,4.4,1.3,6.6,2c3.6,1.1,7.3,1.9,10.9,3.2c2.3,0.8,4.3,2.1,6.6,2.9c2.6,0.9,5.3,1.8,8,2.1
		s5.5-0.4,8.2-0.2c14.5,2.1,29.8,5.7,42.9,8.6c4.4,1,8.9,1.5,13.4,2.3c10.1,1.8,20.2,3.7,30.4,5.4c3,0.5,5.9,1.1,8.9,1.4
		c6.2,0.6,12.4,0.6,18.6,0.7c6.2,0.1,12.4,0.2,18.6,0c4.7-0.2,9.3-0.6,13.9-1.1c4-0.4,8.1-0.9,12.1-1.3c3.7-0.3,7.3-0.5,11.1-0.7
		c3.9-0.2,7.9-0.6,11.8-0.7c2.6-0.1,5.2-0.4,7.9-0.2c2.4,0.2,4.7,0.6,7,1.3c1.2,0.4,3.6,1.4,3.6,1.4s-1.9,1.6-3,2.1
		c-1.7,0.9-3.6,1.5-5.5,2c-2.6,0.6-5.2,0.6-7.9,1.1c-2.5,0.4-5,1-7.5,1.4c-5.5,0.9-11,1.7-16.4,2.5c-4,0.6-8,1.1-12,1.8
		c-2.5,0.5-4.9,1.2-7.3,1.6c-4.8,0.7-9.6,0.9-14.5,1.3c-4,0.3-8,0.5-12,0.7c-4.3,0.2-8.6,0.3-12.9,0.4c-4.2,0.1-8.3,0.1-12.5,0
		c-4.5-0.1-8.9-0.5-13.4-0.7c-4.6-0.2-9.2-0.4-13.8-0.7c-3-0.2-6.1-0.6-9.1-0.9c-5.6-0.5-11.2-0.6-16.8-1.1
		c-5.1-0.4-10.2-1-15.4-1.4c-3.7-0.3-7.4-0.5-11.1-0.7c-3.4-0.2-6.8-0.5-10.2-0.5c-2.7,0-7,0.2-8,0.2s-7.9,2.3-7.9,2.3l-11.2,7.1
		l-10.9,8l-9.8,6.4l-11.9,8.6l-9.8,5.6c0,0-9,5.5-13.6,8.1c-4.4,2.5-8.9,4.7-13.3,7.2c-3.7,2.1-7.2,4.4-10.9,6.6
		c-4.4,2.6-8.9,5.1-13.4,7.4c-3.6,1.9-7.3,3.6-10.9,5.4c-4.8,2.4-9.4,5.2-14.3,7.4c-5,2.3-10.1,4.2-15.2,6.4
		c-3.8,1.6-7.5,3.4-11.2,5.1c-2.9,1.3-5.9,2.7-8.8,3.9c-3.3,1.4-6.6,2.6-9.8,4c-3.9,1.7-7.7,3.8-11.6,5.6c-4.3,2-8.6,3.7-12.9,5.7
		c-3.6,1.6-7,3.4-10.6,4.9c-3.9,1.6-7.8,3.1-11.7,4.5c-4.4,1.6-8.8,3.2-13.3,4.7c-5.1,1.7-10.3,3.2-15.4,4.8
		c-4.2,1.3-8.4,2.6-12.6,3.8c-4.5,1.2-9.1,2.4-13.6,3.4c-5.1,1.1-10.2,2-15.3,2.9c-4.9,0.8-9.8,1.5-14.6,2.3
		c-3.7,0.6-7.4,1.3-11.1,1.9c-4.8,0.8-9.7,1.6-14.5,2.4c-3.8,0.6-7.6,1.3-11.4,1.9s-7.6,1.1-11.5,1.5c-3.5,0.4-7.3,0.9-10.7,1.5
		c-4.1,0.7-7.8,1.6-11.9,2.8c-4.2,1.2-8.4,2.4-12.6,3.7c-3.6,1.1-7.1,2.4-10.7,3.4c-3.4,0.9-6.9,1.6-10.4,2.4
		c-4.3,1-8.6,1.9-12.9,2.8c-4.2,0.8-8.4,1.5-12.6,2.3c-4.1,0.7-8.2,1.3-12.2,2.1c-4.8,1-9.5,2.6-14.3,3.7s-9.7,1.8-14.5,2.7
		c-6,1-11.9,2.1-17.9,3c-6.9,1.1-13.8,2.3-20.7,3.3c-6.1,0.9-12.2,1.7-18.3,2.5c-6.9,0.9-13.9,1.6-20.8,2.5
		c-4.9,0.7-9.7,1.6-14.6,2.1c-6.4,0.7-12.9,0.9-19.3,1.4c-5.5,0.4-11,1-16.5,1.4c-5.2,0.4-10.4,0.7-15.7,1
		c-4.9,0.3-9.8,0.4-14.8,0.6s-9.9,0.6-14.9,0.8c-6.2,0.2-12.4,0.4-18.6,0.5c-6.4,0.2-12.8,0.3-19.2,0.4c-5.8,0.1-11.5,0.2-17.3,0.3
		c-7.2,0.1-14.4,0-21.6,0c-6.7,0-13.4,0.2-20.1,0.1c-8.8-0.1-17.7-0.3-26.5-0.5c-9.9-0.3-19.9-0.7-29.8-1.1
		c-8.9-0.4-17.8-0.8-26.6-1.5c-7.1-0.6-14.1-1.4-21.2-2.1c-8.7-0.9-17.4-1.7-26-2.9c-6.4-0.9-12.7-1.9-19.1-3
		c-6.3-1.1-12.5-2.5-18.7-3.8c-5.2-1.1-15.5-3.3-15.5-3.3l-15.7-3.5"/>
	<path id="path4166" inkscape:connector-curvature="0" class="st0" d="M-371.1,209.6c0,0-4.6-2.7-7.1-3.5c-2.9-1-6-1.7-9.1-2
		c-4-0.4-8.1-0.1-12.1,0c-7.1,0.2-14.2,0.5-21.2,1c-9.4,0.6-18.8,1.8-28.3,2.5c-8.7,0.6-17.5,1.3-26.3,1.5c-5,0.1-10.2,1.1-15.2,0
		c-5.8-1.3-13.5-2.2-18.4-5.4c-0.8-0.5-1.3-1.2-1.6-2.1"/>
</g>
<g id="layer2" transform="translate(515.2499,79.248211)" inkscape:groupmode="layer" inkscape:label="underbelly">
	
		<path id="path4166-7_1_" inkscape:connector-curvature="0" sodipodi:nodetypes="ccsssssssccssccsssssssssssssssssssssssssssssssssssssssssssssccssssssssssssscccc" class="st1" d="
		M-223.6,292.1c-9.8-3-19.7-5.8-29.5-8.6c-10.1-2.9-20.2-5.6-30.3-8.3c-11.3-3-22.5-6.1-33.8-8.8c-10.8-2.6-21.8-4.6-32.6-7.3
		c-7-1.8-14.1-3.5-21-6.1c-7.3-2.7-13.9-7-21.2-9.6c-9.3-3.3-18.9-5.6-28.5-7.3c-10.4-1.9-21.1-2-31.6-3.5c-6.7-1-13.3-2.2-20-3.5
		c-6.3-1.2-12.7-2.3-18.9-4c-4.3-1.2-8.8-2.1-12.6-4.3c-3.1-1.7-6.2-3.8-8.1-6.8c-1.2-1.9-1.5-6.6-1.5-6.6l1-3.8l1.8-1.8l0.2-0.1
		c0.3,0.9,0.7,1.5,1.6,2.1c5,3.3,12.6,4.1,18.4,5.4c4.9,1.1,10.1,0.1,15.2,0c8.8-0.3,17.5-0.9,26.3-1.5c9.4-0.7,18.8-1.9,28.3-2.5
		c7.1-0.5,14.1-0.8,21.2-1c4-0.1,8.1-0.4,12.1,0c3.1,0.3,6.2,1,9.1,2c2.5,0.9,7.1,3.5,7.1,3.5l3.2,1.4c0,0,228.1,86.8,351.7,100.2
		c114.2,12.3,229.7,6.6,344.5,3c109.9-3.4,340.6-50.9,340.6-50.9h0.1c-4.3,2-8.6,3.7-12.9,5.7c-3.6,1.6-7,3.4-10.6,4.9
		c-3.9,1.6-7.8,3.1-11.7,4.5c-4.4,1.6-8.8,3.2-13.3,4.7c-5.1,1.7-10.3,3.2-15.4,4.8c-4.2,1.3-8.4,2.6-12.6,3.8
		c-4.5,1.2-9.1,2.4-13.6,3.4c-5.1,1.1-10.2,2-15.3,2.9c-4.9,0.8-9.8,1.5-14.6,2.3c-3.7,0.6-7.4,1.3-11.1,1.9
		c-4.8,0.8-9.7,1.6-14.5,2.4c-3.8,0.6-7.6,1.3-11.4,1.9s-7.6,1.1-11.5,1.5c-3.5,0.4-7.3,0.9-10.7,1.5c-4.1,0.7-7.8,1.6-11.9,2.8
		c-4.2,1.2-8.4,2.4-12.6,3.7c-3.6,1.1-7.1,2.4-10.7,3.4c-3.4,0.9-6.9,1.6-10.4,2.4c-4.3,1-8.6,1.9-12.9,2.8
		c-4.2,0.8-8.4,1.5-12.6,2.3c-4.1,0.7-8.2,1.3-12.2,2.1c-4.8,1-9.5,2.6-14.3,3.7s-9.7,1.8-14.5,2.7c-6,1-11.9,2.1-17.9,3
		c-6.9,1.1-13.8,2.3-20.7,3.3c-6.1,0.9-12.2,1.7-18.3,2.5c-6.9,0.9-13.9,1.6-20.8,2.5c-4.9,0.7-9.7,1.6-14.6,2.1
		c-6.4,0.7-12.9,0.9-19.3,1.4c-5.5,0.4-11,1-16.5,1.4c-5.2,0.4-10.4,0.7-15.7,1c-4.9,0.3-9.8,0.4-14.8,0.6s-9.9,0.6-14.9,0.8
		c-6.2,0.2-12.4,0.4-18.6,0.5c-6.4,0.2-12.8,0.3-19.2,0.4c-5.8,0.1-11.5,0.2-17.3,0.3c-7.2,0.1-14.4,0-21.6,0
		c-6.7,0-13.4,0.2-20.1,0.1c-8.8-0.1-17.7-0.3-26.5-0.5c-9.9-0.3-19.9-0.7-29.8-1.1c-8.9-0.4-17.8-0.8-26.6-1.5
		c-7.1-0.6-14.1-1.4-21.2-2.1c-8.7-0.9-17.4-1.7-26-2.9c-6.4-0.9-12.7-1.9-19.1-3c-6.3-1.1-12.5-2.5-18.7-3.8
		c-5.2-1.1-15.5-3.3-15.5-3.3l-15.7-3.5"/>
</g>
<path id="path4149" inkscape:connector-curvature="0" sodipodi:nodetypes="csssssssssssssssssssssssccccc" class="st2" d="
	M423,406.3c0,0-0.5,8.8-0.3,13.1c0.2,4.4,0.9,8.8,1.5,13.1c0.6,4.1,1.4,8.3,2.3,12.4s1.6,8.2,3,12.1c1.6,4.3,3.7,8.4,6.1,12.4
	c2.5,4.2,5.5,8.1,8.3,12.1c2.9,4.2,5.7,8.4,8.8,12.4c1.9,2.5,4,4.9,6.1,7.3c2.3,2.7,4.8,5.3,7.1,8.1c2.4,2.9,5.6,5.3,6.8,8.8
	c0.8,2.1,1.2,4.7,0.3,6.8c-1.1,2.5-3.5,4.5-6.1,5.3c-3.3,1.1-6.9-0.1-10.4-0.8c-6-1.1-11.7-3.1-17.4-5.1c-6.3-2.2-12.4-4.7-18.4-7.6
	c-5.1-2.4-10-5.3-14.9-8.1c-5.8-3.3-11.6-6.7-17.2-10.4c-5.8-3.8-11.5-7.8-16.9-12.1c-5.2-4.1-10.1-8.6-14.9-13.1
	c-4.7-4.3-9.7-8.4-13.6-13.4c-2.4-3.1-3.9-6.8-6.1-10.1c-3.7-5.6-8-10.7-11.9-16.2c-3.5-5-6.9-10-10.1-15.2
	c-3-4.9-8.6-15.2-8.6-15.2l-4.8-12.4l-4-11.6l-6.8-8.8l-6.8-7.8"/>
<path id="path4156" sodipodi:cx="906.96429" sodipodi:cy="486.82648" sodipodi:rx="13.035714" sodipodi:ry="7.3214288" sodipodi:type="arc" d="
	M154,277.9c0,4,5.8,7.3,13,7.3s13-3.3,13-7.3s-5.8-7.3-13-7.3S154,273.8,154,277.9z"/>
<path id="path4176" inkscape:connector-curvature="0" class="st1" d="M1334.6,228.3c9.2-4.3,21.9-11.6,37.2-15.1
	c4.7-1,9.2-2.1,15.3-1.9c1.9,0.1,3.3,0.4,5.8,0.7"/>
<g id="layer14" transform="translate(515.2499,79.248211)" inkscape:groupmode="layer" inkscape:label="white shading">
	<path id="path3837" inkscape:connector-curvature="0" sodipodi:nodetypes="cccssssscc" class="st1" d="M-437.5,173.5
		c23.1,4.8,36.3,8.8,89,17.4c-1.6-0.3-8.1,1.4-7.6,1.7c-1.1,0.5-2.6,1.2-3.6,2.3s-1.9,3.1-1.7,3.7c0.1,0.3,0,1.2,0.4,2
		c0.4,0.9,1.3,1.9,2,2.4c0.6,0.5,1.2,0.8,1.7,1.1c1.2,0.7,2.1,0.9,2.1,0.9C-374.6,196.7-412,182.5-437.5,173.5z"/>
</g>
</svg>
