<?xml version="1.0" encoding="utf-8"?>
<!-- Generator: Adobe Illustrator 20.1.0, SVG Export Plug-In . SVG Version: 6.00 Build 0)  -->
<svg version="1.1"
	 id="svg2" inkscape:version="0.44.1" sodipodi:docbase="C:\Wiki Uploads\To Upload" sodipodi:docname="Bowhead_whale_size.svg" sodipodi:version="0.32" xmlns:cc="http://web.resource.org/cc/" xmlns:dc="http://purl.org/dc/elements/1.1/" xmlns:inkscape="http://www.inkscape.org/namespaces/inkscape" xmlns:rdf="http://www.w3.org/1999/02/22-rdf-syntax-ns#" xmlns:sodipodi="http://sodipodi.sourceforge.net/DTD/sodipodi-0.dtd" xmlns:svg="http://www.w3.org/2000/svg"
	 xmlns="http://www.w3.org/2000/svg" xmlns:xlink="http://www.w3.org/1999/xlink" x="0px" y="0px" viewBox="0 0 713.9 236.6"
	 style="enable-background:new 0 0 713.9 236.6;" xml:space="preserve">
<sodipodi:namedview  bordercolor="#666666" borderopacity="1.0" gridtolerance="10.0" guidetolerance="10.0" id="base" inkscape:current-layer="svg2" inkscape:cx="376" inkscape:cy="168.5" inkscape:pageopacity="0.0" inkscape:pageshadow="2" inkscape:window-height="573" inkscape:window-width="853" inkscape:window-x="88" inkscape:window-y="116" inkscape:zoom="1.0212766" objecttolerance="10.0" pagecolor="#ffffff">
	</sodipodi:namedview>
<path id="path1873" d="M702.9,233.3c-29.9-13-56.9-35.9-95.5-80.9c-2.5-2.9-4.8-4.1-12.7-6.7c-15.8-5.1-30-6.4-59.7-5.8
	c-30.2,0.7-38.8,1.6-56.9,6.1c-17.6,4.4-53.8,12-71.6,15c-29.2,5-73.7,9.5-93.2,9.5c-9.4,0-9.5,0-8.7,2.3c0.4,1.2,0.7,6,0.6,10.5
	c-0.2,19.7-8,27.2-21.7,20.9c-9.6-4.5-28.9-17.7-39.4-27l-5.2-4.6l-27.7,0c-33.1,0-62.3-1.3-90.2-4c-61.2-6-97.3-16.2-116.4-33
	c-4.8-4.2-4.9-4.4-4.3-8.9c1.4-11.5,10.6-27.6,23.4-41.1C37.4,71,55.5,58.7,86.9,42.3C108.8,31,121.6,27,140.8,26
	c7.9-0.4,15.4-1.8,29.6-5.4c34.9-8.9,69.3-15,105.5-18.6c25.2-2.6,84.4-2.5,105.5,0c45,5.5,80.1,14.5,117.5,30.4
	c41.3,17.5,82.3,44.6,115,75.9l9.5,9.1l20,0.5c12.8,0.3,22.7,1.1,27.5,2.2c14.5,3.1,29.7,9.2,30.7,12.2c0.2,0.6-2.3,2.8-5.5,4.7
	c-4.8,2.9-6.1,4.3-7.1,7.5c-1.3,4.2-6.3,10.1-8.7,10.1c-2.2,0-1.8,0.7,2.5,4.6c5,4.5,6.6,9.1,8,23.4c1.9,18.7,8,34.1,18.8,47.3
	c2.3,2.9,4.3,5.5,4.3,5.9C713.9,237.3,710.3,236.5,702.9,233.3z M703.5,226.3c-9.7-14-15.6-31.4-15.6-46.3
	c0-11.4-4.3-18.7-13.8-23.4c-2.3-1.2-4.3-2.6-4.3-3.1s2.2-1,4.9-1c4.1,0,5.4-0.5,7.9-3c1.6-1.6,3.4-4.7,3.9-6.7
	c0.7-3.1,1.8-4.3,6.1-6.8c2.9-1.7,5.2-3.3,5.2-3.6c0-0.9-10.5-5.4-17-7.3c-9.7-2.9-24.1-4.5-39.4-4.5l-14.9,0l7.9,8
	c7.2,7.4,9.7,11,7.7,11c-0.4,0-8.7-7.8-18.3-17.4C592.8,91.2,570.7,74,537.8,55C461.2,10.8,371.3-5.3,264.9,6.2
	c-29.7,3.2-66.1,10-98.7,18.5c-11,2.9-17.2,4-22.5,4c-14.5,0-34.6,5.1-47.8,12.2C76.6,51,70.4,54.5,61.8,59.6
	C42.6,71.1,26.4,84.8,17,97.5C6.8,111.3-0.5,130.6,4.5,130.6c2.2,0,23.2-21.3,38.3-38.8c13.1-15.2,17.3-19,26-22.8
	c9.8-4.4,18.5-5.6,39-5.1c21.9,0.5,24.9,1.4,33.6,10.2c5.4,5.6,13.9,18.5,18.9,28.7c4.3,8.9,13.3,16,24.9,19.8
	c2.1,0.7,3.8,1.6,3.8,2.1c0,3.4-15.7-3.3-23.1-9.9c-2.8-2.5-6.1-7-8.4-11.4c-9-17.3-18.9-29.8-26.7-33.9c-7.9-4.1-35.8-4.9-50.4-1.4
	c-7.9,1.9-16,5.5-20.2,9c-1.8,1.6-8.8,9.2-15.5,16.9c-14.9,17.3-27.6,30.6-33.9,35.7l-4.7,3.8l4.9,3.5c7.1,5.1,15.3,9,28.3,13.5
	c34.5,11.9,84.4,17.7,168.6,19.7l28.4,0.7l-9.6-10.9c-8.7-9.8-11.1-13.4-8.9-13.4c0.4,0,4.8,4.6,9.8,10.3
	c13.6,15.4,31.2,29.7,51.1,41.4c9.3,5.5,13.4,6.5,17.5,4.3c3-1.6,5.6-8.5,6.4-16.9c0.8-9.3-1.5-17.5-7-24.9
	c-3.6-5-12.6-12.6-19.8-17c-3.6-2.2-4.9-4.1-2.7-4.1c2.1,0,12.6,7.4,18.7,13.4c3.5,3.4,7.6,8.3,9,10.9l2.7,4.8l9.5-0.6
	c52.3-3.3,76-6.2,115.7-14.1c20.7-4.1,51.4-11.1,59.2-13.4c1.9-0.6,12.4-1.7,23.5-2.6c34.4-2.8,66.3-0.9,83.7,4.9
	c3.7,1.3,6.5,1.8,6,1.2c-0.4-0.6-3.1-4.1-6-7.7c-5-6.4-6.2-8.9-4.3-8.9c0.5,0,4.3,4.4,8.4,9.7c26.7,34.8,56.9,64.6,82.2,81.1
	c5.7,3.7,25,14.1,26.1,14.1C707.7,232.6,705.9,229.8,703.5,226.3z M183.9,109.8c0-1.2,2.5-2.2,5.7-2.2c1.6,0,2.3,0.5,2.1,1.3
	C191.2,110.3,183.9,111.2,183.9,109.8z"/>
</svg>
