<?xml version="1.0" encoding="utf-8"?>
<!-- Generator: Adobe Illustrator 20.1.0, SVG Export Plug-In . SVG Version: 6.00 Build 0)  -->
<svg version="1.1"
	 id="svg2537" inkscape:output_extension="org.inkscape.output.svg.inkscape" inkscape:version="0.45.1" sodipodi:docbase="C:\Documents and Settings\Christopher\Desktop\Old Desktop\Stuff\Cetacean Size\SVG" sodipodi:docname="Cuvier&apos;s_beaked_whale_size.svg" sodipodi:version="0.32" xmlns:cc="http://web.resource.org/cc/" xmlns:dc="http://purl.org/dc/elements/1.1/" xmlns:inkscape="http://www.inkscape.org/namespaces/inkscape" xmlns:rdf="http://www.w3.org/1999/02/22-rdf-syntax-ns#" xmlns:sodipodi="http://sodipodi.sourceforge.net/DTD/sodipodi-0.dtd" xmlns:svg="http://www.w3.org/2000/svg"
	 xmlns="http://www.w3.org/2000/svg" xmlns:xlink="http://www.w3.org/1999/xlink" x="0px" y="0px" viewBox="0 0 469 110.6"
	 style="enable-background:new 0 0 469 110.6;" xml:space="preserve">
<sodipodi:namedview  bordercolor="#666666" borderopacity="1.0" gridtolerance="10.0" guidetolerance="10.0" id="base" inkscape:current-layer="svg2537" inkscape:cx="259.00001" inkscape:cy="116.5" inkscape:pageopacity="0.0" inkscape:pageshadow="2" inkscape:window-height="573" inkscape:window-width="744" inkscape:window-x="88" inkscape:window-y="116" inkscape:zoom="1.2722008" objecttolerance="10.0" pagecolor="#ffffff">
	</sodipodi:namedview>
<path id="path2546" d="M452.2,108.6c-8.5-2.3-16-5.3-28.1-11.4l-8.5-4.2l-4.3,1.8c-10,4.3-20.4,4.7-48.7,1.7
	c-16.8-1.7-110.6-1.8-127.5-0.1c-6.9,0.7-17.2,1.7-23,2.3c-5.8,0.6-17.3,1.9-25.5,3.1c-13.7,1.9-18.2,2-53,1.5
	c-20.9-0.3-42.5-1-48-1.6c-22.7-2.5-37.2-6-43.9-10.5c-3.1-2.1-4.9-2.5-10.9-2.5c-7.9,0-21.3-3-26.1-5.8c-3.4-2-4.4-5.4-2.4-7.8
	c1.1-1.3,1-1.7-0.4-2.5c-3.5-2-1.3-6.9,3-6.9c3.4,0,10-3.6,11.5-6.4c4.5-8.2,25-19.7,49-27.5c16.3-5.3,21.2-6.5,42.8-10.6
	c45.9-8.8,73.8-10.9,131-10.3c48.4,0.6,46.4,0.8,58.3-6.4c14-8.4,20.7-4.8,14.2,7.6c-0.9,1.6-1.3,4-1,5.2c1.2,4.9,14.2,11.7,39,20.3
	c24.8,8.6,41.1,16.6,56.5,27.6l4.5,3.2l6-3c3.4-1.7,8.4-3.2,11.6-3.6l5.6-0.6l1.1,5.2c2.8,13,13.3,26.7,30.4,39.5
	c2.1,1.6,3.8,3.2,3.8,3.7C469,111.3,459.9,110.7,452.2,108.6z M453.2,99.1c-5-4.7-11.1-11.6-13.5-15.3c-4.1-6.3-7.6-14.4-7.6-17.7
	c0-2.9-10.2-1-16.3,3l-2.5,1.6l4.4,4.1c4.2,3.9,5.4,5.8,3.6,5.8c-0.4,0-3.5-2.3-6.8-5.1c-16.3-13.8-39.1-26-66.5-35.5
	c-19.6-6.8-32-12.6-37.3-17.7c-4.3-4.1-4.4-5.2-1-14c1.4-3.7,1.6-5,0.6-6c-1-1-2.3-0.7-6.5,1.5c-2.9,1.5-6.8,3.8-8.6,5.2
	c-5.2,3.8-10.6,5-22.1,4.9c-87.1-0.8-91.7-0.6-128.5,4.2C110.4,22.7,83,28.6,61,36.2c-20.4,7.1-38.4,17.7-42.6,25
	c-1.7,2.9-7,6.2-11.4,6.9c-2.2,0.4-4,1-4,1.4c0,1.6,5.4,3.1,11.4,3.1c5.1,0,7.5-0.6,13.4-3.5c3.9-1.9,8.5-3.5,10.3-3.5
	c3.9,0,7,1.6,7,3.5c0,1.7-2.6,2-3.5,0.5c-1.2-2-6.8-0.9-13.8,2.5c-6.3,3.1-8,3.5-14.8,3.5c-5.5,0-8,0.4-8.9,1.4
	c-1.7,2,1.6,3.9,11.4,6.6c6.6,1.8,9.6,2.1,17.5,1.6c5.2-0.3,10.5-0.9,11.8-1.2c1.6-0.5,2.3-0.3,2.3,0.8c0,0.8-1.2,1.8-2.8,2.2
	c-2.7,0.7-2.7,0.7,2.1,3.2c10.9,5.6,30.8,8.8,65.7,10.5c26.4,1.3,58.4,0.6,72.5-1.5c15.1-2.3,48.5-5.5,71-6.7
	c21.9-1.2,87-0.5,104,1.2c27.6,2.7,41.2,2.3,49.9-1.4l2.9-1.2l-9.6-5.9c-5.3-3.3-9.6-6.5-9.6-7.2c0-1.8,0.6-1.7,5.3,1.6
	c6.4,4.4,26.1,14.9,36.1,19.3c8.3,3.7,23.3,8.6,26.5,8.8C461.7,107.7,458.2,103.9,453.2,99.1z M117.5,94.6
	c-11.5-2.7-22.9-6.5-23.3-7.8c-0.6-1.7,2.7-1.3,10.6,1.4c8.5,2.9,25.4,6.5,30.3,6.5c4.2,0,8.2-2,8.7-4.3c0.9-4.6-10-9.8-27.1-12.8
	c-4.4-0.8-6.8-1.7-6.8-2.5c0-1.5,2.9-1.2,15.3,1.3c17.4,3.5,26.6,12.4,19.1,18.3c-2.2,1.7-4,2.1-10.8,2
	C129.2,96.6,121.9,95.7,117.5,94.6z M55.7,68.1c-1.5-1.5-0.7-4.5,1.1-4.2c1,0.2,1.8,1.2,1.8,2.2C58.5,68.1,56.9,69.2,55.7,68.1z"/>
</svg>
