<?xml version="1.0" encoding="utf-8"?>
<!-- Generator: Adobe Illustrator 20.1.0, SVG Export Plug-In . SVG Version: 6.00 Build 0)  -->
<svg version="1.1"
	 id="svg2" inkscape:version="0.44.1" sodipodi:docbase="C:\Wiki Uploads\To Upload" sodipodi:docname="Fin_whale_size.svg" sodipodi:version="0.32" xmlns:cc="http://web.resource.org/cc/" xmlns:dc="http://purl.org/dc/elements/1.1/" xmlns:inkscape="http://www.inkscape.org/namespaces/inkscape" xmlns:rdf="http://www.w3.org/1999/02/22-rdf-syntax-ns#" xmlns:sodipodi="http://sodipodi.sourceforge.net/DTD/sodipodi-0.dtd" xmlns:svg="http://www.w3.org/2000/svg"
	 xmlns="http://www.w3.org/2000/svg" xmlns:xlink="http://www.w3.org/1999/xlink" x="0px" y="0px" viewBox="0 0 717.7 158.8"
	 style="enable-background:new 0 0 717.7 158.8;" xml:space="preserve">
<sodipodi:namedview  bordercolor="#666666" borderopacity="1.0" gridtolerance="10.0" guidetolerance="10.0" id="base" inkscape:current-layer="svg2" inkscape:cx="377" inkscape:cy="102" inkscape:pageopacity="0.0" inkscape:pageshadow="2" inkscape:window-height="573" inkscape:window-width="853" inkscape:window-x="132" inkscape:window-y="174" inkscape:zoom="1.0185676" objecttolerance="10.0" pagecolor="#ffffff">
	</sodipodi:namedview>
<path id="path1873" d="M628,154.3c-7.1-5.3-14-14.1-18.4-23.5l-3.2-6.7l-7.5-2.3c-13.7-4.2-30.3-11-47.8-19.5
	c-25-12.3-34.8-14.4-66.8-14.4c-10.7,0-23.8,0.5-29.2,1c-13.2,1.4-39.7,6.3-57.2,10.5c-11.9,2.9-54.6,9.4-108,16.6
	c-2.1,0.3-0.5,1.9,11.3,10.7c7.6,5.7,13.6,10.9,13.4,11.5c-0.6,1.8-11.3,1.9-22.2,0.1c-7.5-1.2-12.5-2.8-19.5-6.1l-9.5-4.5l3.8,3.8
	c2.1,2.1,3.8,4.2,3.8,4.7c0,1.4-14-0.1-21-2.3c-3.6-1.1-9.6-3.9-13.4-6.2l-6.9-4.2l-16.7,1.1c-30.3,2-82.7,1.1-111-1.9
	c-5.2-0.6-27.3-2.3-49-3.9c-39.4-2.9-47.2-4.1-51.1-7.6c-2.7-2.4-2.4-5.2,1.1-10.4c4.2-6.2,9.9-10,28.9-19.3
	c35.6-17.3,81.7-35.8,89.2-35.8c15.4,0,53.5-7.3,91.8-17.5C281.5,10,337.1,1.6,399.9,0.2c34.5-0.8,61,0.6,74.8,4
	c19,4.6,41.2,5.8,49.5,2.7c3.7-1.4,20.3-1.4,21.2,0c0.9,1.4-2.1,4.5-6.7,7.2c-2.1,1.2-3.8,2.9-3.8,3.9c0,4.8,11.2,13.2,32.9,24.8
	c16.4,8.8,24.6,14,34.1,22c12.6,10.5,21.3,21.4,27.5,34.2l3.4,7.2l17,6.8c20.2,8,43.6,19.9,57.8,29.3c10.7,7,12.7,9.4,7,8.3
	c-19.7-4-37.1-4.7-49.9-2.1c-7,1.4-7.7,1.4-13.3-0.5c-7.5-2.6-7.6-2.6-7.6,1.1c0,3.4-5.5,9.9-8.3,9.9
	C634.7,158.8,631.3,156.8,628,154.3z M638.6,153.6c1.8-1.7,2.3-3.2,2.3-7.1c0-4.2,0.2-4.8,1.8-4.4c15.4,4.8,14.9,4.7,20.4,3.4
	c6.1-1.4,29.2-1.7,38.8-0.6l6.5,0.8l-7-4.5c-16.6-10.8-47.5-24.7-77.5-35c-7.4-2.5-13.9-5-14.3-5.5c-2.2-2.2,1.8-1.8,9.9,0.9
	c4.8,1.6,9,2.8,9.2,2.6c0.7-0.7-4.8-10.9-9.2-17.1c-5.6-7.9-20.1-21.7-29.5-28.1c-4.1-2.8-13.6-8.4-21-12.4
	c-34.7-18.6-43.7-28.5-32-35l4.5-2.5l-6-0.3c-3.3-0.2-8.5,0.3-11.5,1c-11.2,2.7-31.7,1.3-50.5-3.3c-20.6-5.1-87.7-5-135.5,0.2
	c-33.7,3.7-72.2,10.8-106,19.6c-55.4,14.4-83.5,20.2-102,21.1c-11,0.5-12.2,0.8-26.5,6.3C82.5,61.8,42,79.7,25.9,88
	c-15.5,8-22.4,12.6-12,8C41,84,90.3,71.7,111.4,71.5c7-0.1,9.5,0.5,20,4.2c6.6,2.4,16.6,5.9,22.3,7.8c9.4,3.2,12.8,5.3,8.6,5.3
	c-2.6,0-15-3.9-24.3-7.7c-12.5-5-24.3-7.7-31-6.9c-17.4,2-40,6.8-58,12.2C33.7,91,7.1,101.6,4.7,104c-5.2,5.2,0.2,8.1,18,9.9
	c5.9,0.6,23.3,1.9,38.7,3c15.4,1.1,35.2,2.7,44,3.5c26,2.5,86.2,3,114.9,1c13.2-0.9,24.5-2,25.2-2.4c0.8-0.4-3.1-3.3-10.2-7.7
	c-6.3-3.8-11.5-7.5-11.5-8.2c0-1.7,0.7-1.6,3.8,0.6c5.5,3.8,31.1,18.2,42.7,23.9c12.1,6,19,7.9,35.5,9.7c6.4,0.7,7,1.5-7.5-9.6
	c-15.1-11.5-23.1-17.1-32.5-22.5c-11.2-6.5-13.3-7.4-18.1-7.4c-2.8,0-3.9-0.4-3.6-1.3c0.3-0.7,2.1-1.2,4.6-1.2
	c4.9,0.1,14.9,4.9,27.2,12.9l8.5,5.6l47.5-6.6c31.4-4.4,53.3-7.9,64.5-10.5c38.5-8.9,61.5-12,89-12c29.7,0,43.1,2.8,64.9,13.7
	c25.2,12.6,48.5,21.2,69.1,25.4c6,1.2,11.4,2.6,11.9,3.1c2.1,1.8-2.7,1.8-11.5,0c-5.2-1.1-9.5-1.8-9.6-1.8
	c-0.6,0.5,6.3,12.7,9.8,17.3c4,5.3,13.1,13.3,15.2,13.3C635.7,155.8,637.3,154.8,638.6,153.6z M160.2,82.3c-0.3-0.9-0.2-2.1,0.4-2.7
	c1.5-1.5,4.4-0.1,4,1.9C164.2,83.9,161,84.4,160.2,82.3z M263.3,131.7c-1-1.2-4.1-3.9-6.7-6.1l-4.8-4l-8.7,0.7
	c-8,0.7-8.5,0.8-6.7,2.2c5.1,3.9,19.5,9.1,25.9,9.2C265.2,133.8,265.2,133.8,263.3,131.7z"/>
</svg>
