<?xml version="1.0" encoding="utf-8"?>
<!-- Generator: Adobe Illustrator 20.1.0, SVG Export Plug-In . SVG Version: 6.00 Build 0)  -->
<svg version="1.1"
	 id="svg2" inkscape:version="0.44.1" sodipodi:docbase="C:\Wiki Uploads\To Upload" sodipodi:docname="Gray_whale_size.svg" sodipodi:version="0.32" xmlns:cc="http://web.resource.org/cc/" xmlns:dc="http://purl.org/dc/elements/1.1/" xmlns:inkscape="http://www.inkscape.org/namespaces/inkscape" xmlns:rdf="http://www.w3.org/1999/02/22-rdf-syntax-ns#" xmlns:sodipodi="http://sodipodi.sourceforge.net/DTD/sodipodi-0.dtd" xmlns:svg="http://www.w3.org/2000/svg"
	 xmlns="http://www.w3.org/2000/svg" xmlns:xlink="http://www.w3.org/1999/xlink" x="0px" y="0px" viewBox="0 0 641.5 177.6"
	 style="enable-background:new 0 0 641.5 177.6;" xml:space="preserve">
<sodipodi:namedview  bordercolor="#666666" borderopacity="1.0" gridtolerance="10.0" guidetolerance="10.0" id="base" inkscape:current-layer="svg2" inkscape:cx="347.5" inkscape:cy="131" inkscape:pageopacity="0.0" inkscape:pageshadow="2" inkscape:window-height="573" inkscape:window-width="853" inkscape:window-x="22" inkscape:window-y="29" inkscape:zoom="1.105036" objecttolerance="10.0" pagecolor="#ffffff">
	</sodipodi:namedview>
<path id="path1876" d="M249.6,176.2c-6.7-1.8-15.8-6.4-25.2-12.7c-4.3-2.9-8.5-5.6-9.2-6.1c-1.1-0.7-1.2,0.1-0.6,3.9l0.7,4.7
	l-6.5-0.5c-11.5-0.9-22.3-8.9-28.8-21.1c-1.8-3.4-3.7-6.4-4.2-6.8c-1-0.7-3.4-0.9-46.7-3.9c-35.7-2.5-80.2-2.8-87.6-0.5
	c-6.3,1.9-16.8,1.9-22.5,0c-2.4-0.8-6.7-3.2-9.4-5.3c-3.8-2.9-5.1-4.5-5.3-6.9c-0.2-1.7-1.2-3.9-2.3-4.9c-1.3-1.2-1.9-3.1-1.9-6
	c0-3.4,0.8-5.3,4.4-10.1C10.5,91.8,13,89.7,26,82.4c24.2-13.7,47.1-24.2,73.8-34.2c11.1-4.1,13.2-4.6,20.8-4.6
	c8.7,0,24.5-2.7,32.4-5.5c11.2-4,95.5-18.2,151.4-25.4c28.3-3.7,62.5-7.1,80-8c13.3-0.7,18.3-1.3,23-3c10.2-3.7,15.9-1.8,27.5,9
	c6.1,5.6,30.1,19.2,67.2,38c24.8,12.5,35.6,18.7,56,32l25.3,16.4l15.5-1.7c22-2.4,32.4-2.3,38,0.6c2.5,1.2,4.5,2.9,4.5,3.6
	c0,0.8-3.9,2.6-10.1,4.7c-11.4,3.7-16.2,6-24.8,11.7c-3.3,2.2-7.4,4.2-9.1,4.5l-3.1,0.5l-0.6,8.5c-0.3,4.7-0.8,8.7-1.1,9
	c-1.1,1.1-13.2-2.1-18.6-4.8c-6.5-3.3-13.4-10.3-16.1-16.4l-1.9-4.2l-12.3,1.4c-15.8,1.8-44.9,1.2-52.8-1.1
	c-11.8-3.4-31.1-4.9-58-4.4c-28.4,0.5-37.5,1.7-65.7,8.7c-34.5,8.6-82.9,17.1-111.5,19.6l-7.7,0.7l2.8,4.6c1.6,2.6,3.8,8.2,5,12.6
	c1.2,4.4,3.7,10.8,5.6,14.3l3.4,6.3l-2.6,1C259.1,178,255.7,177.8,249.6,176.2z M260.8,173.9c-0.2-0.4-1.6-3.1-3.1-5.9
	s-3.6-8.4-4.7-12.3c-5.8-20.9-22-35.4-42.4-37.9c-5.7-0.7-7.8-3.1-2.7-3.1c10.1,0,24.5,6.6,33,15.1c6.3,6.3,3.7,6,26.4,3.3
	c29.7-3.5,72.6-11.3,98-17.9c29.7-7.7,49.7-10,80.9-9.2c22,0.6,37.5,2.3,49.1,5.5c7.7,2.1,33.9,2.1,51,0c13.9-1.7,23-1.1,29.2,2.1
	c7.9,4,7.1,6.7-0.9,2.8c-2.9-1.4-7.7-2.9-10.6-3.2c-4.9-0.6-5.2-0.5-4.6,1.2c3.7,10.1,15.3,19,27.1,20.9l4.3,0.7v-7.6
	c0-6.5-0.2-7.6-1.8-7.6c-2.1,0-5.9-2.7-5-3.6c0.3-0.3,2.2-0.1,4.2,0.6c5,1.6,8.8,0.6,18.4-5.1c8.7-5.2,22.3-11.1,28.1-12.4l3.4-0.7
	l-2.6-1.4c-6.2-3.3-28-2-60.8,3.5c-9.1,1.5-17,1.3-17-0.4c0-1.2,1.3-1.5,5.9-1.5c6.9,0,15.1-1,15.1-1.9c0-0.3-10.5-7.4-23.3-15.8
	c-15.5-10.1-28.4-17.6-38.7-22.6c-33.1-15.9-76.8-40.4-84.4-47.3c-10.9-9.9-14.2-10.8-26.5-7c-3.5,1.1-11.9,2-23.5,2.6
	c-9.9,0.5-19.8,1.1-22,1.4c-2.2,0.3-10.8,1.3-19,2.1c-60.4,6.3-171.8,24-188.3,29.9c-7.5,2.7-19.3,4.7-31.7,5.5l-12,0.7l-21,8.4
	c-21.3,8.5-58.3,26.4-68.8,33.4c-9.8,6.5-18.3,17.9-17,22.7c1.1,4.1,2.6,4,13.2-0.6C45.5,98.1,86,87.7,102,89.1
	c13.2,1.1,35,8.6,35,12.1c0,2-0.2,2-5.8-0.8c-11.8-5.9-27.2-9.1-38.6-8.1c-13.9,1.3-40.8,8.2-60.1,15.4C18.2,113,6,118.8,6,120.2
	c0,1.8,4.9,6,10,8.7c3.8,2,5.9,2.3,14,2.3c5.2,0,12-0.6,15-1.2c8.1-1.6,43.2-1.4,72.1,0.3c26.2,1.6,58.6,4,67.4,5.1l5,0.6l-8.8-8.2
	c-4.8-4.5-8.8-8.6-8.8-9.1c0-2.3,3-0.1,14.3,10.3c27.7,25.6,44.1,37.5,60.1,43.4C252.2,174.5,261.5,175.5,260.8,173.9z M137.3,93.1
	c-0.8-2,2-4.9,4.1-4.1c2,0.8,2,2.1,0,4.1C139.4,95.1,138.1,95.1,137.3,93.1z M211.5,159.4c-0.9-5.7-0.8-5.5-10.3-13.5
	c-7.8-6.6-8.7-7-14.4-7.6c-3.4-0.4-6.3-0.5-6.5-0.2c-0.6,0.6,2.7,6.7,6.4,11.6c4.2,5.6,11.8,10.9,18.1,12.6
	C212.2,164.3,212.3,164.3,211.5,159.4z"/>
</svg>
