<?xml version="1.0" encoding="utf-8"?>
<!-- Generator: Adobe Illustrator 20.1.0, SVG Export Plug-In . SVG Version: 6.00 Build 0)  -->
<svg version="1.1"
	 id="svg2932" inkscape:output_extension="org.inkscape.output.svg.inkscape" inkscape:version="0.45.1" sodipodi:docbase="C:\Documents and Settings\Christopher\Desktop\Old Desktop\Stuff\Cetacean Size\New\SVG 2" sodipodi:docname="Harbour porpoise size.svg" sodipodi:version="0.32" xmlns:cc="http://web.resource.org/cc/" xmlns:dc="http://purl.org/dc/elements/1.1/" xmlns:inkscape="http://www.inkscape.org/namespaces/inkscape" xmlns:rdf="http://www.w3.org/1999/02/22-rdf-syntax-ns#" xmlns:sodipodi="http://sodipodi.sourceforge.net/DTD/sodipodi-0.dtd" xmlns:svg="http://www.w3.org/2000/svg"
	 xmlns="http://www.w3.org/2000/svg" xmlns:xlink="http://www.w3.org/1999/xlink" x="0px" y="0px" viewBox="0 0 418.8 140.8"
	 style="enable-background:new 0 0 418.8 140.8;" xml:space="preserve">
<sodipodi:namedview  bordercolor="#666666" borderopacity="1.0" gridtolerance="10.0" guidetolerance="10.0" id="base" inkscape:current-layer="svg2932" inkscape:cx="350" inkscape:cy="150" inkscape:pageopacity="0.0" inkscape:pageshadow="2" inkscape:window-height="573" inkscape:window-width="744" inkscape:window-x="154" inkscape:window-y="203" inkscape:zoom="0.94142857" objecttolerance="10.0" pagecolor="#ffffff">
	</sodipodi:namedview>
<path id="path2941" d="M370.3,139c-5.4-3.4-10.7-10.6-14-19.4l-1.8-4.8h-11.2c-12,0-24.5-1.4-47.9-5.4c-19.1-3.3-43.7-3.5-69.7-0.5
	c-30.6,3.5-63.2,3.6-90,0.4l-4.5-0.5l10.3,10.1c5.7,5.5,10.1,10.6,9.9,11.3c-0.3,0.8-2.7,1.2-7.6,1.2c-6.6-0.1-8-0.5-17.1-5.1
	c-8.8-4.5-9.9-4.8-10.4-3.2c-0.6,2.3-3,2.3-10-0.1c-10.8-3.7-18.6-8.1-24.7-14l-6.1-5.8l-11.3-0.7c-12.1-0.7-27.6-2.9-31.9-4.6
	c-1.4-0.5-6.7-1.6-11.7-2.4C10.4,93.8,3,90.5,1,86.8c-1-1.8-1.2-4.1-0.7-8.3c1.2-9.9,6.1-14.8,31.1-30.9c27.8-18,47.6-24,93-28.3
	c34.2-3.3,42.6-5.5,62.5-16.4c9.9-5.5,15.3-3.2,16.6,7.2c1.3,10,9.8,15.7,32.3,21.4c32.2,8.2,50.7,14.7,74.9,26.4
	c22.7,11,42.6,23.7,57.1,36.7l6.7,6l9,0.6c5,0.3,11.7,1.4,15,2.3c7.5,2,20.5,8,20.5,9.4c0,0.6-1.8,1.1-3.9,1.1s-8.9,1.6-15.1,3.5
	c-6.1,1.9-12.4,3.5-13.8,3.6c-1.9,0.1-4,1.6-7.2,5.1c-4.1,4.6-4.5,5.4-4.3,9.9c0.1,2.7-0.1,4.9-0.5,4.9
	C373.6,140.8,372,140,370.3,139z M372.3,136.8c-1.2-2,0.6-5.9,5.2-11.2c4.5-5.1,4.6-5.3,2.3-5.8c-1.3-0.3-2.5-1.1-2.7-1.8
	c-0.3-0.9,0.3-0.9,2.8-0.1c4,1.4,12.4,0.4,18.2-2c2.4-1,7.1-2.5,10.3-3.2l5.9-1.3l-5.4-2.4c-9.8-4.3-20.4-6.3-34.3-6.3
	c-7.8,0-12.8-0.4-12.8-1c0-0.6,2.4-1,5.3-1l5.3,0l-4.5-4.1c-7.8-7.2-23.9-18.7-36.1-25.9c-25.6-15.1-54-26.4-91.9-36.3
	C210.7,26.7,203,21.8,201.6,10c-1-7.9-5.7-10.2-12.7-6.2c-20.3,11.6-27.3,13.6-59.3,16.6c-46.5,4.4-70.8,11.2-93.1,26.3
	c-5.6,3.8-13,8.5-16.4,10.6C8,64.5,1.9,72.7,1.9,81.6c0,4.1,0.2,4.1,16.2-0.2c7-1.9,12.8-3,12.8-2.5c0,0.5-1.9,1.4-4.3,2
	s-7.2,2-10.9,3c-3.6,1.1-8.3,1.9-10.4,1.9c-3.7,0-3.8,0-2,2c2,2.2,8.4,4.3,18.5,6c3.6,0.6,10.1,2,14.5,3c11,2.6,25,4,40.7,4l13.3,0
	l-4.8-4.6c-8.3-7.9-4.5-5.8,7.4,4.1c13.4,11.2,26.6,20.3,36.4,25c7.1,3.5,18.9,6.5,20.2,5.1c1.2-1.2-24.3-26.2-33.4-32.9
	c-4.5-3.3-8.3-6.5-8.3-7c0-1.3,4.2,1.4,12,7.7c3.4,2.8,7.2,5.8,8.4,6.7c3.5,2.8,21.3,4.2,52.6,4.3c22.8,0,31.3-0.4,42.5-1.9
	c10.7-1.5,19.8-2,38.5-2c21.6,0,25.8,0.2,35,2.2c19.6,4.2,33.3,5.5,50,5c8.5-0.3,16.9-0.8,18.5-1.2c2.3-0.6,2.7-0.4,1.9,0.5
	c-0.6,0.7-3,1.5-5.3,1.8s-4.4,1-4.7,1.5c-1,1.6,5.3,13.6,9.6,18.3C370.7,137.4,374,139.5,372.3,136.8z M44.5,70.2
	c-1.5-1.5-0.7-4.5,1.1-4.2c1,0.2,1.8,1.2,1.8,2.2C47.3,70.3,45.7,71.4,44.5,70.2z M115.8,121.9c0-1-1.6-2.4-15.1-13l-7.6-6l-7.4,0
	l-7.4,0l5.7,5.4c5.4,5,11.4,8.6,21.8,12.7C110.8,122.9,115.8,123.4,115.8,121.9z"/>
</svg>
