<?xml version="1.0" encoding="utf-8"?>
<!-- Generator: Adobe Illustrator 20.1.0, SVG Export Plug-In . SVG Version: 6.00 Build 0)  -->
<svg version="1.1"
	 id="svg2395" inkscape:output_extension="org.inkscape.output.svg.inkscape" inkscape:version="0.46" sodipodi:docbase="C:\Documents and Settings\Christopher\Desktop\Old Desktop\Stuff\Cetacean Size\SVG" sodipodi:docname="Orca_size.svg" sodipodi:version="0.32" xmlns:cc="http://creativecommons.org/ns#" xmlns:dc="http://purl.org/dc/elements/1.1/" xmlns:inkscape="http://www.inkscape.org/namespaces/inkscape" xmlns:rdf="http://www.w3.org/1999/02/22-rdf-syntax-ns#" xmlns:sodipodi="http://sodipodi.sourceforge.net/DTD/sodipodi-0.dtd" xmlns:svg="http://www.w3.org/2000/svg"
	 xmlns="http://www.w3.org/2000/svg" xmlns:xlink="http://www.w3.org/1999/xlink" x="0px" y="0px" viewBox="0 0 546 280"
	 style="enable-background:new 0 0 546 280;" xml:space="preserve">
<style type="text/css">
	.st0{fill:none;stroke:#000000;stroke-miterlimit:10;}
	.st1{stroke:#000000;stroke-miterlimit:10;}
	.st2{fill:none;stroke:#000000;stroke-linejoin:round;}
</style>
<defs>
	
	
		<inkscape:perspective  id="perspective2455" inkscape:persp3d-origin="273 : 93.333333 : 1" inkscape:vp_x="0 : 140 : 1" inkscape:vp_y="0 : 1000 : 0" inkscape:vp_z="546 : 140 : 1" sodipodi:type="inkscape:persp3d">
		</inkscape:perspective>
</defs>
<sodipodi:namedview  bordercolor="#666666" borderopacity="1.0" gridtolerance="10.0" guidetolerance="10.0" id="base" inkscape:current-layer="svg2395" inkscape:cx="479.93452" inkscape:cy="23.177013" inkscape:pageopacity="0.0" inkscape:pageshadow="2" inkscape:window-height="984" inkscape:window-width="1680" inkscape:window-x="-5" inkscape:window-y="-5" inkscape:zoom="1.2069597" objecttolerance="10.0" pagecolor="#ffffff" showgrid="false">
	</sodipodi:namedview>
<path id="path3236" sodipodi:cx="149.9796" sodipodi:cy="146.42442" sodipodi:rx="20.505024" sodipodi:ry="11.131299" sodipodi:type="arc" class="st0" d="
	M86.3,135.1c0,4.6-8.1,9.4-18.1,10.7s-18.1-1.4-18.1-6l0,0c0-4.6,8.1-9.4,18.1-10.7C78.1,127.8,86.3,130.5,86.3,135.1L86.3,135.1z"
	/>
<path id="path3238" sodipodi:cx="99.682281" sodipodi:cy="183.01044" sodipodi:rx="2.7444992" sodipodi:ry="2.7444992" sodipodi:type="arc" class="st1" d="
	M50,145.2c0,0.9-0.9,1.7-1.9,1.7s-1.9-0.8-1.9-1.7s0.9-1.7,1.9-1.7S50,144.2,50,145.2z"/>
<g>
	<path class="st0" d="M148.8,189.3c2.9,0,51.4-2.5,61.1-3.9c4.5-0.7,10.9-1.5,18-2.2c-3.8-3.4-6.3-7.1-4.2-15.9
		c2.9-12,31.5-18.6,44.8-16.6c13.3,2.1,51.4,6.2,55.5,11.6s-3.7,7.9-9.5,7.9s-19.5,1.7-22.8,2.9c-2.1,0.8-0.6,6.1,0.8,9.9
		c8.4,0.2,16,0.6,20.7,1.5c12.6,2.3,37.4,7.9,42.3,8.5c5,0.6,50.4,14.4,53.3,14.4s5.2-3.1,5.2-3.1l1.5,0.7l8.8,8.5
		c0,0-0.3,0-0.8-0.1c12.3,5.1,22.5,16.9,36,20.3c1.1,0.7,14.4,3.3,8.1-1.3c-9.3-9.9-34.1-30.8-14-41.4c-4.2-8.7-24.6-6.1-34.9-3.2
		c-21.9-29.9-55.5-48.8-88.5-64.2c-24.3-11.9-51.7-16.1-76.2-27.2c-15.7-13.9-6.2-39.7-7.1-58.4c-1.9-10,14.5-38-1.5-35.3
		c-21,18.8-29,47.1-41.2,71.5c-13.2,18.9-39,13.9-58.9,16.1c-36.5,3.1-73.7,6.4-108.6,18c-15.5,6.8-43.3,26.3-30.1,45
		c0.6,0.5,1.2,1,1.8,1.5c-0.6-2.6,3-3.1,11-4.4c3.5-0.6,28.2-1.5,28.9-1.5c2.8,0.2,5.6,0.4,9.9,1.8c7.9,2.6,12,5,18.7,8.8
		c6.7,3.8,7.7,5.7,11.5,7.7"/>
	<path class="st0" d="M152.7,195.8c8.2,0.2,57.8-3.1,62.7-3.1c5.3,0,25.4-2.3,36.5-3.8s46.4,0.6,54.3,0.9c7.9,0.3,26.9,4.4,36.8,6.7
		s29.7,7.1,35.6,9.1c5.4,1.8,39.2,6.8,44.9,7.7"/>
	<path class="st0" d="M8.2,154.9c0,0.2,0.1,0.3,0.2,0.5c0.9,1.5,1.4,2.5,4,4.2c5,3.4,20.3,8.3,25.4,9.8c4.9,1.4,38.8,10.1,46.1,12.7
		c7.3,2.6,10.1,3.8,13.9,5"/>
</g>
<path id="path2459" class="st2" d="M88.2,167.3c3.2,3.8,5.6,9.7,7.3,14.4c1.8,4.7,3.2,7.3,6.7,13.8c3.5,6.4,9.4,14.4,16.4,19.9
	c7,5.6,16.4,11.1,21.1,13.5s11.1,4.4,13.5,2.9c2.3-1.5,6.2-5.6,6.2-8.2c0-2.6-2.6-16.4-4.4-22.3c-1.8-5.9-11.4-20.2-13.8-23.4
	s-16.7-12-18.7-12.9c-2.1-0.9-6.2-2.6-6.2-2.6"/>
</svg>
