<?xml version="1.0" encoding="utf-8"?>
<!-- Generator: Adobe Illustrator 20.1.0, SVG Export Plug-In . SVG Version: 6.00 Build 0)  -->
<svg version="1.1"
	 id="svg2" inkscape:version="0.44.1" sodipodi:docbase="C:\Wiki Uploads\To Upload" sodipodi:docname="Pygmy_right_whale_size.svg" sodipodi:version="0.32" xmlns:cc="http://web.resource.org/cc/" xmlns:dc="http://purl.org/dc/elements/1.1/" xmlns:inkscape="http://www.inkscape.org/namespaces/inkscape" xmlns:rdf="http://www.w3.org/1999/02/22-rdf-syntax-ns#" xmlns:sodipodi="http://sodipodi.sourceforge.net/DTD/sodipodi-0.dtd" xmlns:svg="http://www.w3.org/2000/svg"
	 xmlns="http://www.w3.org/2000/svg" xmlns:xlink="http://www.w3.org/1999/xlink" x="0px" y="0px" viewBox="0 0 486 158.8"
	 style="enable-background:new 0 0 486 158.8;" xml:space="preserve">
<sodipodi:namedview  bordercolor="#666666" borderopacity="1.0" gridtolerance="10.0" guidetolerance="10.0" id="base" inkscape:current-layer="svg2" inkscape:cx="341.5" inkscape:cy="127" inkscape:pageopacity="0.0" inkscape:pageshadow="2" inkscape:window-height="573" inkscape:window-width="853" inkscape:window-x="110" inkscape:window-y="145" inkscape:zoom="1.124451" objecttolerance="10.0" pagecolor="#ffffff">
	</sodipodi:namedview>
<path id="path1895" d="M471.5,153.2c-9.7-7.6-12.6-10.6-20.7-20.6l-7-8.8l-5.1,0c-12.5,0-26.7-3.2-51.1-11.5
	c-35.8-12.1-70.8-18.6-115.5-21.6c-19-1.3-83.7-0.6-85.1,0.8c-0.5,0.5,1.4,3.1,4.1,5.8c2.7,2.7,5,5.3,5,5.7c0,1.3-10.9,0.9-18-0.6
	c-9.6-2.1-17.3-5.2-24.7-10.2l-6.6-4.4l-18.6,0c-35.1,0-63.6-6.1-104.4-22.1C1.1,56.7-3.4,52.1,2.1,43.2c2.7-4.4,7.4-7,24.4-13.9
	c31.8-12.8,68.6-21.3,115-26.5c14.7-1.7,27.5-2.3,56.5-2.7C238.4-0.4,267,0.9,304,5c20.5,2.3,46.2,2.2,55.7-0.2
	c4.2-1.1,5.5-1.1,6.8,0c2.6,2.1,1.8,4.6-2.5,7.4c-4.3,2.9-4.8,4.3-2.6,8.4c2,3.8,6.8,8.1,17.1,15.2c5,3.4,13.5,9.9,19,14.5
	c11.5,9.5,37.7,36.1,45,45.8c4,5.3,5.7,6.7,8.5,7.3c13.6,2.5,35,11,35,13.9c0,0.7-3.8,2.4-8.5,4l-8.5,2.8l2.6,5.2
	c5.3,10.5,10.4,29.8,7.7,29.6C478.9,158.8,475.4,156.3,471.5,153.2z M477.6,152.1c-1-5.9-4.6-16.2-7.8-22.6
	c-1.6-3.2-2.6-6.1-2.3-6.5s4.1-1.8,8.3-3.2l7.7-2.6l-6-3c-6.9-3.5-21.4-8.3-25.2-8.3h-2.6l2.4,3.3c3.5,4.6,4,5.8,2.9,5.8
	c-0.5,0-3.1-3-5.7-6.8c-16.8-23.9-50.2-56.9-70.9-70.1c-8.4-5.3-17.3-13.1-18.9-16.5c-2.6-5.5-2.1-7.4,2.9-10.9
	c3.7-2.6,4.2-3.3,2.9-4.1c-1-0.5-3.6-0.4-6.8,0.5c-7.8,2-44,1.8-59.2-0.4c-26.3-3.8-54.5-5-99.5-4.5c-42.4,0.5-50,1.1-83,5.7
	c-22.4,3.1-56.4,11.3-76,18.3C20.3,33.5,7.3,39.6,4.8,43.2l-2.2,3.1l4.1-3.3c5.7-4.5,15.7-9,22.9-10.4c7.9-1.5,23.1-0.5,32.5,2.1
	c5.4,1.5,10.1,3.9,17,8.5c10.3,6.9,18.7,11,29.9,14.6c3.9,1.3,7.1,2.7,7.1,3.1c0,1.3-1.6,1-9.8-1.8C96.6,56,82.6,48.9,74.9,43.1
	c-7.2-5.3-16.8-8.1-30.3-9c-14.9-0.9-28.8,3.6-38.4,12.3l-4.6,4.2l2.8,3c3,3.2,3.9,3.6,22.7,11c20.5,8.1,34,12.3,53.5,16.6
	c17.5,3.8,47.2,6.5,57.9,5.2l5.7-0.7l-3.6-4.5c-4.7-5.8-3.7-6.9,1.3-1.3c10.6,11.8,27.8,20.1,46.1,22.2c2.3,0.3,4.3,0.3,4.3-0.1
	s-2.4-3.2-5.3-6.4c-2.9-3.2-7.2-8.1-9.6-10.8c-4.3-4.9-10.5-8.1-15.9-8.1c-1.3,0-2.3-0.4-2.3-1c0-1.5,5-1.2,10.2,0.5
	c4.6,1.6,9.7,5.7,13.4,10.6l2,2.7l17-0.9c72.7-3.8,132.9,3.5,190.8,23c9.8,3.3,22.6,6.9,28.3,8c10.1,2,21.3,2.7,21.3,1.4
	c0-0.3-1-2.2-2.1-4.1c-1.2-1.9-1.9-3.7-1.6-3.9c0.3-0.3,3.2,3.4,6.4,8.2c6.5,9.8,18.9,23.4,27.3,30c3,2.4,5.7,4.3,5.9,4.3
	C478.1,155.8,478,154.2,477.6,152.1z M114.2,53.5c-1.4-1.7-0.5-2.7,2.5-2.7c1.7,0,2.3,0.6,2.3,2C119,55.2,115.9,55.6,114.2,53.5z"/>
</svg>
