<?xml version="1.0" encoding="UTF-8" standalone="no"?>
<!-- Created with Inkscape (http://www.inkscape.org/) -->
<svg
   xmlns:dc="http://purl.org/dc/elements/1.1/"
   xmlns:cc="http://web.resource.org/cc/"
   xmlns:rdf="http://www.w3.org/1999/02/22-rdf-syntax-ns#"
   xmlns:svg="http://www.w3.org/2000/svg"
   xmlns="http://www.w3.org/2000/svg"
   xmlns:sodipodi="http://sodipodi.sourceforge.net/DTD/sodipodi-0.dtd"
   xmlns:inkscape="http://www.inkscape.org/namespaces/inkscape"
   id="svg2537"
   sodipodi:version="0.32"
   inkscape:version="0.45.1"
   width="518"
   height="233"
   version="1.0"
   sodipodi:docbase="C:\Documents and Settings\Christopher\Desktop\Old Desktop\Stuff\Cetacean Size\SVG"
   sodipodi:docname="Cuvier's_beaked_whale_size.svg"
   inkscape:output_extension="org.inkscape.output.svg.inkscape">
  <metadata
     id="metadata2542">
    <rdf:RDF>
      <cc:Work
         rdf:about="">
        <dc:format>image/svg+xml</dc:format>
        <dc:type
           rdf:resource="http://purl.org/dc/dcmitype/StillImage" />
      </cc:Work>
    </rdf:RDF>
  </metadata>
  <defs
     id="defs2540" />
  <sodipodi:namedview
     inkscape:window-height="573"
     inkscape:window-width="744"
     inkscape:pageshadow="2"
     inkscape:pageopacity="0.0"
     guidetolerance="10.0"
     gridtolerance="10.0"
     objecttolerance="10.0"
     borderopacity="1.0"
     bordercolor="#666666"
     pagecolor="#ffffff"
     id="base"
     inkscape:zoom="1.2722008"
     inkscape:cx="259.00001"
     inkscape:cy="116.5"
     inkscape:window-x="88"
     inkscape:window-y="116"
     inkscape:current-layer="svg2537" />
  <path
     style="fill:#000000"
     d="M 474.11821,201.89655 C 465.6605,199.62553 458.10602,196.56862 446,190.51859 L 437.5,186.27067 L 433.20317,188.11422 C 423.18725,192.41153 412.76917,192.78051 384.5,189.83916 C 367.71834,188.09306 273.87536,188.0542 257,189.78636 C 250.125,190.49204 239.775,191.52032 234,192.07142 C 228.225,192.62252 216.75,194.00797 208.5,195.1502 C 194.76788,197.05144 190.28805,197.18138 155.5,196.68745 C 134.6,196.39071 113,195.65288 107.5,195.04784 C 84.84663,192.55579 70.327747,189.06887 63.603039,184.50536 C 60.515716,182.41025 58.73128,181.99749 52.705591,181.98465 C 44.800217,181.9678 31.389147,178.99232 26.569214,176.18583 C 23.206108,174.2276 22.124942,170.75931 24.125998,168.34818 C 25.18461,167.07263 25.111537,166.64192 23.702762,165.85353 C 20.200788,163.89373 22.369396,159 26.739838,159 C 30.15653,159 36.741812,155.3555 38.220945,152.646 C 42.689937,144.45963 63.252083,132.91579 87.197564,125.14993 C 103.4625,119.87498 108.39912,118.64976 129.9947,114.52808 C 175.90422,105.76589 203.78973,103.57816 260.95393,104.25379 C 309.36184,104.82593 307.31198,105.05056 319.20836,97.869982 C 333.16788,89.444101 339.91993,93.048616 333.44087,105.46787 C 332.58929,107.10019 332.14522,109.44246 332.45404,110.6729 C 333.69046,115.59921 346.62391,122.33319 371.5,131.00274 C 396.25597,139.63043 412.6131,147.62647 428.0323,158.63807 L 432.5646,161.87481 L 438.59852,158.88412 C 442.01889,157.18883 447.04651,155.64428 450.2058,155.31821 L 455.77915,154.74299 L 456.88364,159.89301 C 459.6801,172.93248 470.14084,186.54779 487.25,199.41675 C 489.3125,200.96809 491,202.63397 491,203.11869 C 491,204.63156 481.83213,203.96786 474.11821,201.89655 z M 475.16762,192.44208 C 470.16755,187.73523 464.0835,180.87273 461.6475,177.19208 C 457.50137,170.92751 454,162.81129 454,159.46505 C 454,156.5789 443.79493,158.46736 437.65644,162.48945 L 435.17198,164.11733 L 439.58599,168.18603 C 443.76316,172.03641 444.98601,174 443.20672,174 C 442.77041,174 439.73291,171.71723 436.45672,168.92718 C 420.19658,155.07985 397.33626,142.88107 370,133.46439 C 350.35089,126.69575 338.01498,120.855 332.67328,115.79113 C 328.33116,111.67483 328.24758,110.54497 331.63694,101.78098 C 333.08637,98.033118 333.20748,96.807476 332.2254,95.825398 C 331.24332,94.843319 329.90955,95.150727 325.74442,97.319144 C 322.85999,98.820812 318.96953,101.16428 317.09896,102.52685 C 311.92456,106.29602 306.51705,107.48319 295,107.37849 C 207.92319,106.58691 203.32861,106.73572 166.52756,111.53948 C 132.41041,115.99289 104.9546,121.91099 82.999752,129.54389 C 62.593752,136.63831 44.60706,147.21115 40.406171,154.58103 C 38.727812,157.52548 33.390719,160.75819 28.976709,161.50393 C 26.789519,161.87346 25,162.51401 25,162.92738 C 25,164.5423 30.387997,166 36.357071,166 C 41.494837,166 43.89643,165.37119 49.724558,162.5 C 53.632044,160.575 58.24712,159 59.980281,159 C 63.858908,159 67,160.58188 67,162.53518 C 67,164.18942 64.444825,164.52876 63.5,163 C 62.28967,161.04164 56.724163,162.05169 49.724558,165.5 C 43.471817,168.58038 41.698353,169 34.932463,169 C 29.478517,169 26.899319,169.41639 26.055523,170.4331 C 24.363134,172.4723 27.639207,174.37449 37.476483,177.06445 C 44.070821,178.86764 47.103177,179.14998 54.976483,178.69384 C 60.214417,178.39038 65.5125,177.83264 66.75,177.45442 C 68.392755,176.95233 69,177.17379 69,178.27496 C 69,179.10448 67.7625,180.09859 66.25,180.48408 C 63.529848,181.17737 63.55249,181.2118 68.336132,183.65543 C 79.248647,189.22989 99.181031,192.40944 134,194.12992 C 160.39225,195.43402 192.37326,194.753 206.5,192.58606 C 221.55252,190.27711 255.0178,187.10932 277.5,185.86526 C 299.36996,184.65509 364.51635,185.39718 381.5,187.04994 C 409.07811,189.7337 422.658,189.36082 431.35001,185.68115 L 434.20003,184.47463 L 424.60001,178.53577 C 419.32001,175.26939 415,172.0126 415,171.29845 C 415,169.45894 415.60896,169.63732 420.31982,172.85677 C 426.6912,177.21103 446.42552,187.77274 456.42884,192.18214 C 464.77182,195.85968 479.76084,200.82644 482.87933,200.94677 C 483.63796,200.97605 480.16769,197.14894 475.16762,192.44208 z M 139.5,187.92788 C 128.00884,185.21101 116.63014,181.39042 116.20169,180.10508 C 115.62472,178.37416 118.87829,178.80295 126.85014,181.50845 C 135.33321,184.38744 152.26934,188.00681 157.15708,187.98526 C 161.36633,187.9667 165.38003,185.98075 165.81941,183.69921 C 166.71215,179.06358 155.86257,173.91766 138.75,170.86027 C 134.37792,170.07914 132,169.1826 132,168.31533 C 132,166.84882 134.8682,167.09266 147.31389,169.61721 C 164.75794,173.15566 173.93341,181.97422 166.36514,187.92742 C 164.16317,189.65949 162.39702,189.98516 155.61514,189.90966 C 151.15181,189.85998 143.9,188.96818 139.5,187.92788 z M 77.6875,161.35417 C 76.216464,159.88313 76.990078,156.85144 78.75,157.19037 C 79.7125,157.37573 80.5,158.38373 80.5,159.43036 C 80.5,161.4199 78.868924,162.53559 77.6875,161.35417 z M 439.22251,125.4433 C 436.24036,123.35452 436.41575,120.6102 440.12311,111.35151 L 443.24622,103.55191 L 439.6781,100.46751 C 437.71563,98.771095 432.15788,95.397728 427.32754,92.971143 C 421.9792,90.284337 417.16771,87.021021 415.02255,84.625477 C 413.08515,82.461944 409.8905,79.073631 407.92332,77.095891 C 405.95615,75.118151 402.93429,71.416644 401.20807,68.870321 C 397.95579,64.072931 396.3858,63 392.61821,63 C 391.3982,63 389.86642,62.466418 389.21426,61.814262 C 388.0441,60.644104 374.8573,56.809369 374.21438,57.452285 C 374.03203,57.634634 374.55006,59.380704 375.36554,61.332441 C 376.49025,64.024238 376.56475,65.110857 375.67412,65.832813 C 372.86075,68.113367 357.87424,71.79075 348.78358,72.431204 L 339.06715,73.115743 L 338.42573,70.560108 C 337.18373,65.611582 338.39757,64.652121 345.02387,65.344706 C 349.71077,65.834584 352.09124,65.540687 356.0385,63.984823 C 358.80805,62.89317 361.95738,62 363.03702,62 C 364.6315,62 365,61.310235 365,58.325686 L 365,54.651372 L 362.75,56.708713 C 358.23949,60.833004 353.74011,62.280912 343.01301,63.060102 C 337.23086,63.480104 331.05406,64.141339 329.28679,64.529513 C 324.911,65.490641 321.34757,64.437115 320.70851,61.993348 C 319.66549,58.004811 322.32767,57 333.93808,57 C 347.72587,57 353.01368,55.065727 358.34802,48.070879 C 362.52533,42.593235 362.87528,41 359.90113,41 C 358.74675,41 356.38425,40.355571 354.65113,39.567935 C 352.91801,38.7803 350.60517,37.987632 349.51148,37.806452 C 347.31269,37.442199 346.51556,35.066312 347.40421,31.525644 C 348.11992,28.674037 354.82209,25 359.30829,25 C 363.25222,25 367,27.435121 367,29.997687 C 367,33.229088 368.91277,33.257118 371.5987,30.065075 C 374.91965,26.118341 377.08649,26.152193 389.55352,30.345582 C 395.02408,32.185651 401.27907,34.023221 403.45349,34.429069 C 412.60869,36.137859 417.75598,40.815394 415.90076,45.740379 C 415.20576,47.585353 415.73221,48.644294 418.8836,51.740379 C 421.45372,54.265393 423.9594,58.502195 426.5139,64.642272 L 430.31741,73.784543 L 447.40871,74.514981 C 456.80892,74.916723 465.40489,75.588148 466.51086,76.007038 C 467.74964,76.476229 469.25415,78.828837 470.42931,82.134329 C 472.61158,88.272621 474.06206,90.79608 478.82117,96.733951 L 482.21462,100.9679 L 479.54221,101.98395 C 478.07239,102.54278 476.44612,103 475.92829,103 C 475.41045,103 474.0086,104.125 472.81305,105.5 C 468.47473,110.48951 464.29542,107.84258 462.55003,99 C 461.36696,93.006296 458.94778,86.201552 457.60333,85.085759 C 456.89545,84.498269 450.95761,83.850992 444.40814,83.647366 C 437.85866,83.44374 431.6,82.937244 430.5,82.521819 C 429.4,82.106393 433.225,84.765756 439,88.431514 C 444.775,92.097273 450.7375,95.35606 452.25,95.673265 C 454.41387,96.127076 455,96.815345 455,98.902494 C 455,100.36137 454.26458,102.60495 453.36574,103.88823 C 451.72195,106.23505 451.77905,110.28397 453.63172,122.75 L 454.26334,127 L 447.85418,127 C 443.67185,127 440.67281,126.45913 439.22251,125.4433 z "
     id="path2546" />
</svg>
