<?xml version="1.0" encoding="UTF-8" standalone="no"?>
<!-- Created with Inkscape (http://www.inkscape.org/) -->
<svg
   xmlns:dc="http://purl.org/dc/elements/1.1/"
   xmlns:cc="http://web.resource.org/cc/"
   xmlns:rdf="http://www.w3.org/1999/02/22-rdf-syntax-ns#"
   xmlns:svg="http://www.w3.org/2000/svg"
   xmlns="http://www.w3.org/2000/svg"
   xmlns:sodipodi="http://sodipodi.sourceforge.net/DTD/sodipodi-0.dtd"
   xmlns:inkscape="http://www.inkscape.org/namespaces/inkscape"
   id="svg2"
   sodipodi:version="0.32"
   inkscape:version="0.44.1"
   width="754"
   height="204"
   version="1.0"
   sodipodi:docbase="C:\Wiki Uploads\To Upload"
   sodipodi:docname="Fin_whale_size.svg">
  <metadata
     id="metadata7">
    <rdf:RDF>
      <cc:Work
         rdf:about="">
        <dc:format>image/svg+xml</dc:format>
        <dc:type
           rdf:resource="http://purl.org/dc/dcmitype/StillImage" />
      </cc:Work>
    </rdf:RDF>
  </metadata>
  <defs
     id="defs5" />
  <sodipodi:namedview
     inkscape:window-height="573"
     inkscape:window-width="853"
     inkscape:pageshadow="2"
     inkscape:pageopacity="0.0"
     guidetolerance="10.0"
     gridtolerance="10.0"
     objecttolerance="10.0"
     borderopacity="1.0"
     bordercolor="#666666"
     pagecolor="#ffffff"
     id="base"
     inkscape:zoom="1.0185676"
     inkscape:cx="377"
     inkscape:cy="102"
     inkscape:window-x="132"
     inkscape:window-y="174"
     inkscape:current-layer="svg2" />
  <path
     style="fill:black"
     d="M 645.14747,178.45161 C 638.04744,173.11442 631.17926,164.35968 626.70016,154.93717 L 623.5,148.20511 L 616,145.92029 C 602.34648,141.76084 585.72131,134.95986 568.23619,126.3812 C 543.22286,114.10899 533.41965,112 501.38823,112 C 490.68135,112 477.55141,112.4717 472.21059,113.04821 C 458.99236,114.47506 432.55743,119.34763 415,123.59345 C 403.10388,126.47022 360.37603,133.02665 307,140.16563 C 304.86806,140.45077 306.53138,142.02468 318.29793,150.85622 C 325.88678,156.55215 331.92623,161.72715 331.71892,162.35622 C 331.11246,164.19649 320.41615,164.24625 309.54923,162.45935 C 302.06122,161.22807 297.07876,159.67125 290,156.35101 L 280.5,151.8951 L 284.25,155.73971 C 286.3125,157.85425 288,159.9678 288,160.4365 C 288,161.84469 273.96451,160.28828 266.99646,158.10739 C 263.41951,156.98786 257.39628,154.20422 253.6115,151.92151 L 246.73009,147.77114 L 229.98688,148.88557 C 199.69986,150.90148 147.25962,149.9885 119,146.9533 C 113.775,146.39211 91.725,144.61788 70,143.01055 C 30.60581,140.09598 22.795441,138.93483 18.905436,135.41442 C 16.242499,133.0045 16.550438,130.21723 20.050318,125.05169 C 24.257709,118.84192 29.997511,115.02282 49,105.7894 C 84.586857,88.497544 130.67009,70 138.16273,70 C 153.53816,70 191.6715,62.733139 230,52.499075 C 298.60878,34.179897 354.21593,25.822924 417,24.395603 C 451.52177,23.610792 477.99423,25.023639 491.79914,28.387667 C 510.81664,33.021918 533.02405,34.222549 541.32795,31.065414 C 544.99761,29.670211 561.67698,29.668323 562.53894,31.063013 C 563.41442,32.47957 560.47955,35.60251 555.80242,38.2312 C 553.676,39.426318 552,41.134842 552,42.107416 C 552,46.861281 563.22724,55.327409 584.86726,66.891643 C 601.31263,75.679898 609.42511,80.91108 619,88.901504 C 631.63759,99.447806 640.32938,110.26437 646.48077,123.10017 L 649.9247,130.28646 L 666.95377,137.06719 C 687.11704,145.09593 710.50913,156.94095 724.75,166.33339 C 735.42012,173.37077 737.42865,175.74079 731.75,174.59323 C 712.01692,170.60551 694.60875,169.88433 681.83754,172.52547 C 674.83178,173.97429 674.16536,173.94917 668.57403,172.02547 C 661.02427,169.42797 661,169.43141 661,173.1 C 661,176.45205 655.5097,183 652.69908,183 C 651.87358,183 648.47536,180.95322 645.14747,178.45161 z M 655.68555,177.82569 C 657.49324,176.12745 658,174.58 658,170.7583 C 658,166.55955 658.24832,165.94171 659.75,166.40425 C 675.17238,171.15458 674.62038,171.06218 680.15305,169.8198 C 686.25387,168.44985 709.31241,168.12289 719,169.26898 L 725.5,170.03796 L 718.5,165.4986 C 701.88514,154.72419 670.9642,140.77123 641.01003,130.53154 C 633.59054,127.99522 627.13883,125.53883 626.6729,125.0729 C 624.51674,122.91674 628.50417,123.29724 636.5439,126.01484 C 641.3839,127.65086 645.52178,128.81155 645.73918,128.59415 C 646.42589,127.90744 640.93131,117.73986 636.50147,111.5 C 630.91515,103.63113 616.41271,89.808063 606.99862,83.379228 C 602.87438,80.562804 593.425,75.000489 586,71.018528 C 551.30517,52.412004 542.29048,42.550506 554,36.012553 L 558.5,33.5 L 552.5,33.172031 C 549.2,32.991648 544.025,33.441648 541,34.172031 C 529.8025,36.875656 509.30519,35.521431 490.5,30.835576 C 469.89615,25.701532 402.76667,25.806966 355,31.048393 C 321.28657,34.747761 282.81867,41.854786 249,50.632114 C 193.58488,65.014605 165.5237,70.81735 147,71.724594 C 136.03714,72.261527 134.79938,72.555851 120.5,78.025979 C 99.608037,86.018052 59.128059,103.84065 43,112.14782 C 27.453998,120.15519 20.581767,124.75506 31.049238,120.14697 C 58.148016,108.21728 107.40463,95.86443 128.5,95.707719 C 135.47911,95.655873 138.03134,96.195969 148.5,99.940061 C 155.1,102.30054 165.1125,105.79339 170.75,107.70197 C 180.10139,110.86787 183.5655,113 179.35781,113 C 176.72617,113 164.34216,109.09396 155.06257,105.33704 C 142.60774,100.2946 130.81149,97.680273 124.03555,98.460727 C 106.6692,100.46099 84.019236,105.21866 66.074031,110.63567 C 50.874078,115.22398 24.229494,125.77051 21.865677,128.13432 C 16.672279,133.32772 22.028169,136.26545 39.841613,137.99421 C 45.703726,138.56311 63.1,139.92764 78.5,141.0265 C 93.9,142.12535 113.7,143.71392 122.5,144.55665 C 148.48477,147.04507 208.73296,147.56913 237.44778,145.55651 C 250.61906,144.63334 261.95992,143.56218 262.64968,143.17617 C 263.4316,142.73859 259.59192,139.84549 252.4519,135.49243 C 246.15336,131.65239 241,127.94566 241,127.25527 C 241,125.56361 241.71391,125.67061 244.84563,127.83164 C 250.36611,131.64101 275.97125,145.99628 287.5,151.74538 C 299.5798,157.76928 306.45584,159.65525 323,161.48237 C 329.37552,162.18648 329.98778,162.96421 315.46779,151.91454 C 300.35476,140.41356 292.3433,134.85978 283,129.40692 C 271.80945,122.87597 269.66528,122 264.86961,122 C 262.07544,122 260.96709,121.61533 261.26798,120.75 C 261.52795,120.00236 263.35883,119.53387 265.82368,119.58427 C 270.72593,119.68451 280.75195,124.45777 292.99991,132.52254 L 301.49981,138.11937 L 348.99991,131.52183 C 380.39766,127.16083 402.26293,123.59292 413.5,120.9969 C 452.01468,112.09913 474.95013,109.0093 502.52623,109.00342 C 532.23312,108.99708 545.65604,111.83305 567.40067,122.70996 C 592.58987,135.30987 615.90829,143.87135 636.5,148.08014 C 642.55,149.31671 647.91275,150.6898 648.41722,151.13144 C 650.50953,152.96319 645.76688,152.97895 636.90936,151.16966 C 631.73421,150.11256 627.40862,149.32082 627.29692,149.41024 C 626.69859,149.88926 633.61394,162.13141 637.06448,166.70162 C 641.07447,172.01282 650.21032,180 652.27535,180 C 652.87801,180 654.4126,179.02156 655.68555,177.82569 z M 177.36419,106.50669 C 177.01783,105.60407 177.21394,104.38606 177.8,103.8 C 179.32361,102.27639 182.21041,103.66891 181.81242,105.73549 C 181.36912,108.03737 178.16476,108.59292 177.36419,106.50669 z M 280.40499,155.88867 C 279.35724,154.72743 276.3502,151.97523 273.72267,149.77267 L 268.94534,145.768 L 260.25948,146.49153 C 252.25239,147.15851 251.72704,147.33277 253.53681,148.72145 C 258.68385,152.67086 273.05891,157.79042 279.40499,157.93419 C 282.2966,157.9997 282.3012,157.99028 280.40499,155.88867 z M 716.31328,69.374018 C 715.97011,68.479728 716.23741,66.232351 716.90729,64.379848 C 718.41784,60.202481 718.01809,59.549596 712.11967,56.560639 C 709.51333,55.239908 705.41748,51.84704 703.01777,49.020933 C 698.96619,44.24942 693.8022,41 690.27089,41 C 689.34806,41 689.00854,41.579884 689.37391,42.532013 C 690.08105,44.374785 686.90429,45.76859 679.04703,47.062935 C 674.997,47.730107 673.39294,47.644607 672.81234,46.730608 C 671.48377,44.639125 671.88598,44.136121 675.25,43.682056 C 677.0375,43.440785 675.4625,43.387439 671.75,43.563509 C 665.76506,43.847351 665,43.676748 665,42.058313 C 665,40.521815 666.02339,40.167827 671.46769,39.82116 C 676.54688,39.497741 678.47903,38.898601 680.46769,37.03035 C 683.79313,33.906263 683.67228,33.348701 679.5,32.565978 C 675.6234,31.838723 675.05414,30.165966 677.82874,27.654988 C 680.08721,25.611101 683.35638,25.519557 684.96283,27.455217 C 685.87518,28.554532 686.59352,28.646288 687.89998,27.830391 C 689.18226,27.029594 691.16398,27.181748 695.5647,28.41888 C 705.51285,31.215506 707,32.014454 707,34.562303 C 707,35.838118 707.48724,37.183098 708.08276,37.551148 C 708.67828,37.919199 709.98313,40.127728 710.98242,42.458991 C 712.72652,46.527808 713.01371,46.723395 718.14966,47.340133 C 721.09235,47.693499 724.9276,47.986527 726.67245,47.991308 C 729.35645,47.998662 730.014,48.50039 730.9432,51.25 C 731.54727,53.0375 732.89381,55.608228 733.93551,56.962728 L 735.82953,59.425457 L 732.89059,61.212728 C 728.81034,63.69408 728.4814,63.555261 727.05501,58.75 C 725.28061,52.772331 724.36709,51.997059 719.12756,52.022236 L 714.5,52.044472 L 717,54.025212 C 718.375,55.114619 720.40197,56.250654 721.50437,56.549735 C 723.26641,57.027774 723.50821,57.934007 723.50437,64.045472 L 723.5,70.997427 L 720.21862,70.998714 C 718.11045,70.99954 716.71414,70.418648 716.31328,69.374018 z M 682.97104,42.03906 C 683.78011,41.527387 684.2294,40.896071 683.96947,40.636134 C 683.70953,40.376197 682.62405,40.80173 681.5573,41.581761 C 679.42386,43.141771 680.61709,43.527743 682.97104,42.03906 z "
     id="path1873" />
</svg>
