<?xml version="1.0" encoding="UTF-8" standalone="no"?>
<!-- Created with Inkscape (http://www.inkscape.org/) -->
<svg
   xmlns:dc="http://purl.org/dc/elements/1.1/"
   xmlns:cc="http://web.resource.org/cc/"
   xmlns:rdf="http://www.w3.org/1999/02/22-rdf-syntax-ns#"
   xmlns:svg="http://www.w3.org/2000/svg"
   xmlns="http://www.w3.org/2000/svg"
   xmlns:sodipodi="http://sodipodi.sourceforge.net/DTD/sodipodi-0.dtd"
   xmlns:inkscape="http://www.inkscape.org/namespaces/inkscape"
   id="svg2932"
   sodipodi:version="0.32"
   inkscape:version="0.45.1"
   width="700"
   height="300"
   version="1.0"
   sodipodi:docbase="C:\Documents and Settings\Christopher\Desktop\Old Desktop\Stuff\Cetacean Size\New\SVG 2"
   sodipodi:docname="Harbour porpoise size.svg"
   inkscape:output_extension="org.inkscape.output.svg.inkscape">
  <metadata
     id="metadata2937">
    <rdf:RDF>
      <cc:Work
         rdf:about="">
        <dc:format>image/svg+xml</dc:format>
        <dc:type
           rdf:resource="http://purl.org/dc/dcmitype/StillImage" />
      </cc:Work>
    </rdf:RDF>
  </metadata>
  <defs
     id="defs2935" />
  <sodipodi:namedview
     inkscape:window-height="573"
     inkscape:window-width="744"
     inkscape:pageshadow="2"
     inkscape:pageopacity="0.0"
     guidetolerance="10.0"
     gridtolerance="10.0"
     objecttolerance="10.0"
     borderopacity="1.0"
     bordercolor="#666666"
     pagecolor="#ffffff"
     id="base"
     inkscape:zoom="0.94142857"
     inkscape:cx="350"
     inkscape:cy="150"
     inkscape:window-x="154"
     inkscape:window-y="203"
     inkscape:current-layer="svg2932" />
  <path
     style="fill:#000000"
     d="M 588.91485,288.53559 C 580.64992,287.12327 573.28686,284.2782 571.12767,281.66266 C 570.1113,280.43147 569.87141,277.73067 570.20282,271.25014 C 570.6002,263.47979 571.29128,260.90212 576.37465,248.22987 C 579.52304,240.3813 582.36026,231.75376 582.67959,229.05756 C 583.24935,224.24683 583.16602,224.05599 578.21311,218.82769 C 575.43722,215.89746 570.09118,211.57774 566.33302,209.2283 C 551.25704,199.80347 536.24543,191.28931 531.72687,189.60068 C 520.24235,185.3088 507.77222,174.0393 496.5,157.76545 C 493.2,153.00119 490.09248,149.07995 489.59439,149.05158 C 486.97479,148.90237 481.45852,142.87789 474.05594,132.08158 C 469.5044,125.44338 463.11558,117.54496 459.85855,114.52953 C 454.13065,109.2265 453.79267,109.06668 449.53926,109.64967 C 443.68448,110.45216 440.35579,109.49577 437.15429,106.09125 C 435.02496,103.82689 431.13778,102.26848 417.5,98.211617 C 408.15,95.43025 399.7458,92.859439 398.82401,92.498703 C 395.7725,91.304525 396.20033,96.915463 399.73696,104.47179 C 403.22198,111.91785 403.75573,115.16735 401.75,116.7273 C 399.88831,118.17522 373.76058,126.6457 364,128.96565 C 358.48979,130.27536 351.80673,131.01413 345,131.066 C 339.225,131.11 332.025,131.60223 329,132.15984 C 307.09057,136.19847 301.02441,133.41782 301.00558,119.32755 C 301.00034,115.40843 301.22245,115.08169 304.66394,113.9459 C 309.55521,112.33163 323.24137,113.27291 326.56761,115.45234 C 328.95437,117.01621 329.67584,116.8905 342.78276,112.62706 C 350.32724,110.17298 360.24322,107.36971 364.81826,106.39758 C 372.36771,104.79342 373.08526,104.4392 372.58192,102.56503 C 372.27688,101.42926 372.02116,97.143806 372.01365,93.041792 L 372,85.583584 L 367.75,89.745307 C 363.09774,94.300936 351.28148,100.26934 338.5,104.51951 L 330.5,107.17972 L 305.87473,106.51058 L 281.24946,105.84144 L 278.67019,108.42072 C 276.46204,110.62886 275.21387,111 269.99579,111 C 266.57034,111 262.6471,110.35175 261.03864,109.51998 C 253.57611,105.66096 251.62508,97.22107 256.96184,91.884312 L 259.92368,88.92247 L 272.71184,89.448794 C 279.74533,89.738272 292.925,90.198853 302,90.472308 L 318.5,90.9695 L 331.30311,85.659272 L 344.10621,80.349045 L 349.68174,72.924523 C 352.74827,68.841035 357.48933,62.91777 360.21743,59.761712 L 365.1776,54.023424 L 363.07749,50.625387 C 360.97198,47.218597 358.66265,46.043946 354,46.008078 C 349.79682,45.975744 344.20817,44.044479 341.28105,41.612801 C 339.51996,40.149788 336.58504,39.082142 333.27863,38.701736 C 324.6423,37.708116 324,37.03187 324,28.932698 C 324,18.267771 326.98897,13 333.04034,13 C 334.23484,13 336.06926,11.910371 337.11683,10.578601 C 338.1644,9.2468323 341.03083,7.389833 343.48668,6.4519365 C 349.58015,4.1248188 363.20909,4.7699491 368.08253,7.6161888 C 372.35318,10.110386 376,15.414661 376,19.132107 C 376,20.894214 377.13875,23.205324 379.00668,25.234223 L 382.01336,28.5 L 384.06239,26 C 385.18936,24.625 387.72527,21.537833 389.69774,19.139629 C 396.87071,10.418489 402.63336,10.041414 421.73891,17.043038 C 453.8161,28.79839 463.86765,32.209026 470.49054,33.585175 C 485.71963,36.749578 495.65294,40.887429 502.19793,46.793312 C 509.35791,53.254131 510.68594,59.531296 506.5418,67.325354 L 504.08361,71.948586 L 509.51264,75.552171 C 520.88445,83.10035 526.55643,91.331795 533.50774,110.375 C 535.33973,115.39375 538.61069,123.325 540.77653,128 C 542.94238,132.675 545.23976,138.11532 545.88183,140.0896 L 547.04923,143.67919 L 565.77461,144.90527 C 576.07358,145.57962 589.225,146.81394 595,147.64821 C 600.775,148.48248 613.41394,149.50217 623.08654,149.9142 C 638.19972,150.55797 641.312,150.97262 645.21604,152.86254 C 650.17302,155.26217 649.67993,154.3966 658.59256,176.34371 C 663.52007,188.47756 670.21854,199.29895 680.77274,212.17583 C 688.69638,221.84325 688.68829,222.16496 680.47528,224.00554 C 672.3856,225.81848 666.94909,228.74091 661.93205,233.97359 C 650.94495,245.43291 644.22583,241.00547 638.07215,218.25156 C 633.3211,200.68404 627.31799,183.08132 624.88823,179.59277 C 623.70347,177.89175 621.35602,175.38046 619.67167,174.01213 C 616.7213,171.6153 616.14975,171.53473 604.05461,171.81067 C 585.01822,172.24495 553.58788,168.28839 542.6849,164.08524 C 537.94776,162.25904 538.25318,162.90001 543.5,165.79581 C 546.25,167.31359 550.525,170.03672 553,171.84723 C 562.13731,178.53134 593.7643,198.75318 602,203.17712 C 606.675,205.68837 611.07763,207.53331 611.78362,207.27698 C 614.16951,206.41071 616,209.12861 616,213.53742 C 616,216.63966 614.86017,219.98131 611.88945,225.58834 C 606.03121,236.64538 605.92016,240.02603 610.58294,265.35982 C 613.41913,280.76937 614.13294,286.56717 613.34771,287.81623 C 611.97086,290.00638 599.64553,290.36927 588.91485,288.53559 z M 398.5,277.1293 C 393.06765,273.7554 387.84779,266.51566 384.5275,257.75 L 382.72828,253 L 371.55056,253 C 359.51491,253 347.06181,251.58286 323.68871,247.55342 C 304.58071,244.25926 279.99384,244.07659 254,247.03564 C 223.42882,250.51576 190.78881,250.64632 164,247.39563 L 159.5,246.84958 L 169.83048,256.93335 C 175.51224,262.47943 179.96851,267.57577 179.7333,268.25856 C 179.44297,269.10137 176.99262,269.47874 172.10227,269.4338 C 165.49768,269.3731 164.0779,268.95066 155.02216,264.35174 C 146.20249,259.8727 145.09415,259.53196 144.66633,261.16794 C 144.05527,263.50466 141.70686,263.47952 134.67741,261.06104 C 123.87861,257.34571 116.08889,252.95012 109.94815,247.10679 L 103.8282,241.28324 L 92.490654,240.60542 C 80.40279,239.88274 64.858223,237.65699 60.604812,236.03985 C 59.184101,235.4997 53.928012,234.3988 48.924614,233.59341 C 38.595302,231.93071 31.15609,228.68671 29.112488,224.95397 C 28.102555,223.10927 27.915582,220.83123 28.43373,216.68411 C 29.672046,206.77296 34.574569,201.89316 59.5,185.76184 C 87.262861,167.79418 107.0763,161.76273 152.5,157.45149 C 186.74423,154.20131 195.14091,151.99592 215,141.03586 C 224.92521,135.55822 230.25005,137.8659 231.62641,148.2414 C 232.95841,158.28251 241.46895,163.92453 263.8803,169.62396 C 296.11794,177.82232 314.55967,184.31753 338.76189,195.99741 C 361.5056,206.97341 381.31914,219.7184 395.83521,232.70962 L 402.5,238.6743 L 411.5,239.3097 C 416.45,239.65916 423.2,240.67349 426.5,241.56375 C 434.0451,243.59924 447,249.52132 447,250.93493 C 447,251.52072 445.2367,252 443.08155,252 C 440.9264,252 434.1397,253.575 428,255.5 C 421.8603,257.425 415.6361,259.04579 414.16845,259.10175 C 412.30127,259.17294 410.14877,260.70969 407,264.21958 C 402.88061,268.8114 402.51278,269.6486 402.65106,274.11783 C 402.73414,276.80302 402.50914,278.99832 402.15106,278.99626 C 401.79298,278.99421 400.15,278.15407 398.5,277.1293 z M 400.46487,274.94316 C 399.21867,272.92677 401.05381,269.00618 405.68415,263.79265 C 410.19867,258.70955 410.26807,258.53542 407.99341,257.99844 C 406.70359,257.69396 405.46881,256.90644 405.24947,256.24841 C 404.94497,255.33492 405.598,255.3125 408.01083,256.15362 C 412.00132,257.54471 420.44097,256.5972 426.25389,254.1055 C 428.68829,253.06199 433.33955,251.64418 436.59003,250.9548 L 442.5,249.70139 L 437.07637,247.29409 C 427.31772,242.96268 416.68186,241.01466 402.75,241.00701 C 394.92134,241.0027 390,240.61401 390,240 C 390,239.45 392.3625,238.98154 395.25,238.95899 L 400.5,238.91797 L 396,234.80687 C 388.15024,227.6355 372.09972,216.1192 359.86025,208.87649 C 334.27138,193.73426 305.86871,182.49601 267.99332,172.52695 C 238.82708,164.8502 231.18918,159.99112 229.71082,148.17238 C 228.72468,140.28876 223.98789,137.98834 216.9844,141.99182 C 196.66481,153.60731 189.7191,155.54721 157.72079,158.54375 C 111.26082,162.89458 86.905708,169.7666 64.631864,184.80963 C 59.059339,188.57313 51.669702,193.34897 48.210449,195.42261 C 36.118795,202.67091 30.020901,210.8196 30.005577,219.75 C 29.998518,223.8639 30.181647,223.86177 46.25,219.56152 C 53.2625,217.68482 59,216.54839 59,217.03612 C 59,217.52386 57.0875,218.42142 54.75,219.03072 C 52.4125,219.64001 47.526484,221.00735 43.892187,222.06926 C 40.25789,223.13117 35.575646,224 33.4872,224 C 29.738832,224 29.71356,224.02601 31.521026,226.02323 C 33.52469,228.23726 39.926825,230.30713 50,231.99768 C 53.575,232.59766 60.1,233.95001 64.5,235.00289 C 75.529161,237.64209 89.483685,239.00425 105.21059,238.97682 L 118.5,238.95364 L 113.69258,234.36757 C 105.40287,226.45954 109.20649,228.58652 121.09136,238.50495 C 134.47011,249.67009 147.70613,258.76606 157.5,263.52546 C 164.63769,266.99407 176.35664,269.97669 177.67347,268.65987 C 178.82613,267.50721 153.36719,242.48334 144.25,235.80758 C 139.7125,232.48514 136,229.32507 136,228.78519 C 136,227.51894 140.21565,230.22607 148.01378,236.5 C 151.43187,239.25 155.18958,242.27018 156.36425,243.2115 C 159.87322,246.02344 177.65453,247.46002 209,247.46401 C 231.83408,247.46692 240.28326,247.07955 251.5,245.51555 C 262.19216,244.02468 271.28873,243.55596 290,243.53173 C 311.57178,243.50379 315.75495,243.76545 325,245.72102 C 344.64062,249.87553 358.28317,251.22946 375,250.68318 C 383.525,250.4046 391.85,249.85552 393.5,249.46301 C 395.81734,248.91174 396.24311,249.02337 395.37108,249.95359 C 394.75018,250.61592 392.37671,251.40804 390.0967,251.71385 C 387.8167,252.01967 385.70163,252.67376 385.39655,253.16739 C 384.40245,254.77587 390.72443,266.74573 395.04188,271.42961 C 398.81082,275.51842 402.1625,277.68997 400.46487,274.94316 z M 72.6875,208.35417 C 71.216464,206.88313 71.990078,203.85144 73.75,204.19037 C 74.7125,204.37573 75.5,205.38373 75.5,206.43036 C 75.5,208.4199 73.868924,209.53559 72.6875,208.35417 z M 144,260.05646 C 144,259.09606 142.37975,257.70314 128.85089,247.03288 L 121.20179,241 L 113.85089,241.03646 L 106.5,241.07293 L 112.18616,246.43364 C 117.5423,251.48322 123.57717,254.99392 134,259.12352 C 138.91901,261.07246 144,261.54649 144,260.05646 z "
     id="path2941" />
</svg>
