<?xml version="1.0" encoding="utf-8"?>
<!-- Generator: Adobe Illustrator 20.1.0, SVG Export Plug-In . SVG Version: 6.00 Build 0)  -->
<svg version="1.1"
	 id="svg3203" inkscape:version="0.48.4 r9939" sodipodi:docname="Sperm_whale_male_and_female_size.svg" xmlns:cc="http://creativecommons.org/ns#" xmlns:dc="http://purl.org/dc/elements/1.1/" xmlns:inkscape="http://www.inkscape.org/namespaces/inkscape" xmlns:rdf="http://www.w3.org/1999/02/22-rdf-syntax-ns#" xmlns:sodipodi="http://sodipodi.sourceforge.net/DTD/sodipodi-0.dtd" xmlns:svg="http://www.w3.org/2000/svg"
	 xmlns="http://www.w3.org/2000/svg" xmlns:xlink="http://www.w3.org/1999/xlink" x="0px" y="0px" viewBox="0 0 1792.9 659.8"
	 style="enable-background:new 0 0 1792.9 659.8;" xml:space="preserve">
<style type="text/css">
	.st0{fill:none;stroke:#000000;stroke-width:4;}
	.st1{fill:none;stroke:#000000;stroke-width:2;stroke-miterlimit:10;}
	.st2{stroke:#000000;stroke-width:2;stroke-miterlimit:10;}
</style>
<sodipodi:namedview  bordercolor="#666666" borderopacity="1.0" fit-margin-bottom="0" fit-margin-left="0" fit-margin-right="0" fit-margin-top="0" id="base" inkscape:current-layer="flowRoot4094" inkscape:cx="1046.0567" inkscape:cy="494.58776" inkscape:document-units="px" inkscape:guide-bbox="true" inkscape:pageopacity="0.0" inkscape:pageshadow="2" inkscape:snap-global="false" inkscape:window-height="1017" inkscape:window-maximized="1" inkscape:window-width="1920" inkscape:window-x="-8" inkscape:window-y="-8" inkscape:zoom="0.49497475" pagecolor="#ffffff" showgrid="false" showguides="true">
	<sodipodi:guide  id="guide3899" orientation="1,0" position="-3.2782454,559.68973"></sodipodi:guide>
	<sodipodi:guide  id="guide4192" orientation="1,0" position="1597.584,1950.3608"></sodipodi:guide>
	<sodipodi:guide  id="guide4194" orientation="1,0" position="1097.2269,895.71792"></sodipodi:guide>
	<sodipodi:guide  id="guide4212" orientation="1,0" position="172.23576,1280.9387"></sodipodi:guide>
</sodipodi:namedview>
<g id="layer1" transform="translate(-7.9755784,-557.52339)" inkscape:groupmode="layer" inkscape:label="Layer 1">
</g>
<path id="path3224-8" inkscape:connector-curvature="0" sodipodi:nodetypes="csssssssssssssc" class="st0" d="M461,341.8
	c0,0,15.5,13.3,26,19.6c11.2,6.7,22,14,33.2,20.8c11.5,6.9,22.7,14.3,34.7,20.3c6.4,3.2,12.9,6.7,19.8,8.3
	c5.4,1.3,11.5,3.3,16.6,1.2c4.5-1.8,7.7-6.4,9.8-10.8c2-4.1,1.1-9.1,2.2-13.5c1.7-6.9,4-13.6,6.9-20.1c1.7-3.7,6.2-6.6,6.1-10.7
	c0-2.6-2.2-4.8-4.1-6.5c-6.3-5.8-15.2-8.1-22.9-11.8c-8.1-3.8-17.3-5.5-24.6-10.6c-4.9-3.4-7.4-9.8-12.5-13
	c-2.5-1.6-8.3-2.8-8.3-2.8"/>
<path class="st0" d="M1781.5,26.3c-7.2-4.6-16-6-24.2-8.3c-10-2.9-20-5.6-30.3-7.1c-13.4-1.9-27-1.7-40.6-2.2
	c-17.7-0.7-35.4-1.9-53.1-1.3c-13.9,0.4-27.7,2.4-41.5,3.5c-13.8,1-27.6,1.7-41.4,2.8c-13.6,1.1-27.1,3.7-40.8,3.6
	c-8.2-0.1-16.4-1.1-24.4-2.5c-10.7-1.9-20.9-6.1-31.6-8.1c-11.4-2.1-22.9-5.4-34.4-4.1c-10.9,1.2-20.2,9.3-31,11
	c-10.3,1.7-20.9,0.1-31.3-0.7c-13.7-1-27.3-7.2-40.8-5.2c-13.1,1.9-25,9-36.2,16c-9.4,5.9-14.9,18-25.4,21.4
	c-5.1,1.6-10.6-0.4-15.9-1.1c-6.2-0.8-12.2-4.2-18.4-3.7c-9.7,0.8-17.6,9.2-27.2,10.2c-11,1.1-21.8-6.8-32.8-5.3
	c-7.2,1-12.6,8.3-19.8,9.2c-10.7,1.4-21.1-6.9-31.9-5.9c-5.8,0.5-10.6,5.5-16.3,6.1c-9.1,1-18.1-4.8-27.2-3.7
	c-3.3,0.4-6.1,2.9-9.4,3.6c-9.6,2-19.6,1.8-29.4,1.1c-14.4-1.1-29.1-3.1-42.5-8.4c-8.2-3.2-14.2-11.1-22.6-13.9
	c-8.2-2.8-17.6-5.4-25.9-2.8c-7.2,2.3-10.7,10.7-17,14.8c-9.3,6-19.8,10.1-30.1,14.1c-48.1,18.7-97.4,35.4-147.9,46.1
	c-45,9.5-91.2,12.4-137.1,15.7c-48.4,3.4-97,6.4-145.4,4.1c-13-0.6-25.7-4.2-38.7-4.8c-33.3-1.6-66.6,2.8-99.9,2.7
	c-33.9-0.1-67.8-2.9-101.8-3.4c-17.6-0.3-35.1,0.2-52.7,0.2l0,0c-15.8,0-31.6-0.9-47.4-0.4c-11.8,0.3-23.8,0.3-35.5,2.3
	c-10.4,1.7-21.2,3.3-30.6,8.2c-11.5,6-21.9,14.8-29.7,25.1c-7.2,9.5-11.7,21.1-14.8,32.7c-3.6,13.2-4.1,27.2-4.5,40.9
	C1.8,239.9,2.4,251,4,262c1.6,11.3,3.5,22.8,7.7,33.4c3.3,8.4,8.4,16.1,13.7,23.4c4.2,5.8,8.1,12.4,14.2,16.2
	c4.3,2.7,9.8,2.7,14.7,3.9c6.1,1.4,12.3,2.4,18.4,3.7c8.5,1.8,16.8,4.6,25.4,5.6c11.4,1.3,22.9,0.6,34.3,0.5
	c14.5-0.2,28.9-1.8,43.4-1.7c16.7,0.1,33.5,0.4,50.1,2.3c13.6,1.5,27.2,4,40.5,7.3c6.4,1.6,12.4,4.3,18.8,6
	c9.8,2.6,19.7,4.8,29.7,6.3c14.3,2.2,28.7,3.4,43.2,4.1c12.6,0.7,25.3,0.3,38,0.3c20.2,0,40.5-0.8,60.7-0.3c15,0.3,30,1.3,45,2.2
	c2.5,0.2,5,0.3,7.4,0.5c3.7,2.3,7.4,4.7,11.1,6.9c11.5,6.9,22.7,14.3,34.7,20.3c6.4,3.2,12.9,6.7,19.8,8.3
	c5.4,1.3,11.5,3.3,16.6,1.2c4.5-1.8,7.7-6.4,9.8-10.8c2-4.1,1.1-9.1,2.2-13.5c0.4-1.8,0.9-3.5,1.4-5.3c1.3,0.1,2.5,0.2,3.8,0.3
	c6.5,0.4,13.1,1.3,19.6,1c8.6-0.4,17-2.4,25.5-3.9c14.6-2.5,29.2-5.4,43.7-8.2c20.9-4,41.8-8.2,62.7-12.4c17.2-3.5,34-8.8,51.4-10.6
	c8.7-0.9,17.6,0.3,26.3-0.1c11.7-0.5,23.3-1.5,34.9-3.1c25.3-3.5,50.3-9.3,75.4-14c24.7-4.7,50.7-4.7,74-14.3
	c13.4-5.5,23.6-16.8,36.1-24.1c7-4.1,14-8.1,21.5-11.1c11.1-4.4,22.9-6.8,34.5-9.7c8.6-2.2,17.9-2.2,25.8-6c4.1-2,6.5-7,10.9-8.5
	c9.5-3.2,20,1.6,29.9,0.5c16.1-1.8,31.5-7.1,47.2-11.3c13.9-3.7,28.4-6.1,41.5-12.3c9.2-4.3,17.1-11.2,25.4-17.1
	c12.7-8.9,25.6-17.5,37.4-27.5c12.4-10.6,23.1-23.1,34.9-34.5c13.3-12.9,26.5-26,40.2-38.4c9-8.1,17.7-16.7,27.6-23.6
	c6.3-4.4,20.1-11.3,20.1-11.3s3.4,6.7,5.7,9.7c3.8,4.9,8.2,9.5,13.2,13.1c2.2,1.6,4.7,3.4,7.4,3.8c3.3,0.5,6.8-0.4,9.8-1.8
	c7.3-3.2,12.3-10.3,19.2-14.4c6.8-4.1,13.9-7.7,21.4-10.4c8.3-3,17.9-2,25.8-6c9-4.5,16.5-11.9,22.9-19.7c3-3.6,3-9.8,7.1-12
	c5.3-2.9,12.1,0.6,18.2,0.8c8.5,0.3,17,0.4,25.5,0.5c13.1,0.2,26.3,1.3,39.4,0.6c13.5-0.8,27-2.7,40.3-5.1
	c10.5-1.9,20.7-5.5,31.2-7.3c9.4-1.7,19-5.1,28.3-3.4c6,1.1,16.2,8.5,16.2,8.5l4.1-3C1790.9,35.8,1785.2,28.6,1781.5,26.3z"/>
<path id="path4152-2" inkscape:connector-curvature="0" sodipodi:nodetypes="cc" class="st0" d="M1516.4,16.9c0,0-25.9,1.2-38.3,4.5
	"/>
<path id="path3241-3" inkscape:connector-curvature="0" sodipodi:nodetypes="cssssssc" class="st0" d="M75.2,340.4
	c0,0,15.2-5.6,23.1-7.2c9.5-1.9,19.3-2,28.9-2.6c11.7-0.7,23.5-1.5,35.2-0.8c9.8,0.6,19.5,2.7,29.3,4c8.6,1.2,17.2,2.3,25.8,3.5
	c10.7,1.5,21.4,3.1,32.2,4.5c6.9,0.9,14.8,2.5,21,4.7"/>
<path id="path3011" inkscape:connector-curvature="0" sodipodi:nodetypes="cscsssc" class="st0" d="M1481.7,30
	c5.7-0.4,16.6-3.1,31.6-1.6c42.9,4.3,103.4,15.5,61.6,18.1c0,0-19.7,2.7-31.4,4.6c-11.6,1.9-23.3,3.1-34.6,6.1
	c-9.3,2.4-18.4,5.5-27.1,9.5c-9.6,4.4-27.5,16-27.5,16"/>
<g id="layer3" transform="translate(-7.9755784,-557.52339)" inkscape:groupmode="layer" inkscape:label="flipper">
</g>
<path id="path4230-7_1_" inkscape:connector-curvature="0" sodipodi:nodetypes="cssssssscc" class="st1" d="M314.2,254.8
	c0,0,3.1-1.4,4.7-2.1c2.9-1.2,5.6-2.8,8.6-3.5c4.3-1.1,8.8-1.5,13.2-1.3c3.6,0.2,7.1,1.2,10.6,2.2c2.4,0.7,4.2,1.1,6,2.7
	c0.6,0.5,1,1.3,1.1,2.1c0.1,0.5-0.1,1-0.3,1.4"/>
<path id="path3822-7" inkscape:connector-curvature="0" sodipodi:nodetypes="cc" class="st1" d="M321.5,260.4
	c14,12.3,27.1,9.8,35.4,6.4"/>
<path id="path4022-9" inkscape:connector-curvature="0" sodipodi:nodetypes="cc" class="st1" d="M323.6,247.6
	c7.4-2.8,15.5-2.9,23.6-2.2"/>
<path class="st2" d="M356.5,256.5c-2.2-0.9-4.7,0.3-7,0.3c-1,0-2.1,0.2-3-0.1c-0.7-0.2-1.2-0.9-1.9-1.2c-1.1-0.5-2.3-1.2-3.6-1.3
	c-0.9-0.1-1.4-0.2-2.3,0c-0.6,0.1-1.4,0.8-2,0.7c-5.6,1.7-14.1-0.4-20.3-0.6c-0.8,0.2-2.4,0.6-2.4,0.6s6.7,1.8,10.2,2.2
	c2.8,0.3,8.4,0.2,8.4,0.2s1.4,2.3,2.5,3.2c1.3,1,2.8,1.8,4.4,2.1c1.5,0.3,3.1,0.2,4.6-0.4c0.8-0.3,1.5-1,2.2-1.6s2-2.1,2-2.1
	s3.6,0,5.4-0.1c1,0,2.1,0.3,3-0.2c0.3-0.2,0.8-0.5,0.7-0.9C357.4,257,356.9,256.7,356.5,256.5z M343.2,258.1
	c-0.1,0.5-0.2,1.1-0.6,1.4c-0.7,0.5-1.8,0.4-2.7,0.4c-0.6,0-1.3-0.2-1.8-0.5c-0.4-0.2-0.8-0.6-1-1c-0.3-0.6-0.4-2-0.4-2l0,0
	c0,0,1.9-0.8,2.8-1c1-0.2,3.1,0.7,3.1,0.7c0.5,1,0.4-0.1,0.5,0.4C343.1,257.1,343.2,257.6,343.2,258.1z"/>
<g id="layer4" transform="translate(15.94485,263.82185)" inkscape:groupmode="layer" inkscape:label="female">
</g>
<g id="layer6" transform="translate(-7.9755784,-557.52339)" inkscape:groupmode="layer" inkscape:label="highlights">
</g>
<g id="layer5" transform="translate(-7.9755784,-557.52339)" inkscape:groupmode="layer" inkscape:label="mouth">
</g>
</svg>
